SplineFontDB: 3.2
FontName: Montserrat-Light
FullName: Montserrat Light
FamilyName: Montserrat Light
Weight: Light
Copyright: Copyright 2011 The Montserrat Project Authors (https://github.com/JulietaUla/Montserrat)
Version: 9.000
ItalicAngle: 0
UnderlinePosition: -125
UnderlineWidth: 50
Ascent: 800
Descent: 200
InvalidEm: 0
sfntRevision: 0x00090000
LayerCount: 2
Layer: 0 1 "Back" 1
Layer: 1 1 "Fore" 0
XUID: [1021 598 623987363 714802]
StyleMap: 0x0040
FSType: 0
OS2Version: 4
OS2_WeightWidthSlopeOnly: 0
OS2_UseTypoMetrics: 1
CreationTime: 1624264748
ModificationTime: 1773227369
PfmFamily: 81
TTFWeight: 300
TTFWidth: 5
LineGap: 0
VLineGap: 0
Panose: 0 0 0 0 0 0 0 0 0 0
OS2TypoAscent: 968
OS2TypoAOffset: 0
OS2TypoDescent: -251
OS2TypoDOffset: 0
OS2TypoLinegap: 0
OS2WinAscent: 1109
OS2WinAOffset: 0
OS2WinDescent: 453
OS2WinDOffset: 0
HheadAscent: 968
HheadAOffset: 0
HheadDescent: -251
HheadDOffset: 0
OS2SubXSize: 650
OS2SubYSize: 600
OS2SubXOff: 0
OS2SubYOff: 75
OS2SupXSize: 650
OS2SupYSize: 600
OS2SupXOff: 0
OS2SupYOff: 350
OS2StrikeYSize: 50
OS2StrikeYPos: 313
OS2CapHeight: 700
OS2XHeight: 522
OS2Vendor: 'ULA '
OS2CodePages: 20000197.00000000
OS2UnicodeRanges: a00002ff.4000247b.00000000.00000000
Lookup: 1 0 0 "'aalt' Access All Alternates lookup 0" { "'aalt' Access All Alternates lookup 0 subtable"  } ['aalt' ('DFLT' <'NAV ' 'dflt' > 'cyrl' <'BGR ' 'BSH ' 'CHU ' 'MKD ' 'SRB ' 'dflt' > 'latn' <'AZE ' 'CAT ' 'CRT ' 'KAZ ' 'MOL ' 'NAV ' 'NLD ' 'NSM ' 'ROM ' 'TAT ' 'TOD0' 'TRK ' 'VIT ' 'XPE ' 'dflt' > ) ]
Lookup: 3 0 0 "'aalt' Access All Alternates lookup 1" { "'aalt' Access All Alternates lookup 1 subtable"  } ['aalt' ('DFLT' <'NAV ' 'dflt' > 'cyrl' <'BGR ' 'BSH ' 'CHU ' 'MKD ' 'SRB ' 'dflt' > 'latn' <'AZE ' 'CAT ' 'CRT ' 'KAZ ' 'MOL ' 'NAV ' 'NLD ' 'NSM ' 'ROM ' 'TAT ' 'TOD0' 'TRK ' 'VIT ' 'XPE ' 'dflt' > ) ]

StartChar: .notdef
Encoding: 65536 -1 0
Width: 587
GlyphClass: 1
Flags: W
LayerCount: 2
Fore
SplineSet
40 0 m 1,0,-1
 40 700 l 1,1,-1
 547 700 l 1,2,-1
 547 0 l 1,3,-1
 40 0 l 1,0,-1
120 70 m 1,4,-1
 467 70 l 1,5,-1
 467 630 l 1,6,-1
 120 630 l 1,7,-1
 120 70 l 1,4,-1
EndSplineSet
Validated: 1
EndChar

StartChar: A
Encoding: 65 65 1
Width: 705
GlyphClass: 2
Flags: W
AnchorPoint: "Anchor-3" 353 700 basechar 0
AnchorPoint: "Anchor-2" 700 0 basechar 0
AnchorPoint: "Anchor-0" 353 0 basechar 0
LayerCount: 2
Fore
SplineSet
5 0 m 1,0,-1
 327 700 l 1,1,-1
 378 700 l 1,2,-1
 700 0 l 1,3,-1
 645 0 l 1,4,-1
 341 668 l 1,5,-1
 363 668 l 1,6,-1
 60 0 l 1,7,-1
 5 0 l 1,0,-1
123 197 m 1,8,-1
 140 240 l 1,9,-1
 559 240 l 1,10,-1
 576 197 l 1,11,-1
 123 197 l 1,8,-1
EndSplineSet
Validated: 5
Substitution2: "'ss01' Style Set 1 lookup 50 subtable" A.ss01
Substitution2: "'c2sc' Capitals to Small Capitals lookup 45 subtable" a.sc
Substitution2: "Single Substitution lookup 39 subtable" ordfeminine
AlternateSubs2: "'aalt' Access All Alternates lookup 1 subtable" ordfeminine a.sc A.ss01
EndChar

StartChar: uni2C6D
Encoding: 11373 11373 25
Width: 905
GlyphClass: 2
Flags: W
AnchorPoint: "Anchor-3" 430 700 basechar 0
AnchorPoint: "Anchor-2" 781 0 basechar 0
AnchorPoint: "Anchor-0" 430 0 basechar 0
LayerCount: 2
Fore
SplineSet
416 -5 m 0,0,1
 339 -5 339 -5 273 21 c 128,-1,2
 207 47 207 47 158.5 94.5 c 128,-1,3
 110 142 110 142 82.5 207.5 c 128,-1,4
 55 273 55 273 55 352 c 0,5,6
 55 430 55 430 82.5 494.5 c 128,-1,7
 110 559 110 559 159 606 c 128,-1,8
 208 653 208 653 273.5 679 c 128,-1,9
 339 705 339 705 415 705 c 256,10,11
 491 705 491 705 555 680 c 128,-1,12
 619 655 619 655 666.5 608.5 c 128,-1,13
 714 562 714 562 740.5 497 c 128,-1,14
 767 432 767 432 767 352 c 0,15,16
 767 271 767 271 740.5 205.5 c 128,-1,17
 714 140 714 140 666.5 93 c 128,-1,18
 619 46 619 46 555 20.5 c 128,-1,19
 491 -5 491 -5 416 -5 c 0,0,1
419 42 m 256,20,21
 508 42 508 42 578 81.5 c 128,-1,22
 648 121 648 121 689 190.5 c 128,-1,23
 730 260 730 260 730 352 c 0,24,25
 730 442 730 442 689 511 c 128,-1,26
 648 580 648 580 578 619 c 128,-1,27
 508 658 508 658 419 658 c 0,28,29
 331 658 331 658 260 619 c 128,-1,30
 189 580 189 580 148 511 c 128,-1,31
 107 442 107 442 107 352 c 0,32,33
 107 260 107 260 148 190.5 c 128,-1,34
 189 121 189 121 259.5 81.5 c 128,-1,35
 330 42 330 42 419 42 c 256,20,21
731 0 m 1,36,-1
 731 241 l 1,37,-1
 744 353 l 1,38,-1
 730 465 l 1,39,-1
 730 700 l 1,40,-1
 781 700 l 1,41,-1
 781 0 l 1,42,-1
 731 0 l 1,36,-1
EndSplineSet
Validated: 5
Substitution2: "'c2sc' Capitals to Small Capitals lookup 45 subtable" uni0251.sc
Substitution2: "'aalt' Access All Alternates lookup 0 subtable" uni0251.sc
EndChar

StartChar: uni023A
Encoding: 570 570 31
Width: 705
GlyphClass: 1
Flags: W
LayerCount: 2
Fore
SplineSet
5 0 m 1,0,-1
 327 700 l 1,1,-1
 378 700 l 1,2,-1
 700 0 l 1,3,-1
 645 0 l 1,4,-1
 341 670 l 1,5,-1
 363 670 l 1,6,-1
 60 0 l 1,7,-1
 5 0 l 1,0,-1
123 198 m 1,8,-1
 140 239 l 1,9,-1
 559 239 l 1,10,-1
 576 198 l 1,11,-1
 123 198 l 1,8,-1
179 -70 m 1,12,-1
 560 770 l 1,13,-1
 605 770 l 1,14,-1
 224 -70 l 1,15,-1
 179 -70 l 1,12,-1
EndSplineSet
Validated: 5
Substitution2: "'ss01' Style Set 1 lookup 50 subtable" uni023A.ss01
Substitution2: "'c2sc' Capitals to Small Capitals lookup 45 subtable" uni2C65.sc
AlternateSubs2: "'aalt' Access All Alternates lookup 1 subtable" uni2C65.sc uni023A.ss01
EndChar

StartChar: uni2C6F
Encoding: 11375 11375 33
Width: 705
GlyphClass: 2
Flags: W
AnchorPoint: "Anchor-3" 353 700 basechar 0
AnchorPoint: "Anchor-2" 5 700 basechar 0
AnchorPoint: "Anchor-0" 353 0 basechar 0
LayerCount: 2
Fore
SplineSet
700 700 m 1,0,-1
 378 0 l 1,1,-1
 327 0 l 1,2,-1
 5 700 l 1,3,-1
 60 700 l 1,4,-1
 364 32 l 1,5,-1
 342 32 l 1,6,-1
 646 700 l 1,7,-1
 700 700 l 1,0,-1
582 503 m 1,8,-1
 565 460 l 1,9,-1
 147 460 l 1,10,-1
 129 503 l 1,11,-1
 582 503 l 1,8,-1
EndSplineSet
Validated: 5
Substitution2: "'ss01' Style Set 1 lookup 50 subtable" uni2C6F.ss01
Substitution2: "'c2sc' Capitals to Small Capitals lookup 45 subtable" uni0250.sc
AlternateSubs2: "'aalt' Access All Alternates lookup 1 subtable" uni0250.sc uni2C6F.ss01
EndChar

StartChar: AE
Encoding: 198 198 34
Width: 1022
GlyphClass: 2
Flags: W
AnchorPoint: "Anchor-3" 614 700 basechar 0
AnchorPoint: "Anchor-2" 958 0 basechar 0
AnchorPoint: "Anchor-0" 500 0 basechar 0
LayerCount: 2
Fore
SplineSet
5 0 m 1,0,-1
 439 700 l 1,1,-1
 491 700 l 1,2,-1
 491 654 l 1,3,-1
 443 654 l 1,4,-1
 476 674 l 1,5,-1
 60 0 l 1,6,-1
 5 0 l 1,0,-1
163 197 m 1,7,-1
 171 240 l 1,8,-1
 491 240 l 1,9,-1
 491 197 l 1,10,-1
 163 197 l 1,7,-1
475 0 m 1,11,-1
 475 700 l 1,12,-1
 943 700 l 1,13,-1
 943 654 l 1,14,-1
 526 654 l 1,15,-1
 526 46 l 1,16,-1
 958 46 l 1,17,-1
 958 0 l 1,18,-1
 475 0 l 1,11,-1
520 333 m 1,19,-1
 520 378 l 1,20,-1
 899 378 l 1,21,-1
 899 333 l 1,22,-1
 520 333 l 1,19,-1
EndSplineSet
Validated: 5
Substitution2: "'ss01' Style Set 1 lookup 50 subtable" AE.ss01
Substitution2: "'c2sc' Capitals to Small Capitals lookup 45 subtable" ae.sc
AlternateSubs2: "'aalt' Access All Alternates lookup 1 subtable" ae.sc AE.ss01
EndChar

StartChar: B
Encoding: 66 66 37
Width: 752
GlyphClass: 2
Flags: W
AnchorPoint: "Anchor-3" 378 700 basechar 0
AnchorPoint: "Anchor-0" 378 0 basechar 0
LayerCount: 2
Fore
SplineSet
122 0 m 1,0,-1
 122 700 l 1,1,-1
 414 700 l 2,2,3
 527 700 527 700 591 654 c 128,-1,4
 655 608 655 608 655 521 c 0,5,6
 655 464 655 464 628 425 c 128,-1,7
 601 386 601 386 553.5 366.5 c 128,-1,8
 506 347 506 347 447 347 c 1,9,-1
 465 367 l 1,10,11
 537 367 537 367 588 346 c 128,-1,12
 639 325 639 325 665.5 285 c 128,-1,13
 692 245 692 245 692 185 c 0,14,15
 692 97 692 97 628 48.5 c 128,-1,16
 564 0 564 0 434 0 c 2,17,-1
 122 0 l 1,0,-1
173 44 m 1,18,-1
 434 44 l 2,19,20
 535 44 535 44 588 78.5 c 128,-1,21
 641 113 641 113 641 189 c 0,22,23
 641 264 641 264 588 298.5 c 128,-1,24
 535 333 535 333 434 333 c 2,25,-1
 167 333 l 1,26,-1
 167 377 l 1,27,-1
 412 377 l 2,28,29
 503 377 503 377 553 412 c 128,-1,30
 603 447 603 447 603 517 c 0,31,32
 603 586 603 586 553 621 c 128,-1,33
 503 656 503 656 412 656 c 2,34,-1
 173 656 l 1,35,-1
 173 44 l 1,18,-1
EndSplineSet
Validated: 5
Substitution2: "'c2sc' Capitals to Small Capitals lookup 45 subtable" b.sc
Substitution2: "'aalt' Access All Alternates lookup 0 subtable" b.sc
EndChar

StartChar: uniA7B4
Encoding: 42932 42932 40
Width: 752
GlyphClass: 2
Flags: W
AnchorPoint: "Anchor-3" 378 700 basechar 0
AnchorPoint: "Anchor-0" 378 0 basechar 0
LayerCount: 2
Fore
SplineSet
122 -194 m 1,0,-1
 122 700 l 1,1,-1
 414 700 l 2,2,3
 527 700 527 700 591 654 c 128,-1,4
 655 608 655 608 655 521 c 0,5,6
 655 464 655 464 628 425 c 128,-1,7
 601 386 601 386 553.5 366.5 c 128,-1,8
 506 347 506 347 447 347 c 1,9,-1
 465 367 l 1,10,11
 537 367 537 367 588 346 c 128,-1,12
 639 325 639 325 665.5 285 c 128,-1,13
 692 245 692 245 692 185 c 0,14,15
 692 97 692 97 628 48.5 c 128,-1,16
 564 0 564 0 434 0 c 2,17,-1
 168 0 l 1,18,-1
 168 44 l 1,19,-1
 434 44 l 2,20,21
 535 44 535 44 588 78.5 c 128,-1,22
 641 113 641 113 641 189 c 0,23,24
 641 264 641 264 588 298.5 c 128,-1,25
 535 333 535 333 434 333 c 2,26,-1
 167 333 l 1,27,-1
 167 377 l 1,28,-1
 412 377 l 2,29,30
 503 377 503 377 553 412 c 128,-1,31
 603 447 603 447 603 517 c 0,32,33
 603 586 603 586 553 621 c 128,-1,34
 503 656 503 656 412 656 c 2,35,-1
 173 656 l 1,36,-1
 173 -194 l 1,37,-1
 122 -194 l 1,0,-1
EndSplineSet
Validated: 5
Substitution2: "'c2sc' Capitals to Small Capitals lookup 45 subtable" uniA7B5.sc
Substitution2: "'aalt' Access All Alternates lookup 0 subtable" uniA7B5.sc
EndChar

StartChar: uni0181
Encoding: 385 385 41
Width: 901
GlyphClass: 2
Flags: W
AnchorPoint: "Anchor-3" 527 700 basechar 0
AnchorPoint: "Anchor-0" 527 0 basechar 0
LayerCount: 2
Fore
SplineSet
91 420 m 1,0,1
 62 452 62 452 48 490 c 128,-1,2
 34 528 34 528 36.5 565 c 128,-1,3
 39 602 39 602 58 632.5 c 128,-1,4
 77 663 77 663 114.5 681.5 c 128,-1,5
 152 700 152 700 209 700 c 2,6,-1
 277 700 l 1,7,-1
 277 654 l 1,8,-1
 209 654 l 2,9,10
 160 654 160 654 131 635 c 128,-1,11
 102 616 102 616 92 585.5 c 128,-1,12
 82 555 82 555 91 519.5 c 128,-1,13
 100 484 100 484 126 449 c 1,14,-1
 91 420 l 1,0,1
271 0 m 1,15,-1
 271 700 l 1,16,-1
 563 700 l 2,17,18
 676 700 676 700 740 654 c 128,-1,19
 804 608 804 608 804 521 c 0,20,21
 804 464 804 464 777 425 c 128,-1,22
 750 386 750 386 702.5 366.5 c 128,-1,23
 655 347 655 347 596 347 c 1,24,-1
 614 367 l 1,25,26
 686 367 686 367 737 346 c 128,-1,27
 788 325 788 325 814.5 285 c 128,-1,28
 841 245 841 245 841 185 c 0,29,30
 841 97 841 97 777 48.5 c 128,-1,31
 713 0 713 0 583 0 c 2,32,-1
 271 0 l 1,15,-1
322 44 m 1,33,-1
 583 44 l 2,34,35
 684 44 684 44 737 78.5 c 128,-1,36
 790 113 790 113 790 189 c 0,37,38
 790 264 790 264 737 298.5 c 128,-1,39
 684 333 684 333 583 333 c 2,40,-1
 316 333 l 1,41,-1
 316 377 l 1,42,-1
 561 377 l 2,43,44
 652 377 652 377 702 412 c 128,-1,45
 752 447 752 447 752 517 c 0,46,47
 752 586 752 586 702 621 c 128,-1,48
 652 656 652 656 561 656 c 2,49,-1
 322 656 l 1,50,-1
 322 44 l 1,33,-1
EndSplineSet
Validated: 37
Substitution2: "'c2sc' Capitals to Small Capitals lookup 45 subtable" uni0253.sc
Substitution2: "'locl' Localized Forms in Latin lookup 19 subtable" uni0181.loclXPE
AlternateSubs2: "'aalt' Access All Alternates lookup 1 subtable" uni0181.loclXPE uni0253.sc
EndChar

StartChar: uni0243
Encoding: 579 579 43
Width: 758
GlyphClass: 2
Flags: W
AnchorPoint: "Anchor-3" 384 700 basechar 0
AnchorPoint: "Anchor-0" 384 0 basechar 0
LayerCount: 2
Fore
SplineSet
129 0 m 1,0,-1
 129 700 l 1,1,-1
 420 700 l 2,2,3
 533 700 533 700 597.5 654 c 128,-1,4
 662 608 662 608 662 521 c 0,5,6
 662 464 662 464 634.5 425.5 c 128,-1,7
 607 387 607 387 560 367.5 c 128,-1,8
 513 348 513 348 454 348 c 1,9,-1
 471 368 l 1,10,11
 544 368 544 368 594.5 347 c 128,-1,12
 645 326 645 326 672 286 c 128,-1,13
 699 246 699 246 699 186 c 0,14,15
 699 98 699 98 634.5 49 c 128,-1,16
 570 0 570 0 440 0 c 2,17,-1
 129 0 l 1,0,-1
15 170 m 1,18,-1
 15 212 l 1,19,-1
 143 212 l 1,20,-1
 161 212 l 1,21,-1
 343 212 l 1,22,-1
 343 170 l 1,23,-1
 161 170 l 1,24,-1
 143 170 l 1,25,-1
 15 170 l 1,18,-1
180 44 m 1,26,-1
 441 44 l 2,27,28
 542 44 542 44 594.5 78.5 c 128,-1,29
 647 113 647 113 647 189 c 0,30,31
 647 264 647 264 594.5 299 c 128,-1,32
 542 334 542 334 441 334 c 2,33,-1
 174 334 l 1,34,-1
 174 378 l 1,35,-1
 419 378 l 2,36,37
 510 378 510 378 560 412.5 c 128,-1,38
 610 447 610 447 610 517 c 0,39,40
 610 586 610 586 560 621 c 128,-1,41
 510 656 510 656 419 656 c 2,42,-1
 180 656 l 1,43,-1
 180 44 l 1,26,-1
EndSplineSet
Validated: 5
Substitution2: "'c2sc' Capitals to Small Capitals lookup 45 subtable" uni0180.sc
Substitution2: "'aalt' Access All Alternates lookup 0 subtable" uni0180.sc
EndChar

StartChar: uni0182
Encoding: 386 386 44
Width: 752
GlyphClass: 2
Flags: W
AnchorPoint: "Anchor-3" 378 700 basechar 0
AnchorPoint: "Anchor-0" 378 0 basechar 0
LayerCount: 2
Fore
SplineSet
122 0 m 1,0,-1
 122 700 l 1,1,-1
 635 700 l 1,2,-1
 635 656 l 1,3,-1
 173 656 l 1,4,-1
 173 44 l 1,5,-1
 434 44 l 2,6,7
 534 44 534 44 587.5 80 c 128,-1,8
 641 116 641 116 641 197 c 256,9,10
 641 278 641 278 588.5 313.5 c 128,-1,11
 536 349 536 349 434 349 c 2,12,-1
 167 349 l 1,13,-1
 167 393 l 1,14,-1
 444 393 l 2,15,16
 567 393 567 393 629.5 345 c 128,-1,17
 692 297 692 297 692 199 c 0,18,19
 692 99 692 99 627.5 49.5 c 128,-1,20
 563 0 563 0 434 0 c 2,21,-1
 122 0 l 1,0,-1
EndSplineSet
Validated: 5
Substitution2: "'c2sc' Capitals to Small Capitals lookup 45 subtable" uni0183.sc
Substitution2: "'aalt' Access All Alternates lookup 0 subtable" uni0183.sc
EndChar

StartChar: C
Encoding: 67 67 45
Width: 706
GlyphClass: 2
Flags: W
AnchorPoint: "Anchor-3" 413 700 basechar 0
AnchorPoint: "Anchor-1" 144 356 basechar 0
AnchorPoint: "Anchor-0" 413 0 basechar 0
LayerCount: 2
Fore
SplineSet
418 -5 m 0,0,1
 340 -5 340 -5 273.5 21.5 c 128,-1,2
 207 48 207 48 158 96 c 128,-1,3
 109 144 109 144 82 208.5 c 128,-1,4
 55 273 55 273 55 350 c 256,5,6
 55 427 55 427 82 491.5 c 128,-1,7
 109 556 109 556 158.5 604 c 128,-1,8
 208 652 208 652 274 678.5 c 128,-1,9
 340 705 340 705 418 705 c 0,10,11
 492 705 492 705 556.5 681 c 128,-1,12
 621 657 621 657 667 608 c 1,13,-1
 635 575 l 1,14,15
 590 619 590 619 535.5 638.5 c 128,-1,16
 481 658 481 658 420 658 c 0,17,18
 353 658 353 658 295.5 635 c 128,-1,19
 238 612 238 612 195.5 570 c 128,-1,20
 153 528 153 528 129.5 472 c 128,-1,21
 106 416 106 416 106 350 c 256,22,23
 106 284 106 284 129.5 228 c 128,-1,24
 153 172 153 172 195.5 130 c 128,-1,25
 238 88 238 88 295.5 65 c 128,-1,26
 353 42 353 42 420 42 c 0,27,28
 481 42 481 42 535.5 61.5 c 128,-1,29
 590 81 590 81 635 126 c 1,30,-1
 667 93 l 1,31,32
 621 44 621 44 556.5 19.5 c 128,-1,33
 492 -5 492 -5 418 -5 c 0,0,1
EndSplineSet
Validated: 1
Substitution2: "'c2sc' Capitals to Small Capitals lookup 45 subtable" c.sc
Substitution2: "'aalt' Access All Alternates lookup 0 subtable" c.sc
EndChar

StartChar: uniA792
Encoding: 42898 42898 47
Width: 778
GlyphClass: 2
Flags: W
AnchorPoint: "Anchor-3" 485 700 basechar 0
AnchorPoint: "Anchor-1" 217 356 basechar 0
AnchorPoint: "Anchor-0" 485 0 basechar 0
LayerCount: 2
Fore
SplineSet
491 -5 m 0,0,1
 413 -5 413 -5 346.5 21.5 c 128,-1,2
 280 48 280 48 231 96 c 128,-1,3
 182 144 182 144 154.5 208.5 c 128,-1,4
 127 273 127 273 127 350 c 256,5,6
 127 427 127 427 154.5 491.5 c 128,-1,7
 182 556 182 556 231 604 c 128,-1,8
 280 652 280 652 346.5 678.5 c 128,-1,9
 413 705 413 705 491 705 c 0,10,11
 565 705 565 705 629.5 681 c 128,-1,12
 694 657 694 657 740 608 c 1,13,-1
 707 575 l 1,14,15
 662 619 662 619 608 638.5 c 128,-1,16
 554 658 554 658 493 658 c 0,17,18
 426 658 426 658 368.5 635 c 128,-1,19
 311 612 311 612 268.5 570 c 128,-1,20
 226 528 226 528 202.5 472 c 128,-1,21
 179 416 179 416 179 350 c 256,22,23
 179 284 179 284 202.5 228 c 128,-1,24
 226 172 226 172 268.5 130 c 128,-1,25
 311 88 311 88 368.5 65 c 128,-1,26
 426 42 426 42 493 42 c 0,27,28
 554 42 554 42 608 61.5 c 128,-1,29
 662 81 662 81 707 126 c 1,30,-1
 740 93 l 1,31,32
 694 44 694 44 629.5 19.5 c 128,-1,33
 565 -5 565 -5 491 -5 c 0,0,1
14 335 m 1,34,-1
 14 377 l 1,35,-1
 362 377 l 1,36,-1
 362 335 l 1,37,-1
 14 335 l 1,34,-1
EndSplineSet
Validated: 5
Substitution2: "'c2sc' Capitals to Small Capitals lookup 45 subtable" uniA793.sc
Substitution2: "'aalt' Access All Alternates lookup 0 subtable" uniA793.sc
EndChar

StartChar: uniA7B3
Encoding: 42931 42931 53
Width: 562
GlyphClass: 1
Flags: W
LayerCount: 2
Fore
SplineSet
665 -143 m 1,0,1
 646 -168 646 -168 618.5 -183 c 128,-1,2
 591 -198 591 -198 560.5 -198.5 c 128,-1,3
 530 -199 530 -199 502 -181 c 128,-1,4
 474 -163 474 -163 453 -123 c 2,5,-1
 261 242 l 1,6,-1
 247 264 l 1,7,-1
 66 604 l 2,8,9
 45 643 45 643 20.5 654 c 128,-1,10
 -4 665 -4 665 -27.5 655 c 128,-1,11
 -51 645 -51 645 -71 621 c 1,12,-1
 -103 649 l 1,13,14
 -84 674 -84 674 -57 689 c 128,-1,15
 -30 704 -30 704 0.5 704 c 128,-1,16
 31 704 31 704 59 686.5 c 128,-1,17
 87 669 87 669 107 629 c 2,18,-1
 279 305 l 1,19,-1
 291 286 l 1,20,-1
 495 -98 l 2,21,22
 516 -137 516 -137 541 -148 c 128,-1,23
 566 -159 566 -159 590 -148.5 c 128,-1,24
 614 -138 614 -138 633 -115 c 1,25,-1
 665 -143 l 1,0,1
-33 -194 m 1,26,-1
 255 291 l 1,27,-1
 261 295 l 1,28,-1
 503 700 l 1,29,-1
 559 700 l 1,30,-1
 289 256 l 1,31,-1
 282 248 l 1,32,-1
 22 -194 l 1,33,-1
 -33 -194 l 1,26,-1
EndSplineSet
Validated: 37
Substitution2: "'c2sc' Capitals to Small Capitals lookup 45 subtable" uniAB53.sc
Substitution2: "'aalt' Access All Alternates lookup 0 subtable" uniAB53.sc
EndChar

StartChar: uni0187
Encoding: 391 391 54
Width: 737
GlyphClass: 2
Flags: W
AnchorPoint: "Anchor-3" 426 700 basechar 0
AnchorPoint: "Anchor-0" 426 0 basechar 0
LayerCount: 2
Fore
SplineSet
684 608 m 1,0,-1
 636 609 l 1,1,-1
 636 678 l 2,2,3
 636 724 636 724 653 755.5 c 128,-1,4
 670 787 670 787 697.5 804 c 128,-1,5
 725 821 725 821 759 822 c 128,-1,6
 793 823 793 823 828 808 c 1,7,-1
 813 767 l 1,8,9
 780 782 780 782 750.5 775 c 128,-1,10
 721 768 721 768 702.5 743.5 c 128,-1,11
 684 719 684 719 684 678 c 2,12,-1
 684 608 l 1,0,-1
435 -5 m 0,13,14
 357 -5 357 -5 290.5 21.5 c 128,-1,15
 224 48 224 48 175 96 c 128,-1,16
 126 144 126 144 98.5 208.5 c 128,-1,17
 71 273 71 273 71 350 c 256,18,19
 71 427 71 427 98.5 491.5 c 128,-1,20
 126 556 126 556 175 604 c 128,-1,21
 224 652 224 652 290.5 678.5 c 128,-1,22
 357 705 357 705 435 705 c 0,23,24
 509 705 509 705 573.5 681 c 128,-1,25
 638 657 638 657 684 608 c 1,26,-1
 651 575 l 1,27,28
 606 619 606 619 552 638.5 c 128,-1,29
 498 658 498 658 437 658 c 0,30,31
 370 658 370 658 312.5 635 c 128,-1,32
 255 612 255 612 212.5 570 c 128,-1,33
 170 528 170 528 146.5 472 c 128,-1,34
 123 416 123 416 123 350 c 256,35,36
 123 284 123 284 146.5 228 c 128,-1,37
 170 172 170 172 212.5 130 c 128,-1,38
 255 88 255 88 312.5 65 c 128,-1,39
 370 42 370 42 437 42 c 0,40,41
 498 42 498 42 552 61.5 c 128,-1,42
 606 81 606 81 651 126 c 1,43,-1
 684 93 l 1,44,45
 638 44 638 44 573.5 19.5 c 128,-1,46
 509 -5 509 -5 435 -5 c 0,13,14
EndSplineSet
Validated: 37
Substitution2: "'c2sc' Capitals to Small Capitals lookup 45 subtable" uni0188.sc
Substitution2: "'aalt' Access All Alternates lookup 0 subtable" uni0188.sc
EndChar

StartChar: uni023B
Encoding: 571 571 55
Width: 706
GlyphClass: 2
Flags: W
AnchorPoint: "Anchor-3" 413 700 basechar 0
AnchorPoint: "Anchor-0" 413 0 basechar 0
LayerCount: 2
Fore
SplineSet
176 -70 m 1,0,-1
 577 770 l 1,1,-1
 622 770 l 1,2,-1
 222 -70 l 1,3,-1
 176 -70 l 1,0,-1
418 -5 m 0,4,5
 340 -5 340 -5 273.5 21.5 c 128,-1,6
 207 48 207 48 158 96 c 128,-1,7
 109 144 109 144 82 208.5 c 128,-1,8
 55 273 55 273 55 350 c 256,9,10
 55 427 55 427 82 491.5 c 128,-1,11
 109 556 109 556 158.5 604 c 128,-1,12
 208 652 208 652 274 678.5 c 128,-1,13
 340 705 340 705 418 705 c 0,14,15
 492 705 492 705 556.5 681 c 128,-1,16
 621 657 621 657 667 608 c 1,17,-1
 635 575 l 1,18,19
 590 619 590 619 535.5 638.5 c 128,-1,20
 481 658 481 658 420 658 c 0,21,22
 353 658 353 658 295.5 635 c 128,-1,23
 238 612 238 612 195.5 570 c 128,-1,24
 153 528 153 528 129.5 472 c 128,-1,25
 106 416 106 416 106 350 c 256,26,27
 106 284 106 284 129.5 228 c 128,-1,28
 153 172 153 172 195.5 130 c 128,-1,29
 238 88 238 88 295.5 65 c 128,-1,30
 353 42 353 42 420 42 c 0,31,32
 481 42 481 42 535.5 61.5 c 128,-1,33
 590 81 590 81 635 126 c 1,34,-1
 667 93 l 1,35,36
 621 44 621 44 556.5 19.5 c 128,-1,37
 492 -5 492 -5 418 -5 c 0,4,5
EndSplineSet
Validated: 5
Substitution2: "'c2sc' Capitals to Small Capitals lookup 45 subtable" uni023C.sc
Substitution2: "'aalt' Access All Alternates lookup 0 subtable" uni023C.sc
EndChar

StartChar: D
Encoding: 68 68 56
Width: 826
GlyphClass: 2
Flags: W
AnchorPoint: "Anchor-3" 386 700 basechar 0
AnchorPoint: "Anchor-1" 201 357 basechar 0
AnchorPoint: "Anchor-0" 391 0 basechar 0
LayerCount: 2
Fore
SplineSet
122 0 m 1,0,-1
 122 700 l 1,1,-1
 399 700 l 2,2,3
 510 700 510 700 594 655 c 128,-1,4
 678 610 678 610 724.5 531 c 128,-1,5
 771 452 771 452 771 350 c 256,6,7
 771 248 771 248 724.5 169 c 128,-1,8
 678 90 678 90 594 45 c 128,-1,9
 510 0 510 0 399 0 c 2,10,-1
 122 0 l 1,0,-1
173 46 m 1,11,-1
 395 46 l 2,12,13
 494 46 494 46 567 85 c 128,-1,14
 640 124 640 124 680 192.5 c 128,-1,15
 720 261 720 261 720 350 c 256,16,17
 720 439 720 439 680 507.5 c 128,-1,18
 640 576 640 576 567 615 c 128,-1,19
 494 654 494 654 395 654 c 2,20,-1
 173 654 l 1,21,-1
 173 46 l 1,11,-1
EndSplineSet
Validated: 1
Substitution2: "'c2sc' Capitals to Small Capitals lookup 45 subtable" d.sc
Substitution2: "'aalt' Access All Alternates lookup 0 subtable" d.sc
EndChar

StartChar: uni018A
Encoding: 394 394 65
Width: 975
GlyphClass: 2
Flags: W
AnchorPoint: "Anchor-3" 535 700 basechar 0
AnchorPoint: "Anchor-1" 350 357 basechar 0
AnchorPoint: "Anchor-0" 540 0 basechar 0
LayerCount: 2
Fore
SplineSet
91 420 m 1,0,1
 62 452 62 452 48 490 c 128,-1,2
 34 528 34 528 36.5 565 c 128,-1,3
 39 602 39 602 58 632.5 c 128,-1,4
 77 663 77 663 114.5 681.5 c 128,-1,5
 152 700 152 700 209 700 c 2,6,-1
 277 700 l 1,7,-1
 277 654 l 1,8,-1
 209 654 l 2,9,10
 160 654 160 654 131 635 c 128,-1,11
 102 616 102 616 92 585.5 c 128,-1,12
 82 555 82 555 91 519.5 c 128,-1,13
 100 484 100 484 126 449 c 1,14,-1
 91 420 l 1,0,1
271 0 m 1,15,-1
 271 700 l 1,16,-1
 548 700 l 2,17,18
 659 700 659 700 743 655 c 128,-1,19
 827 610 827 610 873.5 531 c 128,-1,20
 920 452 920 452 920 350 c 256,21,22
 920 248 920 248 873.5 169 c 128,-1,23
 827 90 827 90 743 45 c 128,-1,24
 659 0 659 0 548 0 c 2,25,-1
 271 0 l 1,15,-1
322 46 m 1,26,-1
 544 46 l 2,27,28
 643 46 643 46 716 85 c 128,-1,29
 789 124 789 124 829 192.5 c 128,-1,30
 869 261 869 261 869 350 c 256,31,32
 869 439 869 439 829 507.5 c 128,-1,33
 789 576 789 576 716 615 c 128,-1,34
 643 654 643 654 544 654 c 2,35,-1
 322 654 l 1,36,-1
 322 46 l 1,26,-1
EndSplineSet
Validated: 37
Substitution2: "'c2sc' Capitals to Small Capitals lookup 45 subtable" uni0257.sc
Substitution2: "'aalt' Access All Alternates lookup 0 subtable" uni0257.sc
EndChar

StartChar: uni018B
Encoding: 395 395 68
Width: 737
GlyphClass: 1
Flags: W
LayerCount: 2
Fore
SplineSet
304 0 m 2,0,1
 177 0 177 0 111 54.5 c 128,-1,2
 45 109 45 109 45 203 c 0,3,4
 45 294 45 294 108 346 c 128,-1,5
 171 398 171 398 296 398 c 2,6,-1
 564 398 l 1,7,-1
 564 654 l 1,8,-1
 117 654 l 1,9,-1
 117 700 l 1,10,-1
 615 700 l 1,11,-1
 615 0 l 1,12,-1
 304 0 l 2,0,1
305 44 m 2,13,-1
 564 44 l 1,14,-1
 564 354 l 1,15,-1
 305 354 l 2,16,17
 199 354 199 354 148 313.5 c 128,-1,18
 97 273 97 273 97 202 c 0,19,20
 97 130 97 130 148.5 87 c 128,-1,21
 200 44 200 44 305 44 c 2,13,-1
EndSplineSet
Validated: 1
Substitution2: "'c2sc' Capitals to Small Capitals lookup 45 subtable" uni018C.sc
Substitution2: "'aalt' Access All Alternates lookup 0 subtable" uni018C.sc
EndChar

StartChar: E
Encoding: 69 69 72
Width: 669
GlyphClass: 2
Flags: W
AnchorPoint: "Anchor-3" 356 700 basechar 0
AnchorPoint: "Anchor-2" 605 0 basechar 0
AnchorPoint: "Anchor-0" 356 0 basechar 0
LayerCount: 2
Fore
SplineSet
122 0 m 1,0,-1
 122 700 l 1,1,-1
 590 700 l 1,2,-1
 590 654 l 1,3,-1
 173 654 l 1,4,-1
 173 46 l 1,5,-1
 605 46 l 1,6,-1
 605 0 l 1,7,-1
 122 0 l 1,0,-1
167 333 m 1,8,-1
 167 378 l 1,9,-1
 546 378 l 1,10,-1
 546 333 l 1,11,-1
 167 333 l 1,8,-1
EndSplineSet
Validated: 5
Substitution2: "'ss01' Style Set 1 lookup 50 subtable" E.ss01
Substitution2: "'c2sc' Capitals to Small Capitals lookup 45 subtable" e.sc
AlternateSubs2: "'aalt' Access All Alternates lookup 1 subtable" e.sc E.ss01
EndChar

StartChar: uni0190
Encoding: 400 400 96
Width: 612
GlyphClass: 2
Flags: W
AnchorPoint: "Anchor-3" 331 700 basechar 0
AnchorPoint: "Anchor-2" 391 0 basechar 0
AnchorPoint: "Anchor-0" 331 0 basechar 0
LayerCount: 2
Fore
SplineSet
336 -5 m 0,0,1
 245 -5 245 -5 184 20 c 128,-1,2
 123 45 123 45 91.5 89.5 c 128,-1,3
 60 134 60 134 60 192 c 0,4,5
 60 251 60 251 89.5 291 c 128,-1,6
 119 331 119 331 169 352 c 128,-1,7
 219 373 219 373 280 373 c 1,8,-1
 284 354 l 1,9,10
 224 354 224 354 180.5 375.5 c 128,-1,11
 137 397 137 397 113.5 434.5 c 128,-1,12
 90 472 90 472 90 521 c 0,13,14
 90 567 90 567 110 601.5 c 128,-1,15
 130 636 130 636 165 659 c 128,-1,16
 200 682 200 682 244.5 693 c 128,-1,17
 289 704 289 704 339 704 c 0,18,19
 399 704 399 704 460 687.5 c 128,-1,20
 521 671 521 671 571 639 c 1,21,-1
 554 597 l 1,22,23
 525 617 525 617 489 630.5 c 128,-1,24
 453 644 453 644 414.5 651 c 128,-1,25
 376 658 376 658 338 658 c 0,26,27
 287 658 287 658 242 643.5 c 128,-1,28
 197 629 197 629 169.5 597 c 128,-1,29
 142 565 142 565 142 516 c 0,30,31
 142 453 142 453 187.5 419.5 c 128,-1,32
 233 386 233 386 314 386 c 2,33,-1
 467 386 l 1,34,-1
 467 342 l 1,35,-1
 312 342 l 2,36,37
 254 342 254 342 208.5 326 c 128,-1,38
 163 310 163 310 137.5 277.5 c 128,-1,39
 112 245 112 245 112 195 c 0,40,41
 112 124 112 124 167 82 c 128,-1,42
 222 40 222 40 335 40 c 0,43,44
 415 40 415 40 479 62 c 128,-1,45
 543 84 543 84 583 123 c 1,46,-1
 605 85 l 1,47,48
 563 42 563 42 492.5 18.5 c 128,-1,49
 422 -5 422 -5 336 -5 c 0,0,1
EndSplineSet
Validated: 5
Substitution2: "'c2sc' Capitals to Small Capitals lookup 45 subtable" uni025B.sc
Substitution2: "'aalt' Access All Alternates lookup 0 subtable" uni025B.sc
EndChar

StartChar: uni018E
Encoding: 398 398 97
Width: 669
GlyphClass: 2
Flags: W
AnchorPoint: "Anchor-3" 312 700 basechar 0
AnchorPoint: "Anchor-0" 312 0 basechar 0
LayerCount: 2
Fore
SplineSet
547 0 m 1,0,-1
 64 0 l 1,1,-1
 64 46 l 1,2,-1
 495 46 l 1,3,-1
 495 654 l 1,4,-1
 79 654 l 1,5,-1
 79 700 l 1,6,-1
 547 700 l 1,7,-1
 547 0 l 1,0,-1
502 333 m 1,8,-1
 123 333 l 1,9,-1
 123 378 l 1,10,-1
 502 378 l 1,11,-1
 502 333 l 1,8,-1
EndSplineSet
Validated: 5
Substitution2: "'ss01' Style Set 1 lookup 50 subtable" uni018E.ss01
Substitution2: "'c2sc' Capitals to Small Capitals lookup 45 subtable" uni0258.sc
AlternateSubs2: "'aalt' Access All Alternates lookup 1 subtable" uni0258.sc uni018E.ss01
EndChar

StartChar: uniA7AB
Encoding: 42923 42923 98
Width: 612
GlyphClass: 2
Flags: W
AnchorPoint: "Anchor-3" 281 700 basechar 0
AnchorPoint: "Anchor-2" 221 0 basechar 0
AnchorPoint: "Anchor-0" 281 0 basechar 0
LayerCount: 2
Fore
SplineSet
276 -5 m 0,0,1
 189 -5 189 -5 119 18.5 c 128,-1,2
 49 42 49 42 6 85 c 1,3,-1
 29 123 l 1,4,5
 69 84 69 84 133 62 c 128,-1,6
 197 40 197 40 277 40 c 0,7,8
 390 40 390 40 445 82 c 128,-1,9
 500 124 500 124 500 195 c 0,10,11
 500 245 500 245 474.5 277.5 c 128,-1,12
 449 310 449 310 404 326 c 128,-1,13
 359 342 359 342 299 342 c 2,14,-1
 145 342 l 1,15,-1
 145 386 l 1,16,-1
 298 386 l 2,17,18
 378 386 378 386 424 419.5 c 128,-1,19
 470 453 470 453 470 516 c 0,20,21
 470 565 470 565 442.5 597 c 128,-1,22
 415 629 415 629 370.5 643.5 c 128,-1,23
 326 658 326 658 273 658 c 0,24,25
 236 658 236 658 197 651 c 128,-1,26
 158 644 158 644 123 630.5 c 128,-1,27
 88 617 88 617 58 597 c 1,28,-1
 40 639 l 1,29,30
 91 671 91 671 152 687.5 c 128,-1,31
 213 704 213 704 273 704 c 0,32,33
 322 704 322 704 367 693 c 128,-1,34
 412 682 412 682 446.5 659 c 128,-1,35
 481 636 481 636 501 601.5 c 128,-1,36
 521 567 521 567 521 521 c 0,37,38
 521 472 521 472 498 434.5 c 128,-1,39
 475 397 475 397 431.5 375.5 c 128,-1,40
 388 354 388 354 328 354 c 1,41,-1
 332 373 l 1,42,43
 393 373 393 373 443 352 c 128,-1,44
 493 331 493 331 522 291 c 128,-1,45
 551 251 551 251 551 192 c 0,46,47
 551 134 551 134 520 89.5 c 128,-1,48
 489 45 489 45 428 20 c 128,-1,49
 367 -5 367 -5 276 -5 c 0,0,1
EndSplineSet
Validated: 5
Substitution2: "'c2sc' Capitals to Small Capitals lookup 45 subtable" uni025C.sc
Substitution2: "'aalt' Access All Alternates lookup 0 subtable" uni025C.sc
EndChar

StartChar: uni01A9
Encoding: 425 425 99
Width: 451
GlyphClass: 1
Flags: W
LayerCount: 2
Fore
SplineSet
97 -5 m 0,0,1
 63 -5 63 -5 30.5 7 c 128,-1,2
 -2 19 -2 19 -26 43 c 1,3,-1
 -8 82 l 1,4,5
 13 62 13 62 38 51.5 c 128,-1,6
 63 41 63 41 92 41 c 0,7,8
 138 41 138 41 169.5 68.5 c 128,-1,9
 201 96 201 96 200 158 c 2,10,-1
 195 541 l 2,11,12
 195 598 195 598 215 634 c 128,-1,13
 235 670 235 670 270.5 687.5 c 128,-1,14
 306 705 306 705 351 705 c 0,15,16
 385 705 385 705 417 693 c 128,-1,17
 449 681 449 681 473 657 c 1,18,-1
 455 618 l 1,19,20
 433 639 433 639 407.5 649 c 128,-1,21
 382 659 382 659 356 659 c 0,22,23
 327 659 327 659 302 647.5 c 128,-1,24
 277 636 277 636 262 610.5 c 128,-1,25
 247 585 247 585 247 542 c 2,26,-1
 252 159 l 2,27,28
 252 113 252 113 239 81.5 c 128,-1,29
 226 50 226 50 203.5 30.5 c 128,-1,30
 181 11 181 11 153 3 c 128,-1,31
 125 -5 125 -5 97 -5 c 0,0,1
EndSplineSet
Validated: 33
Substitution2: "'c2sc' Capitals to Small Capitals lookup 45 subtable" uni0283.sc
Substitution2: "'aalt' Access All Alternates lookup 0 subtable" uni0283.sc
EndChar

StartChar: uni0246
Encoding: 582 582 100
Width: 669
GlyphClass: 2
Flags: W
AnchorPoint: "Anchor-3" 356 700 basechar 0
AnchorPoint: "Anchor-2" 605 0 basechar 0
AnchorPoint: "Anchor-0" 356 0 basechar 0
LayerCount: 2
Fore
SplineSet
146 -70 m 1,0,-1
 532 770 l 1,1,-1
 576 770 l 1,2,-1
 191 -70 l 1,3,-1
 146 -70 l 1,0,-1
123 0 m 1,4,-1
 122 700 l 1,5,-1
 590 700 l 1,6,-1
 591 654 l 1,7,-1
 174 654 l 1,8,-1
 174 46 l 1,9,-1
 605 46 l 1,10,-1
 605 0 l 1,11,-1
 123 0 l 1,4,-1
168 333 m 1,12,-1
 168 378 l 1,13,-1
 546 378 l 1,14,-1
 546 333 l 1,15,-1
 168 333 l 1,12,-1
EndSplineSet
Validated: 5
Substitution2: "'ss01' Style Set 1 lookup 50 subtable" uni0246.ss01
Substitution2: "'c2sc' Capitals to Small Capitals lookup 45 subtable" uni0247.sc
AlternateSubs2: "'aalt' Access All Alternates lookup 1 subtable" uni0247.sc uni0246.ss01
EndChar

StartChar: uni018F
Encoding: 399 399 103
Width: 816
GlyphClass: 2
Flags: W
AnchorPoint: "Anchor-3" 409 700 basechar 0
AnchorPoint: "Anchor-2" 443 0 basechar 0
AnchorPoint: "Anchor-0" 409 0 basechar 0
LayerCount: 2
Fore
SplineSet
408 -5 m 0,0,1
 332 -5 332 -5 267.5 21.5 c 128,-1,2
 203 48 203 48 155 96.5 c 128,-1,3
 107 145 107 145 81 210 c 128,-1,4
 55 275 55 275 55 352 c 2,5,-1
 55 369 l 1,6,-1
 718 369 l 1,7,-1
 718 324 l 1,8,-1
 88 324 l 1,9,-1
 106 350 l 1,10,11
 106 283 106 283 128.5 226.5 c 128,-1,12
 151 170 151 170 191.5 128.5 c 128,-1,13
 232 87 232 87 287 64 c 128,-1,14
 342 41 342 41 408 41 c 0,15,16
 472 41 472 41 526.5 64 c 128,-1,17
 581 87 581 87 622.5 128.5 c 128,-1,18
 664 170 664 170 687 226 c 128,-1,19
 710 282 710 282 710 347 c 2,20,-1
 710 352 l 2,21,22
 710 418 710 418 686.5 473.5 c 128,-1,23
 663 529 663 529 620.5 570.5 c 128,-1,24
 578 612 578 612 521.5 635 c 128,-1,25
 465 658 465 658 400 658 c 0,26,27
 357 658 357 658 317 650 c 128,-1,28
 277 642 277 642 241 624 c 128,-1,29
 205 606 205 606 173 577 c 1,30,-1
 143 613 l 1,31,32
 175 644 175 644 215 664 c 128,-1,33
 255 684 255 684 302 694.5 c 128,-1,34
 349 705 349 705 400 705 c 0,35,36
 478 705 478 705 544 678.5 c 128,-1,37
 610 652 610 652 659 604 c 128,-1,38
 708 556 708 556 735 491.5 c 128,-1,39
 762 427 762 427 762 351 c 0,40,41
 762 276 762 276 735 211.5 c 128,-1,42
 708 147 708 147 659.5 98.5 c 128,-1,43
 611 50 611 50 547 22.5 c 128,-1,44
 483 -5 483 -5 408 -5 c 0,0,1
EndSplineSet
Validated: 5
Substitution2: "'ss01' Style Set 1 lookup 50 subtable" uni018F.ss01
Substitution2: "'c2sc' Capitals to Small Capitals lookup 45 subtable" uni0259.sc
AlternateSubs2: "'aalt' Access All Alternates lookup 1 subtable" uni0259.sc uni018F.ss01
EndChar

StartChar: uni01B8
Encoding: 440 440 106
Width: 613
GlyphClass: 2
Flags: W
AnchorPoint: "Anchor-3" 309 700 basechar 0
AnchorPoint: "Anchor-0" 309 0 basechar 0
LayerCount: 2
Fore
SplineSet
321 -5 m 0,0,1
 236 -5 236 -5 179 21 c 128,-1,2
 122 47 122 47 93 93 c 128,-1,3
 64 139 64 139 64 197 c 0,4,5
 64 256 64 256 93 300.5 c 128,-1,6
 122 345 122 345 180.5 370 c 128,-1,7
 239 395 239 395 327 395 c 2,8,-1
 350 395 l 1,9,-1
 335 379 l 1,10,-1
 94 664 l 1,11,-1
 94 700 l 1,12,-1
 556 700 l 1,13,-1
 556 655 l 1,14,-1
 136 655 l 1,15,-1
 141 677 l 1,16,-1
 382 392 l 1,17,-1
 382 352 l 1,18,-1
 333 352 l 2,19,20
 222 352 222 352 168.5 310 c 128,-1,21
 115 268 115 268 115 197 c 256,22,23
 115 126 115 126 168 83.5 c 128,-1,24
 221 41 221 41 321 41 c 0,25,26
 400 41 400 41 462 65.5 c 128,-1,27
 524 90 524 90 558 127 c 1,28,-1
 580 88 l 1,29,30
 544 47 544 47 474 21 c 128,-1,31
 404 -5 404 -5 321 -5 c 0,0,1
EndSplineSet
Validated: 5
Substitution2: "'c2sc' Capitals to Small Capitals lookup 45 subtable" uni01B9.sc
Substitution2: "'aalt' Access All Alternates lookup 0 subtable" uni01B9.sc
EndChar

StartChar: F
Encoding: 70 70 107
Width: 631
GlyphClass: 2
Flags: W
AnchorPoint: "Anchor-3" 355 700 basechar 0
AnchorPoint: "Anchor-0" 355 0 basechar 0
LayerCount: 2
Fore
SplineSet
122 0 m 1,0,-1
 122 700 l 1,1,-1
 590 700 l 1,2,-1
 590 654 l 1,3,-1
 173 654 l 1,4,-1
 173 0 l 1,5,-1
 122 0 l 1,0,-1
167 309 m 1,6,-1
 167 355 l 1,7,-1
 546 355 l 1,8,-1
 546 309 l 1,9,-1
 167 309 l 1,6,-1
EndSplineSet
Validated: 5
Substitution2: "'ss01' Style Set 1 lookup 50 subtable" F.ss01
Substitution2: "'c2sc' Capitals to Small Capitals lookup 45 subtable" f.sc
AlternateSubs2: "'aalt' Access All Alternates lookup 1 subtable" f.sc F.ss01
EndChar

StartChar: uni0191
Encoding: 401 401 109
Width: 641
GlyphClass: 1
Flags: W
LayerCount: 2
Fore
SplineSet
-28 -181 m 1,0,-1
 -12 -139 l 1,1,2
 22 -155 22 -155 56 -151.5 c 128,-1,3
 90 -148 90 -148 113 -122.5 c 128,-1,4
 136 -97 136 -97 136 -48 c 2,5,-1
 136 700 l 1,6,-1
 604 700 l 1,7,-1
 604 654 l 1,8,-1
 187 654 l 1,9,-1
 187 -48 l 2,10,11
 187 -100 187 -100 166.5 -133.5 c 128,-1,12
 146 -167 146 -167 114 -183 c 128,-1,13
 82 -199 82 -199 44.5 -198 c 128,-1,14
 7 -197 7 -197 -28 -181 c 1,0,-1
180 309 m 1,15,-1
 180 355 l 1,16,-1
 559 355 l 1,17,-1
 559 309 l 1,18,-1
 180 309 l 1,15,-1
EndSplineSet
Validated: 37
Substitution2: "'ss01' Style Set 1 lookup 50 subtable" uni0191.ss01
Substitution2: "'c2sc' Capitals to Small Capitals lookup 45 subtable" florin.sc
AlternateSubs2: "'aalt' Access All Alternates lookup 1 subtable" florin.sc uni0191.ss01
EndChar

StartChar: G
Encoding: 71 71 110
Width: 773
GlyphClass: 2
Flags: W
AnchorPoint: "Anchor-3" 405 700 basechar 0
AnchorPoint: "Anchor-0" 403 0 basechar 0
LayerCount: 2
Fore
SplineSet
421 -5 m 0,0,1
 342 -5 342 -5 275 21.5 c 128,-1,2
 208 48 208 48 158.5 96 c 128,-1,3
 109 144 109 144 82 208.5 c 128,-1,4
 55 273 55 273 55 350 c 256,5,6
 55 427 55 427 82 491.5 c 128,-1,7
 109 556 109 556 159 604 c 128,-1,8
 209 652 209 652 275.5 678.5 c 128,-1,9
 342 705 342 705 422 705 c 0,10,11
 498 705 498 705 563 681 c 128,-1,12
 628 657 628 657 674 609 c 1,13,-1
 642 575 l 1,14,15
 596 620 596 620 541.5 639 c 128,-1,16
 487 658 487 658 423 658 c 0,17,18
 355 658 355 658 297 635 c 128,-1,19
 239 612 239 612 196 570 c 128,-1,20
 153 528 153 528 129.5 472 c 128,-1,21
 106 416 106 416 106 350 c 256,22,23
 106 284 106 284 129.5 228 c 128,-1,24
 153 172 153 172 196 130 c 128,-1,25
 239 88 239 88 297 65 c 128,-1,26
 355 42 355 42 423 42 c 0,27,28
 485 42 485 42 540.5 61 c 128,-1,29
 596 80 596 80 642 124 c 1,30,-1
 671 85 l 1,31,32
 624 40 624 40 558.5 17.5 c 128,-1,33
 493 -5 493 -5 421 -5 c 0,0,1
671 85 m 1,34,-1
 622 91 l 1,35,-1
 622 347 l 1,36,-1
 671 347 l 1,37,-1
 671 85 l 1,34,-1
EndSplineSet
Validated: 5
Substitution2: "'ss01' Style Set 1 lookup 50 subtable" G.ss01
Substitution2: "'c2sc' Capitals to Small Capitals lookup 45 subtable" g.sc
AlternateSubs2: "'aalt' Access All Alternates lookup 1 subtable" g.sc G.ss01
EndChar

StartChar: uni0193
Encoding: 403 403 117
Width: 779
GlyphClass: 2
Flags: W
AnchorPoint: "Anchor-3" 404 700 basechar 0
AnchorPoint: "Anchor-0" 404 0 basechar 0
LayerCount: 2
Fore
SplineSet
421 -5 m 0,0,1
 342 -5 342 -5 275 21.5 c 128,-1,2
 208 48 208 48 158.5 96 c 128,-1,3
 109 144 109 144 82 208.5 c 128,-1,4
 55 273 55 273 55 350 c 256,5,6
 55 427 55 427 82 491.5 c 128,-1,7
 109 556 109 556 159 604 c 128,-1,8
 209 652 209 652 275.5 678.5 c 128,-1,9
 342 705 342 705 422 705 c 0,10,11
 498 705 498 705 563 681 c 128,-1,12
 628 657 628 657 674 609 c 1,13,-1
 642 575 l 1,14,15
 596 620 596 620 541.5 639 c 128,-1,16
 487 658 487 658 423 658 c 0,17,18
 355 658 355 658 297 635 c 128,-1,19
 239 612 239 612 196 570 c 128,-1,20
 153 528 153 528 129.5 472 c 128,-1,21
 106 416 106 416 106 350 c 256,22,23
 106 284 106 284 129.5 228 c 128,-1,24
 153 172 153 172 196 130 c 128,-1,25
 239 88 239 88 297 65 c 128,-1,26
 355 42 355 42 423 42 c 0,27,28
 485 42 485 42 540.5 61 c 128,-1,29
 596 80 596 80 642 124 c 1,30,-1
 671 85 l 1,31,32
 624 40 624 40 558.5 17.5 c 128,-1,33
 493 -5 493 -5 421 -5 c 0,0,1
671 85 m 1,34,-1
 622 91 l 1,35,-1
 622 347 l 1,36,-1
 671 347 l 1,37,-1
 671 85 l 1,34,-1
626 609 m 1,38,-1
 626 678 l 2,39,40
 626 724 626 724 643 755.5 c 128,-1,41
 660 787 660 787 687.5 804 c 128,-1,42
 715 821 715 821 749 822 c 128,-1,43
 783 823 783 823 818 808 c 1,44,-1
 803 767 l 1,45,46
 770 782 770 782 740.5 775 c 128,-1,47
 711 768 711 768 692.5 743.5 c 128,-1,48
 674 719 674 719 674 678 c 2,49,-1
 674 609 l 1,50,-1
 626 609 l 1,38,-1
EndSplineSet
Validated: 37
Substitution2: "'ss01' Style Set 1 lookup 50 subtable" uni0193.ss01
Substitution2: "'c2sc' Capitals to Small Capitals lookup 45 subtable" uni0260.sc
AlternateSubs2: "'aalt' Access All Alternates lookup 1 subtable" uni0260.sc uni0193.ss01
EndChar

StartChar: uni0241
Encoding: 577 577 118
Width: 590
GlyphClass: 2
Flags: W
AnchorPoint: "Anchor-3" 276 700 basechar 0
AnchorPoint: "Anchor-0" 276 0 basechar 0
LayerCount: 2
Fore
SplineSet
250 0 m 1,0,-1
 250 149 l 2,1,2
 250 201 250 201 268.5 236 c 128,-1,3
 287 271 287 271 315 295.5 c 128,-1,4
 343 320 343 320 375 340 c 128,-1,5
 407 360 407 360 435 381 c 128,-1,6
 463 402 463 402 481 431.5 c 128,-1,7
 499 461 499 461 499 503 c 0,8,9
 499 560 499 560 468.5 594 c 128,-1,10
 438 628 438 628 389.5 643.5 c 128,-1,11
 341 659 341 659 287 659 c 0,12,13
 240 659 240 659 194 647.5 c 128,-1,14
 148 636 148 636 109 611.5 c 128,-1,15
 70 587 70 587 45 549 c 1,16,-1
 5 579 l 1,17,18
 35 622 35 622 79.5 649.5 c 128,-1,19
 124 677 124 677 177.5 691 c 128,-1,20
 231 705 231 705 287 705 c 0,21,22
 338 705 338 705 385 693.5 c 128,-1,23
 432 682 432 682 469.5 657.5 c 128,-1,24
 507 633 507 633 529 594.5 c 128,-1,25
 551 556 551 556 551 504 c 0,26,27
 551 455 551 455 533 421.5 c 128,-1,28
 515 388 515 388 486.5 363.5 c 128,-1,29
 458 339 458 339 426.5 318.5 c 128,-1,30
 395 298 395 298 366.5 275 c 128,-1,31
 338 252 338 252 320 221.5 c 128,-1,32
 302 191 302 191 302 147 c 2,33,-1
 302 0 l 1,34,-1
 250 0 l 1,0,-1
EndSplineSet
Validated: 1
Substitution2: "'c2sc' Capitals to Small Capitals lookup 45 subtable" uni0294.sc
Substitution2: "'aalt' Access All Alternates lookup 0 subtable" uni0294.sc
EndChar

StartChar: uni01E4
Encoding: 484 484 120
Width: 793
GlyphClass: 2
Flags: W
AnchorPoint: "Anchor-3" 405 700 basechar 0
AnchorPoint: "Anchor-0" 403 0 basechar 0
LayerCount: 2
Fore
SplineSet
421 -5 m 0,0,1
 342 -5 342 -5 275 21.5 c 128,-1,2
 208 48 208 48 158.5 96 c 128,-1,3
 109 144 109 144 82 208.5 c 128,-1,4
 55 273 55 273 55 350 c 256,5,6
 55 427 55 427 82 491.5 c 128,-1,7
 109 556 109 556 159 604 c 128,-1,8
 209 652 209 652 275.5 678.5 c 128,-1,9
 342 705 342 705 422 705 c 0,10,11
 498 705 498 705 563 681 c 128,-1,12
 628 657 628 657 674 609 c 1,13,-1
 642 575 l 1,14,15
 596 620 596 620 541.5 639 c 128,-1,16
 487 658 487 658 423 658 c 0,17,18
 355 658 355 658 297 635 c 128,-1,19
 239 612 239 612 196 570 c 128,-1,20
 153 528 153 528 129.5 472 c 128,-1,21
 106 416 106 416 106 350 c 256,22,23
 106 284 106 284 129.5 228 c 128,-1,24
 153 172 153 172 196 130 c 128,-1,25
 239 88 239 88 297 65 c 128,-1,26
 355 42 355 42 423 42 c 0,27,28
 485 42 485 42 540.5 61 c 128,-1,29
 596 80 596 80 642 124 c 1,30,-1
 671 85 l 1,31,32
 624 40 624 40 558.5 17.5 c 128,-1,33
 493 -5 493 -5 421 -5 c 0,0,1
459 218 m 1,34,-1
 459 261 l 1,35,-1
 785 261 l 1,36,-1
 785 218 l 1,37,-1
 459 218 l 1,34,-1
671 85 m 1,38,-1
 622 90 l 1,39,-1
 622 347 l 1,40,-1
 671 347 l 1,41,-1
 671 85 l 1,38,-1
EndSplineSet
Validated: 5
Substitution2: "'ss01' Style Set 1 lookup 50 subtable" uni01E4.ss01
Substitution2: "'c2sc' Capitals to Small Capitals lookup 45 subtable" uni01E5.sc
AlternateSubs2: "'aalt' Access All Alternates lookup 1 subtable" uni01E5.sc uni01E4.ss01
EndChar

StartChar: uni021C
Encoding: 540 540 121
Width: 581
GlyphClass: 1
Flags: W
LayerCount: 2
Fore
SplineSet
-18 -86 m 1,0,-1
 -22 -41 l 1,1,2
 88 -32 88 -32 178.5 -12.5 c 128,-1,3
 269 7 269 7 334.5 36.5 c 128,-1,4
 400 66 400 66 435.5 106.5 c 128,-1,5
 471 147 471 147 471 198 c 0,6,7
 471 247 471 247 440 277 c 128,-1,8
 409 307 409 307 355.5 318 c 128,-1,9
 302 329 302 329 232 319 c 2,10,-1
 123 301 l 1,11,-1
 120 345 l 1,12,-1
 216 362 l 2,13,14
 277 372 277 372 327 391 c 128,-1,15
 377 410 377 410 407 442 c 128,-1,16
 437 474 437 474 437 520 c 0,17,18
 437 553 437 553 421 582.5 c 128,-1,19
 405 612 405 612 370 633 c 128,-1,20
 335 654 335 654 278 659 c 0,21,22
 242 661 242 661 198.5 655 c 128,-1,23
 155 649 155 649 107 633 c 128,-1,24
 59 617 59 617 8 590 c 1,25,-1
 -12 629 l 1,26,27
 39 659 39 659 90.5 676 c 128,-1,28
 142 693 142 693 191 699.5 c 128,-1,29
 240 706 240 706 282 704 c 0,30,31
 357 699 357 699 402.5 672.5 c 128,-1,32
 448 646 448 646 468.5 607.5 c 128,-1,33
 489 569 489 569 489 527 c 0,34,35
 489 472 489 472 458 434 c 128,-1,36
 427 396 427 396 373.5 373.5 c 128,-1,37
 320 351 320 351 253 339 c 1,38,-1
 252 353 l 1,39,40
 329 365 329 365 390.5 349 c 128,-1,41
 452 333 452 333 487.5 293.5 c 128,-1,42
 523 254 523 254 523 194 c 256,43,44
 523 134 523 134 483 85.5 c 128,-1,45
 443 37 443 37 370.5 1.5 c 128,-1,46
 298 -34 298 -34 199 -56 c 128,-1,47
 100 -78 100 -78 -18 -86 c 1,0,-1
EndSplineSet
Validated: 37
Substitution2: "'c2sc' Capitals to Small Capitals lookup 45 subtable" uni021D.sc
Substitution2: "'aalt' Access All Alternates lookup 0 subtable" uni021D.sc
EndChar

StartChar: H
Encoding: 72 72 122
Width: 814
GlyphClass: 2
Flags: W
AnchorPoint: "Anchor-3" 407 700 basechar 0
AnchorPoint: "Anchor-1" 407 541 basechar 0
AnchorPoint: "Anchor-0" 407 0 basechar 0
LayerCount: 2
Fore
SplineSet
641 0 m 1,0,-1
 641 700 l 1,1,-1
 692 700 l 1,2,-1
 692 0 l 1,3,-1
 641 0 l 1,0,-1
122 0 m 1,4,-1
 122 700 l 1,5,-1
 173 700 l 1,6,-1
 173 0 l 1,7,-1
 122 0 l 1,4,-1
167 333 m 1,8,-1
 167 378 l 1,9,-1
 647 378 l 1,10,-1
 647 333 l 1,11,-1
 167 333 l 1,8,-1
EndSplineSet
Validated: 5
Substitution2: "'c2sc' Capitals to Small Capitals lookup 45 subtable" h.sc
Substitution2: "'aalt' Access All Alternates lookup 0 subtable" h.sc
EndChar

StartChar: Hbar
Encoding: 294 294 123
Width: 820
GlyphClass: 2
Flags: W
AnchorPoint: "Anchor-3" 410 700 basechar 0
AnchorPoint: "Anchor-1" 410 541 basechar 0
AnchorPoint: "Anchor-0" 410 0 basechar 0
LayerCount: 2
Fore
SplineSet
644 0 m 1,0,-1
 644 700 l 1,1,-1
 695 700 l 1,2,-1
 695 0 l 1,3,-1
 644 0 l 1,0,-1
125 0 m 1,4,-1
 125 700 l 1,5,-1
 176 700 l 1,6,-1
 176 0 l 1,7,-1
 125 0 l 1,4,-1
170 333 m 1,8,-1
 170 378 l 1,9,-1
 650 378 l 1,10,-1
 650 333 l 1,11,-1
 170 333 l 1,8,-1
12 520 m 1,12,-1
 12 562 l 1,13,-1
 809 562 l 1,14,-1
 809 520 l 1,15,-1
 12 520 l 1,12,-1
EndSplineSet
Validated: 5
Substitution2: "'c2sc' Capitals to Small Capitals lookup 45 subtable" hbar.sc
Substitution2: "'aalt' Access All Alternates lookup 0 subtable" hbar.sc
EndChar

StartChar: uni1E28
Encoding: 7720 7720 126
Width: 814
GlyphClass: 2
Flags: W
AnchorPoint: "Anchor-3" 407 700 basechar 0
AnchorPoint: "Anchor-1" 407 544 basechar 0
AnchorPoint: "Anchor-0" 407 0 basechar 0
LayerCount: 2
Fore
SplineSet
641 0 m 1,0,-1
 641 700 l 1,1,-1
 692 700 l 1,2,-1
 692 0 l 1,3,-1
 641 0 l 1,0,-1
140 -217 m 0,4,5
 117 -217 117 -217 97.5 -211 c 128,-1,6
 78 -205 78 -205 61 -192 c 1,7,-1
 75 -164 l 1,8,9
 89 -174 89 -174 105.5 -179.5 c 128,-1,10
 122 -185 122 -185 140 -185 c 0,11,12
 170 -185 170 -185 188 -171 c 128,-1,13
 206 -157 206 -157 206 -132 c 0,14,15
 206 -110 206 -110 189 -95.5 c 128,-1,16
 172 -81 172 -81 140 -81 c 2,17,-1
 115 -81 l 1,18,-1
 134 2 l 1,19,-1
 167 2 l 1,20,-1
 155 -54 l 1,21,22
 198 -56 198 -56 221.5 -78 c 128,-1,23
 245 -100 245 -100 245 -134 c 0,24,25
 245 -172 245 -172 215.5 -194.5 c 128,-1,26
 186 -217 186 -217 140 -217 c 0,4,5
122 0 m 1,27,-1
 122 700 l 1,28,-1
 173 700 l 1,29,-1
 173 0 l 1,30,-1
 122 0 l 1,27,-1
167 333 m 1,31,-1
 167 378 l 1,32,-1
 647 378 l 1,33,-1
 647 333 l 1,34,-1
 167 333 l 1,31,-1
EndSplineSet
Validated: 5
Substitution2: "'c2sc' Capitals to Small Capitals lookup 45 subtable" uni1E29.sc
Substitution2: "'aalt' Access All Alternates lookup 0 subtable" uni1E29.sc
EndChar

StartChar: uniA7AA
Encoding: 42922 42922 132
Width: 963
GlyphClass: 2
Flags: W
AnchorPoint: "Anchor-3" 556 700 basechar 0
AnchorPoint: "Anchor-1" 556 541 basechar 0
AnchorPoint: "Anchor-0" 556 0 basechar 0
LayerCount: 2
Fore
SplineSet
91 420 m 1,0,1
 62 452 62 452 48 490 c 128,-1,2
 34 528 34 528 36.5 565 c 128,-1,3
 39 602 39 602 58 632.5 c 128,-1,4
 77 663 77 663 114.5 681.5 c 128,-1,5
 152 700 152 700 209 700 c 2,6,-1
 277 700 l 1,7,-1
 277 654 l 1,8,-1
 209 654 l 2,9,10
 160 654 160 654 131 635 c 128,-1,11
 102 616 102 616 92 585.5 c 128,-1,12
 82 555 82 555 91 519.5 c 128,-1,13
 100 484 100 484 126 449 c 1,14,-1
 91 420 l 1,0,1
790 0 m 1,15,-1
 790 700 l 1,16,-1
 841 700 l 1,17,-1
 841 0 l 1,18,-1
 790 0 l 1,15,-1
271 0 m 1,19,-1
 271 700 l 1,20,-1
 322 700 l 1,21,-1
 322 0 l 1,22,-1
 271 0 l 1,19,-1
316 333 m 1,23,-1
 316 378 l 1,24,-1
 796 378 l 1,25,-1
 796 333 l 1,26,-1
 316 333 l 1,23,-1
EndSplineSet
Validated: 37
Substitution2: "'c2sc' Capitals to Small Capitals lookup 45 subtable" uni0266.sc
Substitution2: "'aalt' Access All Alternates lookup 0 subtable" uni0266.sc
EndChar

StartChar: uniA78D
Encoding: 42893 42893 133
Width: 742
GlyphClass: 2
Flags: W
AnchorPoint: "Anchor-3" 341 700 basechar 0
AnchorPoint: "Anchor-0" 339 0 basechar 0
LayerCount: 2
Fore
SplineSet
620 700 m 1,0,-1
 620 0 l 1,1,-1
 570 0 l 1,2,-1
 570 411 l 1,3,-1
 582 403 l 1,4,5
 554 316 554 316 487.5 274 c 128,-1,6
 421 232 421 232 327 232 c 0,7,8
 203 232 203 232 131 305 c 128,-1,9
 59 378 59 378 59 517 c 2,10,-1
 59 700 l 1,11,-1
 110 700 l 1,12,-1
 110 519 l 2,13,14
 110 400 110 400 170 339 c 128,-1,15
 230 278 230 278 336 278 c 0,16,17
 445 278 445 278 507 341.5 c 128,-1,18
 569 405 569 405 569 537 c 2,19,-1
 569 700 l 1,20,-1
 620 700 l 1,0,-1
EndSplineSet
Validated: 5
Substitution2: "'c2sc' Capitals to Small Capitals lookup 45 subtable" uni0265.sc
Substitution2: "'aalt' Access All Alternates lookup 0 subtable" uni0265.sc
EndChar

StartChar: I
Encoding: 73 73 134
Width: 295
GlyphClass: 2
Flags: W
AnchorPoint: "Anchor-3" 148 700 basechar 0
AnchorPoint: "Anchor-2" 173 0 basechar 0
AnchorPoint: "Anchor-1" 148 350 basechar 0
AnchorPoint: "Anchor-0" 148 0 basechar 0
LayerCount: 2
Fore
SplineSet
122 0 m 1,0,-1
 122 700 l 1,1,-1
 173 700 l 1,2,-1
 173 0 l 1,3,-1
 122 0 l 1,0,-1
EndSplineSet
Validated: 1
Substitution2: "'ss01' Style Set 1 lookup 50 subtable" I.ss01
Substitution2: "'c2sc' Capitals to Small Capitals lookup 45 subtable" i.sc
AlternateSubs2: "'aalt' Access All Alternates lookup 1 subtable" i.sc I.ss01
EndChar

StartChar: IJ
Encoding: 306 306 135
Width: 716
GlyphClass: 2
Flags: W
AnchorPoint: "Anchor-3" 162 700 basechar 0
LayerCount: 2
Fore
SplineSet
327 -5 m 0,0,1
 263 -5 263 -5 206.5 14 c 128,-1,2
 150 33 150 33 107 62 c 1,3,-1
 130 104 l 1,4,5
 171 74 171 74 222 58 c 128,-1,6
 273 42 273 42 328 42 c 0,7,8
 432 42 432 42 490.5 105 c 128,-1,9
 549 168 549 168 549 297 c 2,10,-1
 549 700 l 1,11,-1
 600 700 l 1,12,-1
 600 298 l 2,13,14
 600 198 600 198 566 130.5 c 128,-1,15
 532 63 532 63 471 29 c 128,-1,16
 410 -5 410 -5 327 -5 c 0,0,1
116 297 m 1,17,-1
 116 700 l 1,18,-1
 167 700 l 1,19,-1
 167 297 l 1,20,-1
 116 297 l 1,17,-1
EndSplineSet
Validated: 1
Substitution2: "'ss01' Style Set 1 lookup 50 subtable" IJ.ss01
Substitution2: "'c2sc' Capitals to Small Capitals lookup 45 subtable" ij.sc
AlternateSubs2: "'aalt' Access All Alternates lookup 1 subtable" ij.sc IJ.ss01
EndChar

StartChar: Iacute_J.loclNLD
Encoding: 65537 -1 136
Width: 716
GlyphClass: 1
Flags: W
LayerCount: 2
Fore
SplineSet
327 -4 m 0,0,1
 263 -4 263 -4 206.5 15 c 128,-1,2
 150 34 150 34 107 64 c 1,3,-1
 130 105 l 1,4,5
 171 75 171 75 221.5 58.5 c 128,-1,6
 272 42 272 42 326 42 c 0,7,8
 431 42 431 42 490 105.5 c 128,-1,9
 549 169 549 169 549 298 c 2,10,-1
 549 700 l 1,11,-1
 600 700 l 1,12,-1
 600 299 l 2,13,14
 600 198 600 198 566 131 c 128,-1,15
 532 64 532 64 471 30 c 128,-1,16
 410 -4 410 -4 327 -4 c 0,0,1
116 297 m 1,17,-1
 116 700 l 1,18,-1
 167 700 l 1,19,-1
 167 297 l 1,20,-1
 116 297 l 1,17,-1
114 757 m 1,21,-1
 252 875 l 1,22,-1
 318 875 l 1,23,-1
 161 757 l 1,24,-1
 114 757 l 1,21,-1
548 757 m 1,25,-1
 687 875 l 1,26,-1
 752 875 l 1,27,-1
 595 757 l 1,28,-1
 548 757 l 1,25,-1
EndSplineSet
Validated: 1
Substitution2: "'ss01' Style Set 1 lookup 50 subtable" Iacute_J.loclNLD.ss01
Substitution2: "'c2sc' Capitals to Small Capitals lookup 45 subtable" iacute_j.loclNLD.sc
Ligature2: "'locl' Localized Forms in Latin lookup 16 subtable" Iacute J
AlternateSubs2: "'aalt' Access All Alternates lookup 1 subtable" iacute_j.loclNLD.sc Iacute_J.loclNLD.ss01
EndChar

StartChar: uni0196
Encoding: 406 406 151
Width: 360
GlyphClass: 2
Flags: W
AnchorPoint: "Anchor-3" 140 700 basechar 0
AnchorPoint: "Anchor-2" 292 0 basechar 0
AnchorPoint: "Anchor-0" 229 0 basechar 0
LayerCount: 2
Fore
SplineSet
258 -5 m 1,0,-1
 258 -5 l 1,1,2
 221 -5 221 -5 188 10.5 c 128,-1,3
 155 26 155 26 135 58 c 128,-1,4
 115 90 115 90 115 139 c 2,5,-1
 115 700 l 1,6,-1
 166 700 l 1,7,-1
 166 141 l 2,8,9
 166 90 166 90 195 65.5 c 128,-1,10
 224 41 224 41 262 41 c 0,11,12
 284 41 284 41 306.5 48 c 128,-1,13
 329 55 329 55 348 69 c 1,14,-1
 368 31 l 1,15,16
 344 13 344 13 315.5 4 c 128,-1,17
 287 -5 287 -5 258 -5 c 1,0,-1
EndSplineSet
Validated: 1
Substitution2: "'c2sc' Capitals to Small Capitals lookup 45 subtable" uni0269.sc
Substitution2: "'aalt' Access All Alternates lookup 0 subtable" uni0269.sc
EndChar

StartChar: uni0197
Encoding: 407 407 152
Width: 331
GlyphClass: 2
Flags: W
AnchorPoint: "Anchor-3" 165 700 basechar 0
AnchorPoint: "Anchor-2" 191 0 basechar 0
AnchorPoint: "Anchor-0" 165 0 basechar 0
LayerCount: 2
Fore
SplineSet
140 0 m 1,0,-1
 140 700 l 1,1,-1
 191 700 l 1,2,-1
 191 0 l 1,3,-1
 140 0 l 1,0,-1
26 335 m 1,4,-1
 26 377 l 1,5,-1
 304 377 l 1,6,-1
 304 335 l 1,7,-1
 26 335 l 1,4,-1
EndSplineSet
Validated: 5
Substitution2: "'ss01' Style Set 1 lookup 50 subtable" uni0197.ss01
Substitution2: "'c2sc' Capitals to Small Capitals lookup 45 subtable" uni0268.sc
AlternateSubs2: "'aalt' Access All Alternates lookup 1 subtable" uni0268.sc uni0197.ss01
EndChar

StartChar: J
Encoding: 74 74 155
Width: 491
GlyphClass: 2
Flags: W
AnchorPoint: "Anchor-3" 221 700 basechar 0
LayerCount: 2
Fore
SplineSet
185 -5 m 0,0,1
 128 -5 128 -5 78.5 21.5 c 128,-1,2
 29 48 29 48 -1 95 c 1,3,-1
 30 129 l 1,4,5
 59 86 59 86 98.5 63.5 c 128,-1,6
 138 41 138 41 185 41 c 0,7,8
 324 41 324 41 324 206 c 2,9,-1
 324 654 l 1,10,-1
 66 654 l 1,11,-1
 66 700 l 1,12,-1
 375 700 l 1,13,-1
 375 206 l 2,14,15
 375 101 375 101 327 48 c 128,-1,16
 279 -5 279 -5 185 -5 c 0,0,1
EndSplineSet
Validated: 1
Substitution2: "'ss01' Style Set 1 lookup 50 subtable" J.ss01
Substitution2: "'c2sc' Capitals to Small Capitals lookup 45 subtable" j.sc
AlternateSubs2: "'aalt' Access All Alternates lookup 1 subtable" j.sc J.ss01
EndChar

StartChar: uniA7B2
Encoding: 42930 42930 157
Width: 490
GlyphClass: 2
Flags: W
AnchorPoint: "Anchor-3" 220 700 basechar 0
LayerCount: 2
Fore
SplineSet
174 -5 m 0,0,1
 131 -5 131 -5 94.5 9.5 c 128,-1,2
 58 24 58 24 36 53.5 c 128,-1,3
 14 83 14 83 14 124 c 0,4,5
 14 157 14 157 31.5 187.5 c 128,-1,6
 49 218 49 218 91 237.5 c 128,-1,7
 133 257 133 257 202 257 c 2,8,-1
 457 257 l 1,9,-1
 457 214 l 1,10,-1
 202 214 l 2,11,12
 148 214 148 214 117.5 200 c 128,-1,13
 87 186 87 186 75 165 c 128,-1,14
 63 144 63 144 63 123 c 0,15,16
 63 96 63 96 78 77 c 128,-1,17
 93 58 93 58 118.5 48 c 128,-1,18
 144 38 144 38 174 38 c 0,19,20
 209 38 209 38 243 53.5 c 128,-1,21
 277 69 277 69 299.5 103.5 c 128,-1,22
 322 138 322 138 322 194 c 2,23,-1
 323 654 l 1,24,-1
 65 654 l 1,25,-1
 65 700 l 1,26,-1
 374 700 l 1,27,-1
 373 194 l 2,28,29
 373 124 373 124 343 80 c 128,-1,30
 313 36 313 36 267.5 15.5 c 128,-1,31
 222 -5 222 -5 174 -5 c 0,0,1
EndSplineSet
Validated: 5
Substitution2: "'ss01' Style Set 1 lookup 50 subtable" uniA7B2.ss01
Substitution2: "'c2sc' Capitals to Small Capitals lookup 45 subtable" uni029D.sc
AlternateSubs2: "'aalt' Access All Alternates lookup 1 subtable" uni029D.sc uniA7B2.ss01
EndChar

StartChar: uni0248
Encoding: 584 584 158
Width: 493
GlyphClass: 2
Flags: W
AnchorPoint: "Anchor-3" 221 700 basechar 0
LayerCount: 2
Fore
SplineSet
185 -5 m 0,0,1
 128 -5 128 -5 78.5 21.5 c 128,-1,2
 29 48 29 48 -1 95 c 1,3,-1
 30 129 l 1,4,5
 59 86 59 86 98.5 63.5 c 128,-1,6
 138 41 138 41 185 41 c 0,7,8
 324 41 324 41 324 206 c 2,9,-1
 324 654 l 1,10,-1
 66 654 l 1,11,-1
 66 700 l 1,12,-1
 375 700 l 1,13,-1
 375 206 l 2,14,15
 375 101 375 101 327 48 c 128,-1,16
 279 -5 279 -5 185 -5 c 0,0,1
161 335 m 1,17,-1
 161 377 l 1,18,-1
 489 377 l 1,19,-1
 489 335 l 1,20,-1
 161 335 l 1,17,-1
EndSplineSet
Validated: 5
Substitution2: "'ss01' Style Set 1 lookup 50 subtable" uni0248.ss01
Substitution2: "'c2sc' Capitals to Small Capitals lookup 45 subtable" uni0249.sc
AlternateSubs2: "'aalt' Access All Alternates lookup 1 subtable" uni0249.sc uni0248.ss01
EndChar

StartChar: K
Encoding: 75 75 159
Width: 703
GlyphClass: 2
Flags: W
AnchorPoint: "Anchor-3" 372 700 basechar 0
AnchorPoint: "Anchor-0" 372 0 basechar 0
LayerCount: 2
Fore
SplineSet
166 177 m 1,0,-1
 164 241 l 1,1,-1
 610 700 l 1,2,-1
 672 700 l 1,3,-1
 360 377 l 1,4,-1
 331 346 l 1,5,-1
 166 177 l 1,0,-1
122 0 m 1,6,-1
 122 700 l 1,7,-1
 173 700 l 1,8,-1
 173 0 l 1,9,-1
 122 0 l 1,6,-1
631 0 m 1,10,-1
 316 360 l 1,11,-1
 351 397 l 1,12,-1
 693 0 l 1,13,-1
 631 0 l 1,10,-1
EndSplineSet
Validated: 5
Substitution2: "'c2sc' Capitals to Small Capitals lookup 45 subtable" k.sc
Substitution2: "'aalt' Access All Alternates lookup 0 subtable" k.sc
EndChar

StartChar: uni0198
Encoding: 408 408 164
Width: 697
GlyphClass: 2
Flags: W
AnchorPoint: "Anchor-3" 372 700 basechar 0
AnchorPoint: "Anchor-0" 372 0 basechar 0
LayerCount: 2
Fore
SplineSet
166 195 m 1,0,-1
 164 261 l 1,1,-1
 522 684 l 2,2,3
 555 723 555 723 590 736.5 c 128,-1,4
 625 750 625 750 658 742.5 c 128,-1,5
 691 735 691 735 718 713 c 1,6,-1
 691 678 l 1,7,8
 664 703 664 703 627 700 c 128,-1,9
 590 697 590 697 553 654 c 2,10,-1
 166 195 l 1,0,-1
122 0 m 1,11,-1
 122 700 l 1,12,-1
 173 700 l 1,13,-1
 173 0 l 1,14,-1
 122 0 l 1,11,-1
631 0 m 1,15,-1
 305 372 l 1,16,-1
 341 409 l 1,17,-1
 693 0 l 1,18,-1
 631 0 l 1,15,-1
EndSplineSet
Validated: 37
Substitution2: "'c2sc' Capitals to Small Capitals lookup 45 subtable" uni0199.sc
Substitution2: "'aalt' Access All Alternates lookup 0 subtable" uni0199.sc
EndChar

StartChar: uniA740
Encoding: 42816 42816 166
Width: 703
GlyphClass: 2
Flags: W
AnchorPoint: "Anchor-3" 355 700 basechar 0
AnchorPoint: "Anchor-0" 355 0 basechar 0
LayerCount: 2
Fore
SplineSet
166 177 m 1,0,-1
 164 241 l 1,1,-1
 610 700 l 1,2,-1
 672 700 l 1,3,-1
 166 177 l 1,0,-1
122 0 m 1,4,-1
 122 700 l 1,5,-1
 173 700 l 1,6,-1
 173 0 l 1,7,-1
 122 0 l 1,4,-1
631 0 m 1,8,-1
 316 360 l 1,9,-1
 351 397 l 1,10,-1
 693 0 l 1,11,-1
 631 0 l 1,8,-1
9 556 m 1,12,-1
 9 598 l 1,13,-1
 337 598 l 1,14,-1
 337 556 l 1,15,-1
 9 556 l 1,12,-1
EndSplineSet
Validated: 5
Substitution2: "'c2sc' Capitals to Small Capitals lookup 45 subtable" uniA741.sc
Substitution2: "'aalt' Access All Alternates lookup 0 subtable" uniA741.sc
EndChar

StartChar: L
Encoding: 76 76 167
Width: 585
GlyphClass: 2
Flags: W
AnchorPoint: "Anchor-4" 443 700 basechar 0
AnchorPoint: "Anchor-3" 148 700 basechar 0
AnchorPoint: "Anchor-1" 148 356 basechar 0
AnchorPoint: "Anchor-0" 349 0 basechar 0
LayerCount: 2
Fore
SplineSet
122 0 m 1,0,-1
 122 700 l 1,1,-1
 173 700 l 1,2,-1
 173 46 l 1,3,-1
 576 46 l 1,4,-1
 576 0 l 1,5,-1
 122 0 l 1,0,-1
EndSplineSet
Validated: 1
Substitution2: "'c2sc' Capitals to Small Capitals lookup 45 subtable" l.sc
Substitution2: "'aalt' Access All Alternates lookup 0 subtable" l.sc
EndChar

StartChar: uni023D
Encoding: 573 573 170
Width: 593
GlyphClass: 2
Flags: W
AnchorPoint: "Anchor-4" 451 700 basechar 0
AnchorPoint: "Anchor-3" 156 700 basechar 0
AnchorPoint: "Anchor-1" 156 356 basechar 0
AnchorPoint: "Anchor-0" 357 0 basechar 0
LayerCount: 2
Fore
SplineSet
130 0 m 1,0,-1
 130 700 l 1,1,-1
 181 700 l 1,2,-1
 181 46 l 1,3,-1
 584 46 l 1,4,-1
 584 0 l 1,5,-1
 130 0 l 1,0,-1
17 335 m 1,6,-1
 17 377 l 1,7,-1
 345 377 l 1,8,-1
 345 335 l 1,9,-1
 17 335 l 1,6,-1
EndSplineSet
Validated: 5
Substitution2: "'c2sc' Capitals to Small Capitals lookup 45 subtable" uni019A.sc
Substitution2: "'aalt' Access All Alternates lookup 0 subtable" uni019A.sc
EndChar

StartChar: uniA7AD
Encoding: 42925 42925 171
Width: 621
GlyphClass: 2
Flags: W
AnchorPoint: "Anchor-4" 478 700 basechar 0
AnchorPoint: "Anchor-3" 183 700 basechar 0
AnchorPoint: "Anchor-1" 183 366 basechar 0
AnchorPoint: "Anchor-0" 395 0 basechar 0
LayerCount: 2
Fore
SplineSet
157 0 m 1,0,-1
 157 700 l 1,1,-1
 209 700 l 1,2,-1
 209 46 l 1,3,-1
 611 46 l 1,4,-1
 611 0 l 1,5,-1
 157 0 l 1,0,-1
122 335 m 2,6,7
 75 335 75 335 46 350 c 128,-1,8
 17 365 17 365 3.5 388 c 128,-1,9
 -10 411 -10 411 -10 436 c 256,10,11
 -10 461 -10 461 1.5 481 c 128,-1,12
 13 501 13 501 34 512.5 c 128,-1,13
 55 524 55 524 81 524 c 256,14,15
 107 524 107 524 132 509.5 c 128,-1,16
 157 495 157 495 173 462.5 c 128,-1,17
 189 430 189 430 189 378 c 1,18,-1
 157 378 l 1,19,20
 157 435 157 435 132.5 460 c 128,-1,21
 108 485 108 485 81 485 c 0,22,23
 59 485 59 485 46.5 471 c 128,-1,24
 34 457 34 457 34 438 c 0,25,26
 34 417 34 417 53.5 397.5 c 128,-1,27
 73 378 73 378 122 378 c 2,28,-1
 440 378 l 1,29,-1
 441 335 l 1,30,-1
 122 335 l 2,6,7
EndSplineSet
Validated: 5
Substitution2: "'c2sc' Capitals to Small Capitals lookup 45 subtable" uni026C.sc
Substitution2: "'aalt' Access All Alternates lookup 0 subtable" uni026C.sc
EndChar

StartChar: uni2C60
Encoding: 11360 11360 178
Width: 612
GlyphClass: 1
Flags: W
LayerCount: 2
Fore
SplineSet
148 0 m 1,0,-1
 148 700 l 1,1,-1
 200 700 l 1,2,-1
 200 46 l 1,3,-1
 602 46 l 1,4,-1
 602 0 l 1,5,-1
 148 0 l 1,0,-1
35 291 m 1,6,-1
 35 333 l 1,7,-1
 363 333 l 1,8,-1
 363 291 l 1,9,-1
 35 291 l 1,6,-1
35 438 m 1,10,-1
 35 480 l 1,11,-1
 363 480 l 1,12,-1
 363 438 l 1,13,-1
 35 438 l 1,10,-1
EndSplineSet
Validated: 5
Substitution2: "'c2sc' Capitals to Small Capitals lookup 45 subtable" uni2C61.sc
Substitution2: "'aalt' Access All Alternates lookup 0 subtable" uni2C61.sc
EndChar

StartChar: uni2C62
Encoding: 11362 11362 181
Width: 589
GlyphClass: 2
Flags: W
AnchorPoint: "Anchor-4" 447 700 basechar 0
AnchorPoint: "Anchor-3" 152 700 basechar 0
AnchorPoint: "Anchor-0" 353 0 basechar 0
LayerCount: 2
Fore
SplineSet
126 0 m 1,0,-1
 126 700 l 1,1,-1
 177 700 l 1,2,-1
 177 46 l 1,3,-1
 580 46 l 1,4,-1
 580 0 l 1,5,-1
 126 0 l 1,0,-1
238 332 m 0,6,7
 216 332 216 332 196 342.5 c 128,-1,8
 176 353 176 353 158.5 366.5 c 128,-1,9
 141 380 141 380 124 390.5 c 128,-1,10
 107 401 107 401 90 401 c 0,11,12
 68 401 68 401 54 383 c 128,-1,13
 40 365 40 365 39 336 c 1,14,-1
 6 336 l 1,15,16
 8 381 8 381 30 408.5 c 128,-1,17
 52 436 52 436 88 436 c 0,18,19
 111 436 111 436 131 425.5 c 128,-1,20
 151 415 151 415 168.5 401.5 c 128,-1,21
 186 388 186 388 203 377.5 c 128,-1,22
 220 367 220 367 236 367 c 0,23,24
 259 367 259 367 273 385 c 128,-1,25
 287 403 287 403 288 430 c 1,26,-1
 321 430 l 1,27,28
 320 387 320 387 297.5 359.5 c 128,-1,29
 275 332 275 332 238 332 c 0,6,7
EndSplineSet
Validated: 5
Substitution2: "'c2sc' Capitals to Small Capitals lookup 45 subtable" uni026B.sc
Substitution2: "'aalt' Access All Alternates lookup 0 subtable" uni026B.sc
EndChar

StartChar: M
Encoding: 77 77 183
Width: 956
GlyphClass: 2
Flags: W
AnchorPoint: "Anchor-3" 478 700 basechar 0
AnchorPoint: "Anchor-0" 478 0 basechar 0
LayerCount: 2
Fore
SplineSet
122 0 m 1,0,-1
 122 700 l 1,1,-1
 165 700 l 1,2,-1
 490 139 l 1,3,-1
 467 139 l 1,4,-1
 791 700 l 1,5,-1
 833 700 l 1,6,-1
 834 0 l 1,7,-1
 784 0 l 1,8,-1
 783 623 l 1,9,-1
 797 623 l 1,10,-1
 490 93 l 1,11,-1
 465 93 l 1,12,-1
 157 623 l 1,13,-1
 172 623 l 1,14,-1
 172 0 l 1,15,-1
 122 0 l 1,0,-1
EndSplineSet
Validated: 5
Substitution2: "'ss01' Style Set 1 lookup 50 subtable" M.ss01
Substitution2: "'c2sc' Capitals to Small Capitals lookup 45 subtable" m.sc
AlternateSubs2: "'aalt' Access All Alternates lookup 1 subtable" m.sc M.ss01
EndChar

StartChar: uni2C6E
Encoding: 11374 11374 187
Width: 969
GlyphClass: 2
Flags: W
AnchorPoint: "Anchor-3" 491 700 basechar 0
AnchorPoint: "Anchor-0" 491 0 basechar 0
LayerCount: 2
Fore
SplineSet
601 -162 m 1,0,-1
 622 -124 l 1,1,2
 649 -143 649 -143 679.5 -149.5 c 128,-1,3
 710 -156 710 -156 736.5 -147.5 c 128,-1,4
 763 -139 763 -139 780 -114.5 c 128,-1,5
 797 -90 797 -90 797 -48 c 2,6,-1
 796 623 l 1,7,-1
 810 623 l 1,8,-1
 503 93 l 1,9,-1
 478 93 l 1,10,-1
 170 623 l 1,11,-1
 185 623 l 1,12,-1
 185 0 l 1,13,-1
 135 0 l 1,14,-1
 135 700 l 1,15,-1
 178 700 l 1,16,-1
 503 139 l 1,17,-1
 480 139 l 1,18,-1
 804 700 l 1,19,-1
 846 700 l 1,20,-1
 847 -49 l 2,21,22
 847 -96 847 -96 830.5 -127.5 c 128,-1,23
 814 -159 814 -159 787 -176.5 c 128,-1,24
 760 -194 760 -194 727.5 -197.5 c 128,-1,25
 695 -201 695 -201 662 -192 c 128,-1,26
 629 -183 629 -183 601 -162 c 1,0,-1
EndSplineSet
Validated: 37
Substitution2: "'c2sc' Capitals to Small Capitals lookup 45 subtable" uni0271.sc
Substitution2: "'aalt' Access All Alternates lookup 0 subtable" uni0271.sc
EndChar

StartChar: uni019C
Encoding: 412 412 188
Width: 1225
GlyphClass: 2
Flags: W
AnchorPoint: "Anchor-3" 610 700 basechar 0
AnchorPoint: "Anchor-0" 610 0 basechar 0
LayerCount: 2
Fore
SplineSet
1103 700 m 1,0,-1
 1103 0 l 1,1,-1
 1053 0 l 1,2,-1
 1053 150 l 1,3,-1
 1059 144 l 1,4,5
 1033 69 1033 69 973.5 32 c 128,-1,6
 914 -5 914 -5 830 -5 c 0,7,8
 738 -5 738 -5 676 38.5 c 128,-1,9
 614 82 614 82 594 164 c 1,10,-1
 607 164 l 1,11,12
 582 78 582 78 518.5 36.5 c 128,-1,13
 455 -5 455 -5 367 -5 c 0,14,15
 251 -5 251 -5 183.5 62 c 128,-1,16
 116 129 116 129 116 261 c 2,17,-1
 116 700 l 1,18,-1
 167 700 l 1,19,-1
 167 263 l 2,20,21
 167 151 167 151 222.5 96.5 c 128,-1,22
 278 42 278 42 374 42 c 0,23,24
 471 42 471 42 528 99 c 128,-1,25
 585 156 585 156 585 280 c 2,26,-1
 585 700 l 1,27,-1
 636 700 l 1,28,-1
 636 263 l 2,29,30
 636 151 636 151 690.5 96.5 c 128,-1,31
 745 42 745 42 840 42 c 0,32,33
 905 42 905 42 952.5 67 c 128,-1,34
 1000 92 1000 92 1026 144.5 c 128,-1,35
 1052 197 1052 197 1052 280 c 2,36,-1
 1052 700 l 1,37,-1
 1103 700 l 1,0,-1
EndSplineSet
Validated: 5
Substitution2: "'c2sc' Capitals to Small Capitals lookup 45 subtable" uni026F.sc
Substitution2: "'aalt' Access All Alternates lookup 0 subtable" uni026F.sc
EndChar

StartChar: N
Encoding: 78 78 189
Width: 814
GlyphClass: 2
Flags: W
AnchorPoint: "Anchor-3" 407 700 basechar 0
AnchorPoint: "Anchor-0" 407 0 basechar 0
LayerCount: 2
Fore
SplineSet
122 0 m 1,0,-1
 122 700 l 1,1,-1
 165 700 l 1,2,-1
 664 63 l 1,3,-1
 641 63 l 1,4,-1
 641 700 l 1,5,-1
 692 700 l 1,6,-1
 692 0 l 1,7,-1
 650 0 l 1,8,-1
 150 637 l 1,9,-1
 173 637 l 1,10,-1
 173 0 l 1,11,-1
 122 0 l 1,0,-1
EndSplineSet
Validated: 5
Substitution2: "'ss01' Style Set 1 lookup 50 subtable" N.ss01
Substitution2: "'c2sc' Capitals to Small Capitals lookup 45 subtable" n.sc
AlternateSubs2: "'aalt' Access All Alternates lookup 1 subtable" n.sc N.ss01
EndChar

StartChar: uni019D
Encoding: 413 413 198
Width: 813
GlyphClass: 2
Flags: W
AnchorPoint: "Anchor-3" 416 700 basechar 0
AnchorPoint: "Anchor-0" 415 0 basechar 0
LayerCount: 2
Fore
SplineSet
-28 -181 m 1,0,-1
 -12 -139 l 1,1,2
 22 -155 22 -155 56 -151.5 c 128,-1,3
 90 -148 90 -148 113 -122.5 c 128,-1,4
 136 -97 136 -97 136 -48 c 2,5,-1
 136 700 l 1,6,-1
 186 700 l 1,7,-1
 186 526 l 1,8,-1
 173 534 l 1,9,10
 202 622 202 622 268 663.5 c 128,-1,11
 334 705 334 705 428 705 c 0,12,13
 553 705 553 705 625 631.5 c 128,-1,14
 697 558 697 558 697 419 c 2,15,-1
 697 0 l 1,16,-1
 646 0 l 1,17,-1
 646 417 l 2,18,19
 646 537 646 537 586 597.5 c 128,-1,20
 526 658 526 658 420 658 c 0,21,22
 311 658 311 658 249 594.5 c 128,-1,23
 187 531 187 531 187 399 c 2,24,-1
 187 -48 l 2,25,26
 187 -100 187 -100 166.5 -133.5 c 128,-1,27
 146 -167 146 -167 114 -183 c 128,-1,28
 82 -199 82 -199 44.5 -198 c 128,-1,29
 7 -197 7 -197 -28 -181 c 1,0,-1
EndSplineSet
Validated: 37
Substitution2: "'c2sc' Capitals to Small Capitals lookup 45 subtable" uni0272.sc
Substitution2: "'aalt' Access All Alternates lookup 0 subtable" uni0272.sc
EndChar

StartChar: uni0220
Encoding: 544 544 201
Width: 812
GlyphClass: 2
Flags: W
AnchorPoint: "Anchor-3" 416 700 basechar 0
AnchorPoint: "Anchor-0" 414 0 basechar 0
LayerCount: 2
Fore
SplineSet
645 -194 m 1,0,-1
 645 417 l 2,1,2
 645 537 645 537 585 597.5 c 128,-1,3
 525 658 525 658 419 658 c 0,4,5
 310 658 310 658 248 594.5 c 128,-1,6
 186 531 186 531 186 399 c 2,7,-1
 186 0 l 1,8,-1
 135 0 l 1,9,-1
 135 700 l 1,10,-1
 185 700 l 1,11,-1
 185 526 l 1,12,-1
 173 534 l 1,13,14
 201 622 201 622 267.5 663.5 c 128,-1,15
 334 705 334 705 428 705 c 0,16,17
 553 705 553 705 624.5 631.5 c 128,-1,18
 696 558 696 558 696 419 c 2,19,-1
 696 -194 l 1,20,-1
 645 -194 l 1,0,-1
EndSplineSet
Validated: 5
EndChar

StartChar: Eng
Encoding: 330 330 203
Width: 814
GlyphClass: 2
Flags: W
AnchorPoint: "Anchor-3" 407 700 basechar 0
AnchorPoint: "Anchor-0" 407 -195 basechar 0
LayerCount: 2
Fore
SplineSet
122 0 m 1,0,-1
 122 700 l 1,1,-1
 165 700 l 1,2,-1
 664 63 l 1,3,-1
 650 0 l 1,4,-1
 150 637 l 1,5,-1
 173 637 l 1,6,-1
 173 0 l 1,7,-1
 122 0 l 1,0,-1
503 -198 m 0,8,9
 450 -198 450 -198 403 -174 c 128,-1,10
 356 -150 356 -150 326 -107 c 1,11,-1
 354 -71 l 1,12,13
 381 -110 381 -110 419.5 -131.5 c 128,-1,14
 458 -153 458 -153 503 -153 c 0,15,16
 573 -153 573 -153 607 -112 c 128,-1,17
 641 -71 641 -71 641 13 c 2,18,-1
 641 700 l 1,19,-1
 692 700 l 1,20,-1
 692 17 l 2,21,22
 692 -37 692 -37 680 -77.5 c 128,-1,23
 668 -118 668 -118 644.5 -144.5 c 128,-1,24
 621 -171 621 -171 585.5 -184.5 c 128,-1,25
 550 -198 550 -198 503 -198 c 0,8,9
EndSplineSet
Validated: 5
Substitution2: "'ss01' Style Set 1 lookup 50 subtable" Eng.ss01
Substitution2: "'c2sc' Capitals to Small Capitals lookup 45 subtable" eng.sc
Substitution2: "'locl' Localized Forms in Latin lookup 17 subtable" Eng.loclNSM
AlternateSubs2: "'aalt' Access All Alternates lookup 1 subtable" Eng.loclNSM eng.sc Eng.ss01
EndChar

StartChar: O
Encoding: 79 79 204
Width: 838
GlyphClass: 2
Flags: W
AnchorPoint: "Anchor-4" 656 700 basechar 0
AnchorPoint: "Anchor-3" 419 700 basechar 0
AnchorPoint: "Anchor-2" 480 0 basechar 0
AnchorPoint: "Anchor-1" 419 350 basechar 0
AnchorPoint: "Anchor-0" 419 0 basechar 0
LayerCount: 2
Fore
SplineSet
419 -5 m 256,0,1
 341 -5 341 -5 274.5 21.5 c 128,-1,2
 208 48 208 48 158.5 96.5 c 128,-1,3
 109 145 109 145 82 209.5 c 128,-1,4
 55 274 55 274 55 350 c 256,5,6
 55 426 55 426 82 490.5 c 128,-1,7
 109 555 109 555 158.5 603.5 c 128,-1,8
 208 652 208 652 274.5 678.5 c 128,-1,9
 341 705 341 705 419 705 c 256,10,11
 497 705 497 705 563.5 678.5 c 128,-1,12
 630 652 630 652 679 604 c 128,-1,13
 728 556 728 556 755.5 491.5 c 128,-1,14
 783 427 783 427 783 350 c 256,15,16
 783 273 783 273 755.5 208.5 c 128,-1,17
 728 144 728 144 679 96 c 128,-1,18
 630 48 630 48 563.5 21.5 c 128,-1,19
 497 -5 497 -5 419 -5 c 256,0,1
419 42 m 256,20,21
 486 42 486 42 543 65 c 128,-1,22
 600 88 600 88 642 130 c 128,-1,23
 684 172 684 172 707.5 228 c 128,-1,24
 731 284 731 284 731 350 c 0,25,26
 731 417 731 417 707.5 472.5 c 128,-1,27
 684 528 684 528 642 570 c 128,-1,28
 600 612 600 612 543 635 c 128,-1,29
 486 658 486 658 419 658 c 256,30,31
 352 658 352 658 295 635 c 128,-1,32
 238 612 238 612 195.5 570 c 128,-1,33
 153 528 153 528 129.5 472.5 c 128,-1,34
 106 417 106 417 106 350 c 0,35,36
 106 284 106 284 129.5 228 c 128,-1,37
 153 172 153 172 195.5 130 c 128,-1,38
 238 88 238 88 295 65 c 128,-1,39
 352 42 352 42 419 42 c 256,20,21
EndSplineSet
Validated: 1
Substitution2: "'c2sc' Capitals to Small Capitals lookup 45 subtable" o.sc
Substitution2: "Single Substitution lookup 39 subtable" ordmasculine
AlternateSubs2: "'aalt' Access All Alternates lookup 1 subtable" ordmasculine o.sc
EndChar

StartChar: uni0222
Encoding: 546 546 205
Width: 732
GlyphClass: 1
Flags: W
LayerCount: 2
Fore
SplineSet
365 -5 m 0,0,1
 272 -5 272 -5 203.5 22 c 128,-1,2
 135 49 135 49 97.5 99.5 c 128,-1,3
 60 150 60 150 60 218 c 0,4,5
 60 285 60 285 97.5 333.5 c 128,-1,6
 135 382 135 382 203.5 408.5 c 128,-1,7
 272 435 272 435 365 435 c 0,8,9
 460 435 460 435 528.5 408.5 c 128,-1,10
 597 382 597 382 634.5 333.5 c 128,-1,11
 672 285 672 285 672 218 c 0,12,13
 672 150 672 150 634.5 99.5 c 128,-1,14
 597 49 597 49 528.5 22 c 128,-1,15
 460 -5 460 -5 365 -5 c 0,0,1
365 40 m 0,16,17
 484 40 484 40 552.5 88.5 c 128,-1,18
 621 137 621 137 621 220 c 0,19,20
 621 302 621 302 552.5 350 c 128,-1,21
 484 398 484 398 365 398 c 0,22,23
 288 398 288 398 230.5 376.5 c 128,-1,24
 173 355 173 355 142.5 315 c 128,-1,25
 112 275 112 275 112 220 c 256,26,27
 112 165 112 165 142.5 124.5 c 128,-1,28
 173 84 173 84 230.5 62 c 128,-1,29
 288 40 288 40 365 40 c 0,16,17
365 403 m 0,30,31
 279 403 279 403 217.5 427 c 128,-1,32
 156 451 156 451 122.5 496 c 128,-1,33
 89 541 89 541 89 601 c 2,34,-1
 89 700 l 1,35,-1
 140 700 l 1,36,-1
 140 601 l 2,37,38
 140 527 140 527 200.5 484 c 128,-1,39
 261 441 261 441 365 441 c 0,40,41
 471 441 471 441 531.5 484 c 128,-1,42
 592 527 592 527 592 601 c 2,43,-1
 592 700 l 1,44,-1
 644 700 l 1,45,-1
 644 601 l 2,46,47
 644 541 644 541 610.5 496 c 128,-1,48
 577 451 577 451 514.5 427 c 128,-1,49
 452 403 452 403 365 403 c 0,30,31
EndSplineSet
Validated: 5
Substitution2: "'c2sc' Capitals to Small Capitals lookup 45 subtable" uni0223.sc
Substitution2: "'aalt' Access All Alternates lookup 0 subtable" uni0223.sc
EndChar

StartChar: Ohorn
Encoding: 416 416 224
Width: 838
GlyphClass: 2
Flags: W
AnchorPoint: "Anchor-3" 419 700 basechar 0
AnchorPoint: "Anchor-0" 419 0 basechar 0
LayerCount: 2
Fore
SplineSet
419 -5 m 256,0,1
 341 -5 341 -5 274.5 21.5 c 128,-1,2
 208 48 208 48 158.5 96.5 c 128,-1,3
 109 145 109 145 82 209.5 c 128,-1,4
 55 274 55 274 55 350 c 0,5,6
 55 427 55 427 82 491.5 c 128,-1,7
 109 556 109 556 158.5 604 c 128,-1,8
 208 652 208 652 275 678.5 c 128,-1,9
 342 705 342 705 420 705 c 0,10,11
 483 705 483 705 529.5 697.5 c 128,-1,12
 576 690 576 690 623 690 c 0,13,14
 675 690 675 690 701 710 c 128,-1,15
 727 730 727 730 727 769 c 0,16,17
 727 788 727 788 721 804 c 128,-1,18
 715 820 715 820 707 834 c 1,19,-1
 741 848 l 1,20,21
 753 832 753 832 759.5 811 c 128,-1,22
 766 790 766 790 766 768 c 0,23,24
 766 712 766 712 729 683 c 128,-1,25
 692 654 692 654 621 654 c 0,26,27
 600 654 600 654 571 656.5 c 128,-1,28
 542 659 542 659 517 663 c 1,29,-1
 574 671 l 1,30,31
 637 646 637 646 684 598 c 128,-1,32
 731 550 731 550 757 486.5 c 128,-1,33
 783 423 783 423 783 350 c 0,34,35
 783 273 783 273 755.5 208.5 c 128,-1,36
 728 144 728 144 679 96 c 128,-1,37
 630 48 630 48 563.5 21.5 c 128,-1,38
 497 -5 497 -5 419 -5 c 256,0,1
419 42 m 256,39,40
 486 42 486 42 543 65.5 c 128,-1,41
 600 89 600 89 642 130.5 c 128,-1,42
 684 172 684 172 707.5 228 c 128,-1,43
 731 284 731 284 731 350 c 256,44,45
 731 416 731 416 707.5 472 c 128,-1,46
 684 528 684 528 642 569.5 c 128,-1,47
 600 611 600 611 543 634.5 c 128,-1,48
 486 658 486 658 419 658 c 256,49,50
 352 658 352 658 295 635 c 128,-1,51
 238 612 238 612 195.5 570 c 128,-1,52
 153 528 153 528 129.5 472 c 128,-1,53
 106 416 106 416 106 350 c 256,54,55
 106 284 106 284 129.5 228 c 128,-1,56
 153 172 153 172 195.5 130 c 128,-1,57
 238 88 238 88 295 65 c 128,-1,58
 352 42 352 42 419 42 c 256,39,40
EndSplineSet
Validated: 5
Substitution2: "'c2sc' Capitals to Small Capitals lookup 45 subtable" ohorn.sc
Substitution2: "'aalt' Access All Alternates lookup 0 subtable" ohorn.sc
EndChar

StartChar: uniA7B6
Encoding: 42934 42934 235
Width: 1072
GlyphClass: 2
Flags: W
AnchorPoint: "Anchor-3" 535 700 basechar 0
AnchorPoint: "Anchor-0" 535 0 basechar 0
LayerCount: 2
Fore
SplineSet
333 -3 m 0,0,1
 270 -3 270 -3 223 24.5 c 128,-1,2
 176 52 176 52 145.5 98.5 c 128,-1,3
 115 145 115 145 100 205.5 c 128,-1,4
 85 266 85 266 85 333 c 0,5,6
 85 428 85 428 115 525 c 128,-1,7
 145 622 145 622 206 700 c 1,8,-1
 265 700 l 1,9,10
 223 649 223 649 194.5 587.5 c 128,-1,11
 166 526 166 526 151 461 c 128,-1,12
 136 396 136 396 136 333 c 0,13,14
 136 256 136 256 158.5 190 c 128,-1,15
 181 124 181 124 226 84 c 128,-1,16
 271 44 271 44 338 44 c 0,17,18
 391 44 391 44 429 69.5 c 128,-1,19
 467 95 467 95 488 141 c 128,-1,20
 509 187 509 187 509 250 c 2,21,-1
 509 422 l 1,22,-1
 563 422 l 1,23,-1
 563 250 l 2,24,25
 563 187 563 187 584.5 141 c 128,-1,26
 606 95 606 95 644.5 69.5 c 128,-1,27
 683 44 683 44 734 44 c 0,28,29
 802 44 802 44 846.5 84 c 128,-1,30
 891 124 891 124 913.5 190 c 128,-1,31
 936 256 936 256 936 333 c 0,32,33
 936 396 936 396 921.5 461 c 128,-1,34
 907 526 907 526 878.5 587.5 c 128,-1,35
 850 649 850 649 808 700 c 1,36,-1
 867 700 l 1,37,38
 908 648 908 648 934.5 586.5 c 128,-1,39
 961 525 961 525 974.5 460.5 c 128,-1,40
 988 396 988 396 988 333 c 0,41,42
 988 266 988 266 972.5 205.5 c 128,-1,43
 957 145 957 145 926.5 98 c 128,-1,44
 896 51 896 51 849 24 c 128,-1,45
 802 -3 802 -3 739 -3 c 0,46,47
 673 -3 673 -3 624 27.5 c 128,-1,48
 575 58 575 58 548.5 110.5 c 128,-1,49
 522 163 522 163 522 232 c 1,50,-1
 551 232 l 1,51,52
 551 163 551 163 524 110.5 c 128,-1,53
 497 58 497 58 448 27.5 c 128,-1,54
 399 -3 399 -3 333 -3 c 0,0,1
EndSplineSet
Validated: 9
Substitution2: "'c2sc' Capitals to Small Capitals lookup 45 subtable" uniA7B7.sc
Substitution2: "'aalt' Access All Alternates lookup 0 subtable" uniA7B7.sc
EndChar

StartChar: uni01EA
Encoding: 490 490 236
Width: 838
GlyphClass: 2
Flags: W
AnchorPoint: "Anchor-3" 419 700 basechar 0
LayerCount: 2
Fore
SplineSet
419 -217 m 0,0,1
 374 -217 374 -217 345.5 -193 c 128,-1,2
 317 -169 317 -169 317 -127 c 0,3,4
 317 -104 317 -104 329 -78 c 128,-1,5
 341 -52 341 -52 371.5 -26 c 128,-1,6
 402 0 402 0 456 22 c 1,7,-1
 447 -3 l 1,8,9
 439 -4 439 -4 432.5 -4.5 c 128,-1,10
 426 -5 426 -5 419 -5 c 0,11,12
 341 -5 341 -5 274.5 21.5 c 128,-1,13
 208 48 208 48 158.5 96 c 128,-1,14
 109 144 109 144 82 208.5 c 128,-1,15
 55 273 55 273 55 350 c 256,16,17
 55 427 55 427 82 491.5 c 128,-1,18
 109 556 109 556 158.5 604 c 128,-1,19
 208 652 208 652 274.5 678.5 c 128,-1,20
 341 705 341 705 419 705 c 256,21,22
 497 705 497 705 563.5 678.5 c 128,-1,23
 630 652 630 652 679 604 c 128,-1,24
 728 556 728 556 755.5 491.5 c 128,-1,25
 783 427 783 427 783 350 c 0,26,27
 783 259 783 259 746 187 c 128,-1,28
 709 115 709 115 647 69 c 128,-1,29
 585 23 585 23 509 6 c 0,30,31
 467 -3 467 -3 432 -22.5 c 128,-1,32
 397 -42 397 -42 376.5 -68 c 128,-1,33
 356 -94 356 -94 356 -124 c 256,34,35
 356 -154 356 -154 375.5 -169 c 128,-1,36
 395 -184 395 -184 424 -184 c 0,37,38
 441 -184 441 -184 457.5 -178.5 c 128,-1,39
 474 -173 474 -173 486 -163 c 1,40,-1
 500 -192 l 1,41,42
 483 -204 483 -204 462.5 -210.5 c 128,-1,43
 442 -217 442 -217 419 -217 c 0,0,1
419 42 m 256,44,45
 486 42 486 42 543 65 c 128,-1,46
 600 88 600 88 642 130 c 128,-1,47
 684 172 684 172 707.5 228 c 128,-1,48
 731 284 731 284 731 350 c 0,49,50
 731 417 731 417 707.5 472.5 c 128,-1,51
 684 528 684 528 642 570 c 128,-1,52
 600 612 600 612 543 635 c 128,-1,53
 486 658 486 658 419 658 c 256,54,55
 352 658 352 658 295 635 c 128,-1,56
 238 612 238 612 195.5 570 c 128,-1,57
 153 528 153 528 129.5 472.5 c 128,-1,58
 106 417 106 417 106 350 c 0,59,60
 106 284 106 284 129.5 228 c 128,-1,61
 153 172 153 172 195.5 130 c 128,-1,62
 238 88 238 88 295 65 c 128,-1,63
 352 42 352 42 419 42 c 256,44,45
EndSplineSet
Validated: 5
Substitution2: "'c2sc' Capitals to Small Capitals lookup 45 subtable" uni01EB.sc
Substitution2: "'locl' Localized Forms in Latin lookup 15 subtable" uni01EA.loclNAV
AlternateSubs2: "'aalt' Access All Alternates lookup 1 subtable" uni01EA.loclNAV uni01EB.sc
EndChar

StartChar: uni0186
Encoding: 390 390 238
Width: 706
GlyphClass: 2
Flags: W
AnchorPoint: "Anchor-3" 293 700 basechar 0
AnchorPoint: "Anchor-2" 333 0 basechar 0
AnchorPoint: "Anchor-1" 562 343 basechar 0
AnchorPoint: "Anchor-0" 293 0 basechar 0
LayerCount: 2
Fore
SplineSet
288 705 m 0,0,1
 366 705 366 705 432 678.5 c 128,-1,2
 498 652 498 652 547 604 c 128,-1,3
 596 556 596 556 623.5 491.5 c 128,-1,4
 651 427 651 427 651 350 c 256,5,6
 651 273 651 273 623.5 208.5 c 128,-1,7
 596 144 596 144 547 96 c 128,-1,8
 498 48 498 48 431.5 21.5 c 128,-1,9
 365 -5 365 -5 287 -5 c 0,10,11
 214 -5 214 -5 149 19.5 c 128,-1,12
 84 44 84 44 38 92 c 1,13,-1
 71 125 l 1,14,15
 116 81 116 81 170 61.5 c 128,-1,16
 224 42 224 42 286 42 c 0,17,18
 353 42 353 42 410 65 c 128,-1,19
 467 88 467 88 509.5 130 c 128,-1,20
 552 172 552 172 575.5 228 c 128,-1,21
 599 284 599 284 599 350 c 256,22,23
 599 416 599 416 575.5 472 c 128,-1,24
 552 528 552 528 509.5 570 c 128,-1,25
 467 612 467 612 410 635 c 128,-1,26
 353 658 353 658 286 658 c 0,27,28
 224 658 224 658 170 638.5 c 128,-1,29
 116 619 116 619 71 574 c 1,30,-1
 38 607 l 1,31,32
 84 656 84 656 149 680.5 c 128,-1,33
 214 705 214 705 288 705 c 0,0,1
EndSplineSet
Validated: 1
Substitution2: "'c2sc' Capitals to Small Capitals lookup 45 subtable" uni0254.sc
Substitution2: "'aalt' Access All Alternates lookup 0 subtable" uni0254.sc
EndChar

StartChar: OE
Encoding: 338 338 245
Width: 1117
GlyphClass: 2
Flags: W
AnchorPoint: "Anchor-3" 596 700 basechar 0
AnchorPoint: "Anchor-0" 596 0 basechar 0
LayerCount: 2
Fore
SplineSet
427 0 m 2,0,1
 316 0 316 0 232.5 44.5 c 128,-1,2
 149 89 149 89 102 168 c 128,-1,3
 55 247 55 247 55 349 c 256,4,5
 55 451 55 451 102 530.5 c 128,-1,6
 149 610 149 610 232.5 655 c 128,-1,7
 316 700 316 700 427 700 c 2,8,-1
 584 700 l 1,9,-1
 584 654 l 1,10,-1
 429 654 l 2,11,12
 332 654 332 654 259.5 615 c 128,-1,13
 187 576 187 576 146.5 507 c 128,-1,14
 106 438 106 438 106 349 c 256,15,16
 106 260 106 260 146.5 191.5 c 128,-1,17
 187 123 187 123 259.5 84.5 c 128,-1,18
 332 46 332 46 429 46 c 2,19,-1
 584 46 l 1,20,-1
 584 0 l 1,21,-1
 427 0 l 2,0,1
571 0 m 1,22,-1
 571 700 l 1,23,-1
 1039 700 l 1,24,-1
 1039 654 l 1,25,-1
 622 654 l 1,26,-1
 622 46 l 1,27,-1
 1053 46 l 1,28,-1
 1053 0 l 1,29,-1
 571 0 l 1,22,-1
616 333 m 1,30,-1
 616 378 l 1,31,-1
 994 378 l 1,32,-1
 994 333 l 1,33,-1
 616 333 l 1,30,-1
EndSplineSet
Validated: 5
Substitution2: "'c2sc' Capitals to Small Capitals lookup 45 subtable" oe.sc
Substitution2: "'aalt' Access All Alternates lookup 0 subtable" oe.sc
EndChar

StartChar: P
Encoding: 80 80 246
Width: 715
GlyphClass: 2
Flags: W
AnchorPoint: "Anchor-3" 357 700 basechar 0
AnchorPoint: "Anchor-0" 357 0 basechar 0
LayerCount: 2
Fore
SplineSet
122 0 m 1,0,-1
 122 700 l 1,1,-1
 373 700 l 2,2,3
 461 700 461 700 524 672 c 128,-1,4
 587 644 587 644 621 591.5 c 128,-1,5
 655 539 655 539 655 464 c 0,6,7
 655 391 655 391 621 338 c 128,-1,8
 587 285 587 285 524 257 c 128,-1,9
 461 229 461 229 373 229 c 2,10,-1
 150 229 l 1,11,-1
 173 253 l 1,12,-1
 173 0 l 1,13,-1
 122 0 l 1,0,-1
173 250 m 1,14,-1
 150 275 l 1,15,-1
 373 275 l 2,16,17
 486 275 486 275 544.5 324.5 c 128,-1,18
 603 374 603 374 603 464 c 0,19,20
 603 555 603 555 544.5 604.5 c 128,-1,21
 486 654 486 654 373 654 c 2,22,-1
 150 654 l 1,23,-1
 173 679 l 1,24,-1
 173 250 l 1,14,-1
EndSplineSet
Validated: 5
Substitution2: "'c2sc' Capitals to Small Capitals lookup 45 subtable" p.sc
Substitution2: "'aalt' Access All Alternates lookup 0 subtable" p.sc
EndChar

StartChar: uni01A4
Encoding: 420 420 249
Width: 864
GlyphClass: 2
Flags: W
AnchorPoint: "Anchor-3" 506 700 basechar 0
AnchorPoint: "Anchor-0" 506 0 basechar 0
LayerCount: 2
Fore
SplineSet
91 420 m 1,0,1
 62 452 62 452 48 490 c 128,-1,2
 34 528 34 528 36.5 565 c 128,-1,3
 39 602 39 602 58 632.5 c 128,-1,4
 77 663 77 663 114.5 681.5 c 128,-1,5
 152 700 152 700 209 700 c 2,6,-1
 277 700 l 1,7,-1
 277 654 l 1,8,-1
 209 654 l 2,9,10
 160 654 160 654 131 635 c 128,-1,11
 102 616 102 616 92 585.5 c 128,-1,12
 82 555 82 555 91 519.5 c 128,-1,13
 100 484 100 484 126 449 c 1,14,-1
 91 420 l 1,0,1
271 0 m 1,15,-1
 271 700 l 1,16,-1
 522 700 l 2,17,18
 610 700 610 700 673 672 c 128,-1,19
 736 644 736 644 770 591.5 c 128,-1,20
 804 539 804 539 804 464 c 0,21,22
 804 391 804 391 770 338 c 128,-1,23
 736 285 736 285 673 257 c 128,-1,24
 610 229 610 229 522 229 c 2,25,-1
 299 229 l 1,26,-1
 322 253 l 1,27,-1
 322 0 l 1,28,-1
 271 0 l 1,15,-1
322 250 m 1,29,-1
 299 275 l 1,30,-1
 522 275 l 2,31,32
 635 275 635 275 693.5 324.5 c 128,-1,33
 752 374 752 374 752 464 c 0,34,35
 752 555 752 555 693.5 604.5 c 128,-1,36
 635 654 635 654 522 654 c 2,37,-1
 299 654 l 1,38,-1
 322 679 l 1,39,-1
 322 250 l 1,29,-1
EndSplineSet
Validated: 37
Substitution2: "'c2sc' Capitals to Small Capitals lookup 45 subtable" uni01A5.sc
Substitution2: "'aalt' Access All Alternates lookup 0 subtable" uni01A5.sc
EndChar

StartChar: Thorn
Encoding: 222 222 250
Width: 715
GlyphClass: 1
Flags: W
LayerCount: 2
Fore
SplineSet
159 133 m 1,0,-1
 159 179 l 1,1,-1
 373 179 l 2,2,3
 486 179 486 179 544.5 229 c 128,-1,4
 603 279 603 279 603 370 c 256,5,6
 603 461 603 461 544.5 510.5 c 128,-1,7
 486 560 486 560 373 560 c 2,8,-1
 159 560 l 1,9,-1
 159 605 l 1,10,-1
 373 605 l 2,11,12
 461 605 461 605 524 577 c 128,-1,13
 587 549 587 549 621 496.5 c 128,-1,14
 655 444 655 444 655 370 c 256,15,16
 655 296 655 296 621 243 c 128,-1,17
 587 190 587 190 524 161.5 c 128,-1,18
 461 133 461 133 373 133 c 2,19,-1
 159 133 l 1,0,-1
122 0 m 1,20,-1
 122 700 l 1,21,-1
 173 700 l 1,22,-1
 173 0 l 1,23,-1
 122 0 l 1,20,-1
EndSplineSet
Validated: 5
Substitution2: "'c2sc' Capitals to Small Capitals lookup 45 subtable" thorn.sc
Substitution2: "'aalt' Access All Alternates lookup 0 subtable" thorn.sc
EndChar

StartChar: uni2C63
Encoding: 11363 11363 251
Width: 722
GlyphClass: 2
Flags: W
LayerCount: 2
Fore
SplineSet
129 0 m 1,0,-1
 129 700 l 1,1,-1
 381 700 l 2,2,3
 469 700 469 700 532 672 c 128,-1,4
 595 644 595 644 628.5 591.5 c 128,-1,5
 662 539 662 539 662 464 c 0,6,7
 662 391 662 391 628.5 338 c 128,-1,8
 595 285 595 285 532 257 c 128,-1,9
 469 229 469 229 381 229 c 2,10,-1
 158 229 l 1,11,-1
 181 253 l 1,12,-1
 181 0 l 1,13,-1
 129 0 l 1,0,-1
16 445 m 1,14,-1
 16 487 l 1,15,-1
 344 487 l 1,16,-1
 344 445 l 1,17,-1
 16 445 l 1,14,-1
181 250 m 1,18,-1
 158 275 l 1,19,-1
 381 275 l 2,20,21
 493 275 493 275 552 324.5 c 128,-1,22
 611 374 611 374 611 464 c 0,23,24
 611 555 611 555 552 604.5 c 128,-1,25
 493 654 493 654 381 654 c 2,26,-1
 158 654 l 1,27,-1
 181 679 l 1,28,-1
 181 250 l 1,18,-1
EndSplineSet
Validated: 5
Substitution2: "'c2sc' Capitals to Small Capitals lookup 45 subtable" uni1D7D.sc
Substitution2: "'aalt' Access All Alternates lookup 0 subtable" uni1D7D.sc
EndChar

StartChar: Q
Encoding: 81 81 252
Width: 838
GlyphClass: 2
Flags: W
AnchorPoint: "Anchor-3" 419 700 basechar 0
LayerCount: 2
Fore
SplineSet
419 -5 m 256,0,1
 341 -5 341 -5 274.5 21.5 c 128,-1,2
 208 48 208 48 158.5 96.5 c 128,-1,3
 109 145 109 145 82 209.5 c 128,-1,4
 55 274 55 274 55 350 c 256,5,6
 55 426 55 426 82 490.5 c 128,-1,7
 109 555 109 555 158.5 603.5 c 128,-1,8
 208 652 208 652 274.5 678.5 c 128,-1,9
 341 705 341 705 419 705 c 256,10,11
 497 705 497 705 563.5 678.5 c 128,-1,12
 630 652 630 652 679 604 c 128,-1,13
 728 556 728 556 755.5 491.5 c 128,-1,14
 783 427 783 427 783 350 c 256,15,16
 783 273 783 273 755.5 208.5 c 128,-1,17
 728 144 728 144 679 96 c 128,-1,18
 630 48 630 48 563.5 21.5 c 128,-1,19
 497 -5 497 -5 419 -5 c 256,0,1
649 -133 m 0,20,21
 619 -133 619 -133 590.5 -125 c 128,-1,22
 562 -117 562 -117 532.5 -100.5 c 128,-1,23
 503 -84 503 -84 472.5 -57.5 c 128,-1,24
 442 -31 442 -31 407 6 c 1,25,-1
 465 20 l 1,26,27
 497 -17 497 -17 528.5 -42 c 128,-1,28
 560 -67 560 -67 590 -78.5 c 128,-1,29
 620 -90 620 -90 649 -90 c 0,30,31
 731 -90 731 -90 787 -23 c 1,32,-1
 814 -54 l 1,33,34
 750 -133 750 -133 649 -133 c 0,20,21
419 42 m 256,35,36
 486 42 486 42 543 65 c 128,-1,37
 600 88 600 88 642 130 c 128,-1,38
 684 172 684 172 707.5 228 c 128,-1,39
 731 284 731 284 731 350 c 256,40,41
 731 416 731 416 707.5 472 c 128,-1,42
 684 528 684 528 642 570 c 128,-1,43
 600 612 600 612 543 635 c 128,-1,44
 486 658 486 658 419 658 c 256,45,46
 352 658 352 658 295 635 c 128,-1,47
 238 612 238 612 195.5 570 c 128,-1,48
 153 528 153 528 129.5 472 c 128,-1,49
 106 416 106 416 106 350 c 256,50,51
 106 284 106 284 129.5 228 c 128,-1,52
 153 172 153 172 195.5 130 c 128,-1,53
 238 88 238 88 295 65 c 128,-1,54
 352 42 352 42 419 42 c 256,35,36
EndSplineSet
Validated: 5
Substitution2: "'ss01' Style Set 1 lookup 50 subtable" Q.ss01
Substitution2: "'c2sc' Capitals to Small Capitals lookup 45 subtable" q.sc
AlternateSubs2: "'aalt' Access All Alternates lookup 1 subtable" q.sc Q.ss01
EndChar

StartChar: uni024A
Encoding: 586 586 253
Width: 909
GlyphClass: 2
Flags: W
AnchorPoint: "Anchor-4" 654 700 basechar 0
AnchorPoint: "Anchor-3" 418 700 basechar 0
AnchorPoint: "Anchor-2" 479 0 basechar 0
AnchorPoint: "Anchor-1" 418 350 basechar 0
AnchorPoint: "Anchor-0" 418 0 basechar 0
LayerCount: 2
Fore
SplineSet
416 -5 m 256,0,1
 339 -5 339 -5 273 21.5 c 128,-1,2
 207 48 207 48 158 96.5 c 128,-1,3
 109 145 109 145 82 209.5 c 128,-1,4
 55 274 55 274 55 350 c 256,5,6
 55 426 55 426 82 490.5 c 128,-1,7
 109 555 109 555 158 603.5 c 128,-1,8
 207 652 207 652 273 678.5 c 128,-1,9
 339 705 339 705 416 705 c 256,10,11
 493 705 493 705 558 678.5 c 128,-1,12
 623 652 623 652 671 604 c 128,-1,13
 719 556 719 556 745.5 491.5 c 128,-1,14
 772 427 772 427 772 350 c 256,15,16
 772 273 772 273 745.5 208.5 c 128,-1,17
 719 144 719 144 671 96 c 128,-1,18
 623 48 623 48 558 21.5 c 128,-1,19
 493 -5 493 -5 416 -5 c 256,0,1
419 42 m 256,20,21
 486 42 486 42 543 65 c 128,-1,22
 600 88 600 88 642 130 c 128,-1,23
 684 172 684 172 707.5 228 c 128,-1,24
 731 284 731 284 731 350 c 0,25,26
 731 417 731 417 707.5 472.5 c 128,-1,27
 684 528 684 528 642 570 c 128,-1,28
 600 612 600 612 543 635 c 128,-1,29
 486 658 486 658 419 658 c 256,30,31
 352 658 352 658 295 635 c 128,-1,32
 238 612 238 612 195.5 570 c 128,-1,33
 153 528 153 528 129.5 472.5 c 128,-1,34
 106 417 106 417 106 350 c 0,35,36
 106 284 106 284 129.5 228 c 128,-1,37
 153 172 153 172 195.5 130 c 128,-1,38
 238 88 238 88 295 65 c 128,-1,39
 352 42 352 42 419 42 c 256,20,21
944 -181 m 1,40,41
 910 -197 910 -197 872 -198 c 128,-1,42
 834 -199 834 -199 802 -183 c 128,-1,43
 770 -167 770 -167 749.5 -134 c 128,-1,44
 729 -101 729 -101 729 -49 c 2,45,-1
 729 231 l 1,46,-1
 736 350 l 1,47,-1
 729 480 l 1,48,-1
 729 691 l 1,49,-1
 780 691 l 1,50,-1
 780 -48 l 2,51,52
 780 -97 780 -97 803.5 -122.5 c 128,-1,53
 827 -148 827 -148 861 -151.5 c 128,-1,54
 895 -155 895 -155 928 -140 c 1,55,-1
 944 -181 l 1,40,41
EndSplineSet
Validated: 37
Substitution2: "'c2sc' Capitals to Small Capitals lookup 45 subtable" uni024B.sc
Substitution2: "'aalt' Access All Alternates lookup 0 subtable" uni024B.sc
EndChar

StartChar: R
Encoding: 82 82 254
Width: 720
GlyphClass: 2
Flags: W
AnchorPoint: "Anchor-3" 366 700 basechar 0
AnchorPoint: "Anchor-0" 366 0 basechar 0
LayerCount: 2
Fore
SplineSet
122 0 m 1,0,-1
 122 700 l 1,1,-1
 373 700 l 2,2,3
 505 700 505 700 580 638 c 128,-1,4
 655 576 655 576 655 464 c 0,5,6
 655 391 655 391 621 338.5 c 128,-1,7
 587 286 587 286 524 257.5 c 128,-1,8
 461 229 461 229 373 229 c 2,9,-1
 150 229 l 1,10,-1
 173 253 l 1,11,-1
 173 0 l 1,12,-1
 122 0 l 1,0,-1
608 0 m 1,13,-1
 426 254 l 1,14,-1
 484 254 l 1,15,-1
 666 0 l 1,16,-1
 608 0 l 1,13,-1
173 250 m 1,17,-1
 150 274 l 1,18,-1
 373 274 l 2,19,20
 486 274 486 274 544.5 324 c 128,-1,21
 603 374 603 374 603 464 c 0,22,23
 603 555 603 555 544.5 604.5 c 128,-1,24
 486 654 486 654 373 654 c 2,25,-1
 150 654 l 1,26,-1
 173 679 l 1,27,-1
 173 250 l 1,17,-1
EndSplineSet
Validated: 5
Substitution2: "'c2sc' Capitals to Small Capitals lookup 45 subtable" r.sc
Substitution2: "'aalt' Access All Alternates lookup 0 subtable" r.sc
EndChar

StartChar: uni024C
Encoding: 588 588 264
Width: 720
GlyphClass: 2
Flags: W
AnchorPoint: "Anchor-3" 366 700 basechar 0
AnchorPoint: "Anchor-0" 366 0 basechar 0
LayerCount: 2
Fore
SplineSet
122 0 m 1,0,-1
 122 700 l 1,1,-1
 373 700 l 2,2,3
 505 700 505 700 580 638 c 128,-1,4
 655 576 655 576 655 464 c 0,5,6
 655 391 655 391 621 338.5 c 128,-1,7
 587 286 587 286 524 257.5 c 128,-1,8
 461 229 461 229 373 229 c 2,9,-1
 150 229 l 1,10,-1
 173 253 l 1,11,-1
 173 0 l 1,12,-1
 122 0 l 1,0,-1
608 0 m 1,13,-1
 426 254 l 1,14,-1
 484 254 l 1,15,-1
 666 0 l 1,16,-1
 608 0 l 1,13,-1
173 250 m 1,17,-1
 150 274 l 1,18,-1
 373 274 l 2,19,20
 486 274 486 274 544.5 324 c 128,-1,21
 603 374 603 374 603 464 c 0,22,23
 603 555 603 555 544.5 604.5 c 128,-1,24
 486 654 486 654 373 654 c 2,25,-1
 150 654 l 1,26,-1
 173 679 l 1,27,-1
 173 250 l 1,17,-1
9 232 m 1,28,-1
 9 274 l 1,29,-1
 327 274 l 1,30,-1
 327 232 l 1,31,-1
 9 232 l 1,28,-1
EndSplineSet
Validated: 5
Substitution2: "'c2sc' Capitals to Small Capitals lookup 45 subtable" uni024D.sc
Substitution2: "'aalt' Access All Alternates lookup 0 subtable" uni024D.sc
EndChar

StartChar: uni2C64
Encoding: 11364 11364 265
Width: 754
GlyphClass: 2
Flags: W
AnchorPoint: "Anchor-3" 381 700 basechar 0
AnchorPoint: "Anchor-0" 381 0 basechar 0
LayerCount: 2
Fore
SplineSet
382 -161 m 1,0,1
 348 -187 348 -187 306 -195 c 128,-1,2
 264 -203 264 -203 225 -190.5 c 128,-1,3
 186 -178 186 -178 160.5 -143 c 128,-1,4
 135 -108 135 -108 135 -49 c 2,5,-1
 135 700 l 1,6,-1
 387 700 l 2,7,8
 475 700 475 700 538 672 c 128,-1,9
 601 644 601 644 634.5 591.5 c 128,-1,10
 668 539 668 539 668 464 c 0,11,12
 668 391 668 391 634.5 338.5 c 128,-1,13
 601 286 601 286 538 257.5 c 128,-1,14
 475 229 475 229 387 229 c 2,15,-1
 164 229 l 1,16,-1
 187 253 l 1,17,-1
 187 -48 l 2,18,19
 187 -90 187 -90 204 -114.5 c 128,-1,20
 221 -139 221 -139 248 -147.5 c 128,-1,21
 275 -156 275 -156 305.5 -149.5 c 128,-1,22
 336 -143 336 -143 362 -123 c 1,23,-1
 382 -161 l 1,0,1
621 0 m 1,24,-1
 440 254 l 1,25,-1
 497 254 l 1,26,-1
 679 0 l 1,27,-1
 621 0 l 1,24,-1
187 250 m 1,28,-1
 164 274 l 1,29,-1
 387 274 l 2,30,31
 499 274 499 274 558 324 c 128,-1,32
 617 374 617 374 617 464 c 0,33,34
 617 555 617 555 558 604.5 c 128,-1,35
 499 654 499 654 387 654 c 2,36,-1
 164 654 l 1,37,-1
 187 679 l 1,38,-1
 187 250 l 1,28,-1
EndSplineSet
Validated: 37
Substitution2: "'c2sc' Capitals to Small Capitals lookup 45 subtable" uni027D.sc
Substitution2: "'aalt' Access All Alternates lookup 0 subtable" uni027D.sc
EndChar

StartChar: S
Encoding: 83 83 266
Width: 609
GlyphClass: 2
Flags: W
AnchorPoint: "Anchor-3" 320 700 basechar 0
AnchorPoint: "Anchor-1" 320 350 basechar 0
AnchorPoint: "Anchor-0" 320 0 basechar 0
LayerCount: 2
Fore
SplineSet
306 -5 m 0,0,1
 228 -5 228 -5 158.5 21.5 c 128,-1,2
 89 48 89 48 51 90 c 1,3,-1
 74 128 l 1,4,5
 110 91 110 91 172.5 65.5 c 128,-1,6
 235 40 235 40 305 40 c 256,7,8
 375 40 375 40 419.5 58.5 c 128,-1,9
 464 77 464 77 485.5 108 c 128,-1,10
 507 139 507 139 507 177 c 0,11,12
 507 222 507 222 483 249 c 128,-1,13
 459 276 459 276 420 292 c 128,-1,14
 381 308 381 308 335 319 c 128,-1,15
 289 330 289 330 242 342.5 c 128,-1,16
 195 355 195 355 156 375 c 128,-1,17
 117 395 117 395 93.5 429.5 c 128,-1,18
 70 464 70 464 70 519 c 0,19,20
 70 569 70 569 96 611 c 128,-1,21
 122 653 122 653 177 679 c 128,-1,22
 232 705 232 705 318 705 c 0,23,24
 376 705 376 705 432.5 688 c 128,-1,25
 489 671 489 671 529 642 c 1,26,-1
 510 601 l 1,27,28
 466 631 466 631 415.5 645.5 c 128,-1,29
 365 660 365 660 318 660 c 0,30,31
 251 660 251 660 207 641 c 128,-1,32
 163 622 163 622 142 590.5 c 128,-1,33
 121 559 121 559 121 520 c 0,34,35
 121 475 121 475 144.5 448 c 128,-1,36
 168 421 168 421 207 405 c 128,-1,37
 246 389 246 389 293 378 c 128,-1,38
 340 367 340 367 386 354.5 c 128,-1,39
 432 342 432 342 471 322 c 128,-1,40
 510 302 510 302 534 268 c 128,-1,41
 558 234 558 234 558 180 c 0,42,43
 558 131 558 131 531 88.5 c 128,-1,44
 504 46 504 46 448.5 20.5 c 128,-1,45
 393 -5 393 -5 306 -5 c 0,0,1
EndSplineSet
Validated: 1
Substitution2: "'c2sc' Capitals to Small Capitals lookup 45 subtable" s.sc
Substitution2: "'aalt' Access All Alternates lookup 0 subtable" s.sc
EndChar

StartChar: uni1E9E
Encoding: 7838 7838 277
Width: 750
GlyphClass: 1
Flags: W
LayerCount: 2
Fore
SplineSet
457 -5 m 0,0,1
 419 -5 419 -5 386 1.5 c 128,-1,2
 353 8 353 8 322 22 c 1,3,-1
 333 66 l 1,4,5
 360 53 360 53 391.5 46.5 c 128,-1,6
 423 40 423 40 458 40 c 0,7,8
 541 40 541 40 590 80 c 128,-1,9
 639 120 639 120 639 198 c 256,10,11
 639 276 639 276 589 315.5 c 128,-1,12
 539 355 539 355 455 355 c 0,13,14
 432 355 432 355 409.5 352 c 128,-1,15
 387 349 387 349 368 343 c 1,16,-1
 356 372 l 1,17,-1
 600 631 l 1,18,-1
 603 597 l 1,19,20
 564 630 564 630 514 645 c 128,-1,21
 464 660 464 660 409 660 c 0,22,23
 291 660 291 660 229 596.5 c 128,-1,24
 167 533 167 533 167 414 c 2,25,-1
 167 0 l 1,26,-1
 116 0 l 1,27,-1
 116 416 l 2,28,29
 116 506 116 506 150 570.5 c 128,-1,30
 184 635 184 635 249 670 c 128,-1,31
 314 705 314 705 405 705 c 0,32,33
 447 705 447 705 487.5 697 c 128,-1,34
 528 689 528 689 563.5 674 c 128,-1,35
 599 659 599 659 628 634 c 1,36,-1
 628 599 l 1,37,-1
 400 358 l 1,38,-1
 383 387 l 1,39,40
 400 392 400 392 420.5 394.5 c 128,-1,41
 441 397 441 397 462 397 c 0,42,43
 529 397 529 397 580.5 374 c 128,-1,44
 632 351 632 351 661.5 306.5 c 128,-1,45
 691 262 691 262 691 196 c 0,46,47
 691 131 691 131 662 86 c 128,-1,48
 633 41 633 41 580.5 18 c 128,-1,49
 528 -5 528 -5 457 -5 c 0,0,1
EndSplineSet
Validated: 5
Substitution2: "'c2sc' Capitals to Small Capitals lookup 45 subtable" germandbls.sc
Substitution2: "'aalt' Access All Alternates lookup 0 subtable" germandbls.sc
EndChar

StartChar: uniA7A8
Encoding: 42920 42920 278
Width: 609
GlyphClass: 2
Flags: W
AnchorPoint: "Anchor-3" 319 700 basechar 0
AnchorPoint: "Anchor-0" 319 0 basechar 0
LayerCount: 2
Fore
SplineSet
306 -5 m 0,0,1
 254 -5 254 -5 205 7 c 128,-1,2
 156 19 156 19 116.5 40.5 c 128,-1,3
 77 62 77 62 51 90 c 1,4,-1
 74 128 l 1,5,6
 110 91 110 91 172.5 65.5 c 128,-1,7
 235 40 235 40 305 40 c 256,8,9
 375 40 375 40 419.5 58.5 c 128,-1,10
 464 77 464 77 485.5 108 c 128,-1,11
 507 139 507 139 507 177 c 0,12,13
 507 222 507 222 483 249 c 128,-1,14
 459 276 459 276 420 292 c 128,-1,15
 381 308 381 308 335 319 c 128,-1,16
 289 330 289 330 242 342.5 c 128,-1,17
 195 355 195 355 156 375 c 128,-1,18
 117 395 117 395 93.5 429.5 c 128,-1,19
 70 464 70 464 70 519 c 0,20,21
 70 569 70 569 96 611 c 128,-1,22
 122 653 122 653 177 679 c 128,-1,23
 232 705 232 705 318 705 c 0,24,25
 376 705 376 705 432.5 688 c 128,-1,26
 489 671 489 671 529 642 c 1,27,-1
 510 601 l 1,28,29
 466 631 466 631 415.5 645.5 c 128,-1,30
 365 660 365 660 318 660 c 0,31,32
 251 660 251 660 207 641 c 128,-1,33
 163 622 163 622 142 590.5 c 128,-1,34
 121 559 121 559 121 520 c 0,35,36
 121 475 121 475 144.5 448 c 128,-1,37
 168 421 168 421 207 405 c 128,-1,38
 246 389 246 389 293 378 c 128,-1,39
 340 367 340 367 386 354.5 c 128,-1,40
 432 342 432 342 471 322 c 128,-1,41
 510 302 510 302 534 268 c 128,-1,42
 558 234 558 234 558 180 c 0,43,44
 558 131 558 131 531 88.5 c 128,-1,45
 504 46 504 46 448.5 20.5 c 128,-1,46
 393 -5 393 -5 306 -5 c 0,0,1
223 196 m 1,47,-1
 188 215 l 1,48,-1
 360 506 l 1,49,-1
 395 487 l 1,50,-1
 223 196 l 1,47,-1
EndSplineSet
Validated: 5
Substitution2: "'c2sc' Capitals to Small Capitals lookup 45 subtable" uniA7A9.sc
Substitution2: "'aalt' Access All Alternates lookup 0 subtable" uniA7A9.sc
EndChar

StartChar: T
Encoding: 84 84 279
Width: 563
GlyphClass: 2
Flags: W
AnchorPoint: "Anchor-3" 282 700 basechar 0
AnchorPoint: "Anchor-1" 282 356 basechar 0
AnchorPoint: "Anchor-0" 282 0 basechar 0
LayerCount: 2
Fore
SplineSet
256 0 m 1,0,-1
 256 654 l 1,1,-1
 4 654 l 1,2,-1
 4 700 l 1,3,-1
 559 700 l 1,4,-1
 559 654 l 1,5,-1
 307 654 l 1,6,-1
 307 0 l 1,7,-1
 256 0 l 1,0,-1
EndSplineSet
Validated: 1
Substitution2: "'ss01' Style Set 1 lookup 50 subtable" T.ss01
Substitution2: "'c2sc' Capitals to Small Capitals lookup 45 subtable" t.sc
AlternateSubs2: "'aalt' Access All Alternates lookup 1 subtable" t.sc T.ss01
EndChar

StartChar: Tbar
Encoding: 358 358 280
Width: 563
GlyphClass: 2
Flags: W
AnchorPoint: "Anchor-3" 282 700 basechar 0
AnchorPoint: "Anchor-1" 282 356 basechar 0
AnchorPoint: "Anchor-0" 282 0 basechar 0
LayerCount: 2
Fore
SplineSet
256 0 m 1,0,-1
 256 654 l 1,1,-1
 4 654 l 1,2,-1
 4 700 l 1,3,-1
 559 700 l 1,4,-1
 559 654 l 1,5,-1
 307 654 l 1,6,-1
 307 0 l 1,7,-1
 256 0 l 1,0,-1
93 335 m 1,8,-1
 93 377 l 1,9,-1
 471 377 l 1,10,-1
 471 335 l 1,11,-1
 93 335 l 1,8,-1
EndSplineSet
Validated: 5
Substitution2: "'ss01' Style Set 1 lookup 50 subtable" Tbar.ss01
Substitution2: "'c2sc' Capitals to Small Capitals lookup 45 subtable" tbar.sc
AlternateSubs2: "'aalt' Access All Alternates lookup 1 subtable" tbar.sc Tbar.ss01
EndChar

StartChar: uni023E
Encoding: 574 574 285
Width: 562
GlyphClass: 2
Flags: W
AnchorPoint: "Anchor-3" 281 700 basechar 0
AnchorPoint: "Anchor-1" 281 350 basechar 0
AnchorPoint: "Anchor-0" 281 0 basechar 0
LayerCount: 2
Fore
SplineSet
256 0 m 1,0,-1
 256 654 l 1,1,-1
 4 654 l 1,2,-1
 4 700 l 1,3,-1
 558 700 l 1,4,-1
 558 654 l 1,5,-1
 306 654 l 1,6,-1
 306 0 l 1,7,-1
 256 0 l 1,0,-1
82 -70 m 1,8,-1
 467 770 l 1,9,-1
 511 770 l 1,10,-1
 125 -70 l 1,11,-1
 82 -70 l 1,8,-1
EndSplineSet
Validated: 5
Substitution2: "'ss01' Style Set 1 lookup 50 subtable" uni023E.ss01
Substitution2: "'c2sc' Capitals to Small Capitals lookup 45 subtable" uni2C66.sc
AlternateSubs2: "'aalt' Access All Alternates lookup 1 subtable" uni2C66.sc uni023E.ss01
EndChar

StartChar: uni01AC
Encoding: 428 428 288
Width: 619
GlyphClass: 1
Flags: W
LayerCount: 2
Fore
SplineSet
312 0 m 1,0,-1
 312 667 l 1,1,-1
 326 654 l 1,2,-1
 206 654 l 2,3,4
 156 654 156 654 127 634.5 c 128,-1,5
 98 615 98 615 88 584 c 128,-1,6
 78 553 78 553 87.5 516.5 c 128,-1,7
 97 480 97 480 124 446 c 1,8,-1
 91 421 l 1,9,10
 62 453 62 453 48 490.5 c 128,-1,11
 34 528 34 528 36.5 565 c 128,-1,12
 39 602 39 602 58 632.5 c 128,-1,13
 77 663 77 663 114 681.5 c 128,-1,14
 151 700 151 700 207 700 c 2,15,-1
 615 700 l 1,16,-1
 615 654 l 1,17,-1
 350 654 l 1,18,-1
 363 667 l 1,19,-1
 363 0 l 1,20,-1
 312 0 l 1,0,-1
EndSplineSet
Validated: 37
Substitution2: "'ss01' Style Set 1 lookup 50 subtable" uni01AC.ss01
Substitution2: "'c2sc' Capitals to Small Capitals lookup 45 subtable" uni01AD.sc
AlternateSubs2: "'aalt' Access All Alternates lookup 1 subtable" uni01AD.sc uni01AC.ss01
EndChar

StartChar: uni01AE
Encoding: 430 430 290
Width: 563
GlyphClass: 2
Flags: W
AnchorPoint: "Anchor-3" 282 700 basechar 0
AnchorPoint: "Anchor-1" 282 349 basechar 0
AnchorPoint: "Anchor-0" 282 0 basechar 0
LayerCount: 2
Fore
SplineSet
503 -161 m 1,0,1
 469 -187 469 -187 426.5 -195 c 128,-1,2
 384 -203 384 -203 345 -190.5 c 128,-1,3
 306 -178 306 -178 281 -143 c 128,-1,4
 256 -108 256 -108 256 -49 c 2,5,-1
 256 663 l 1,6,-1
 307 663 l 1,7,-1
 307 -48 l 2,8,9
 307 -89 307 -89 324.5 -114 c 128,-1,10
 342 -139 342 -139 369 -147.5 c 128,-1,11
 396 -156 396 -156 426 -149.5 c 128,-1,12
 456 -143 456 -143 482 -123 c 1,13,-1
 503 -161 l 1,0,1
4 654 m 1,14,-1
 4 700 l 1,15,-1
 559 700 l 1,16,-1
 559 654 l 1,17,-1
 4 654 l 1,14,-1
EndSplineSet
Validated: 37
Substitution2: "'ss01' Style Set 1 lookup 50 subtable" uni01AE.ss01
Substitution2: "'c2sc' Capitals to Small Capitals lookup 45 subtable" uni0288.sc
AlternateSubs2: "'aalt' Access All Alternates lookup 1 subtable" uni0288.sc uni01AE.ss01
EndChar

StartChar: uniA7B1
Encoding: 42929 42929 291
Width: 563
GlyphClass: 1
Flags: W
LayerCount: 2
Fore
SplineSet
307 700 m 1,0,-1
 307 46 l 1,1,-1
 559 46 l 1,2,-1
 559 0 l 1,3,-1
 4 0 l 1,4,-1
 4 46 l 1,5,-1
 256 46 l 1,6,-1
 256 700 l 1,7,-1
 307 700 l 1,0,-1
EndSplineSet
Validated: 1
Substitution2: "'ss01' Style Set 1 lookup 50 subtable" uniA7B1.ss01
Substitution2: "'c2sc' Capitals to Small Capitals lookup 45 subtable" uni0287.sc
AlternateSubs2: "'aalt' Access All Alternates lookup 1 subtable" uni0287.sc uniA7B1.ss01
EndChar

StartChar: U
Encoding: 85 85 292
Width: 793
GlyphClass: 2
Flags: W
AnchorPoint: "Anchor-4" 667 700 basechar 0
AnchorPoint: "Anchor-3" 397 700 basechar 0
AnchorPoint: "Anchor-2" 588 0 basechar 0
AnchorPoint: "Anchor-1" 397 356 basechar 0
AnchorPoint: "Anchor-0" 397 0 basechar 0
LayerCount: 2
Fore
SplineSet
396 -5 m 0,0,1
 266 -5 266 -5 191 71 c 128,-1,2
 116 147 116 147 116 297 c 2,3,-1
 116 700 l 1,4,-1
 167 700 l 1,5,-1
 167 299 l 2,6,7
 167 168 167 168 227 105 c 128,-1,8
 287 42 287 42 397 42 c 0,9,10
 506 42 506 42 566 105 c 128,-1,11
 626 168 626 168 626 299 c 2,12,-1
 626 700 l 1,13,-1
 677 700 l 1,14,-1
 677 297 l 2,15,16
 677 147 677 147 602 71 c 128,-1,17
 527 -5 527 -5 396 -5 c 0,0,1
EndSplineSet
Validated: 1
Substitution2: "'ss01' Style Set 1 lookup 50 subtable" U.ss01
Substitution2: "'c2sc' Capitals to Small Capitals lookup 45 subtable" u.sc
AlternateSubs2: "'aalt' Access All Alternates lookup 1 subtable" u.sc U.ss01
EndChar

StartChar: uni0244
Encoding: 580 580 294
Width: 792
GlyphClass: 2
Flags: W
AnchorPoint: "Anchor-4" 667 700 basechar 0
AnchorPoint: "Anchor-3" 396 700 basechar 0
AnchorPoint: "Anchor-2" 588 0 basechar 0
AnchorPoint: "Anchor-1" 396 356 basechar 0
AnchorPoint: "Anchor-0" 396 0 basechar 0
LayerCount: 2
Fore
SplineSet
396 -5 m 256,0,1
 266 -5 266 -5 191 71 c 128,-1,2
 116 147 116 147 116 297 c 2,3,-1
 116 700 l 1,4,-1
 167 700 l 1,5,-1
 167 299 l 2,6,7
 167 168 167 168 227 105 c 128,-1,8
 287 42 287 42 396 42 c 0,9,10
 506 42 506 42 566 105 c 128,-1,11
 626 168 626 168 626 299 c 2,12,-1
 626 700 l 1,13,-1
 676 700 l 1,14,-1
 676 297 l 2,15,16
 676 147 676 147 601 71 c 128,-1,17
 526 -5 526 -5 396 -5 c 256,0,1
2 335 m 1,18,-1
 2 377 l 1,19,-1
 790 377 l 1,20,-1
 790 335 l 1,21,-1
 2 335 l 1,18,-1
EndSplineSet
Validated: 5
Substitution2: "'ss01' Style Set 1 lookup 50 subtable" uni0244.ss01
Substitution2: "'c2sc' Capitals to Small Capitals lookup 45 subtable" uni0289.sc
AlternateSubs2: "'aalt' Access All Alternates lookup 1 subtable" uni0289.sc uni0244.ss01
EndChar

StartChar: Uogonek
Encoding: 370 370 319
Width: 793
GlyphClass: 2
Flags: W
AnchorPoint: "Anchor-4" 667 700 basechar 0
AnchorPoint: "Anchor-3" 397 700 basechar 0
AnchorPoint: "Anchor-1" 397 356 basechar 0
AnchorPoint: "Anchor-0" 397 -217 basechar 0
LayerCount: 2
Fore
SplineSet
410 -217 m 0,0,1
 364 -217 364 -217 336 -193 c 128,-1,2
 308 -169 308 -169 308 -127 c 0,3,4
 308 -104 308 -104 319.5 -78.5 c 128,-1,5
 331 -53 331 -53 361 -27 c 128,-1,6
 391 -1 391 -1 447 21 c 1,7,-1
 436 -3 l 1,8,9
 427 -4 427 -4 416.5 -4.5 c 128,-1,10
 406 -5 406 -5 396 -5 c 0,11,12
 266 -5 266 -5 191 71 c 128,-1,13
 116 147 116 147 116 297 c 2,14,-1
 116 700 l 1,15,-1
 167 700 l 1,16,-1
 167 299 l 2,17,18
 167 168 167 168 227 105 c 128,-1,19
 287 42 287 42 397 42 c 0,20,21
 506 42 506 42 566 105 c 128,-1,22
 626 168 626 168 626 299 c 2,23,-1
 626 700 l 1,24,-1
 677 700 l 1,25,-1
 677 297 l 2,26,27
 677 175 677 175 629.5 105.5 c 128,-1,28
 582 36 582 36 498 8 c 0,29,30
 434 -14 434 -14 401.5 -37.5 c 128,-1,31
 369 -61 369 -61 358 -83.5 c 128,-1,32
 347 -106 347 -106 347 -124 c 0,33,34
 347 -154 347 -154 366 -169 c 128,-1,35
 385 -184 385 -184 415 -184 c 0,36,37
 431 -184 431 -184 447.5 -178.5 c 128,-1,38
 464 -173 464 -173 476 -163 c 1,39,-1
 490 -192 l 1,40,41
 473 -204 473 -204 453 -210.5 c 128,-1,42
 433 -217 433 -217 410 -217 c 0,0,1
EndSplineSet
Validated: 5
Substitution2: "'ss01' Style Set 1 lookup 50 subtable" Uogonek.ss01
Substitution2: "'c2sc' Capitals to Small Capitals lookup 45 subtable" uogonek.sc
Substitution2: "'locl' Localized Forms in Latin lookup 15 subtable" Uogonek.loclNAV
AlternateSubs2: "'aalt' Access All Alternates lookup 1 subtable" Uogonek.loclNAV uogonek.sc Uogonek.ss01
EndChar

StartChar: uni01B1
Encoding: 433 433 320
Width: 852
GlyphClass: 2
Flags: W
AnchorPoint: "Anchor-3" 426 700 basechar 0
AnchorPoint: "Anchor-0" 426 0 basechar 0
LayerCount: 2
Fore
SplineSet
839 700 m 1,0,-1
 839 654 l 1,1,-1
 623 654 l 1,2,3
 705 601 705 601 747.5 519.5 c 128,-1,4
 790 438 790 438 790 346 c 0,5,6
 790 270 790 270 762.5 206 c 128,-1,7
 735 142 735 142 685.5 94.5 c 128,-1,8
 636 47 636 47 570 21 c 128,-1,9
 504 -5 504 -5 426 -5 c 256,10,11
 348 -5 348 -5 282 21 c 128,-1,12
 216 47 216 47 166.5 94.5 c 128,-1,13
 117 142 117 142 89.5 206 c 128,-1,14
 62 270 62 270 62 346 c 0,15,16
 62 438 62 438 104.5 519.5 c 128,-1,17
 147 601 147 601 229 654 c 1,18,-1
 13 654 l 1,19,-1
 13 700 l 1,20,-1
 313 700 l 1,21,-1
 313 657 l 1,22,23
 215 606 215 606 164.5 524.5 c 128,-1,24
 114 443 114 443 114 348 c 0,25,26
 114 282 114 282 137.5 226 c 128,-1,27
 161 170 161 170 203 128.5 c 128,-1,28
 245 87 245 87 302 64.5 c 128,-1,29
 359 42 359 42 426 42 c 256,30,31
 493 42 493 42 550 64.5 c 128,-1,32
 607 87 607 87 649 128.5 c 128,-1,33
 691 170 691 170 714.5 226 c 128,-1,34
 738 282 738 282 738 348 c 0,35,36
 738 443 738 443 687.5 524.5 c 128,-1,37
 637 606 637 606 539 657 c 1,38,-1
 539 700 l 1,39,-1
 839 700 l 1,0,-1
EndSplineSet
Validated: 1
Substitution2: "'c2sc' Capitals to Small Capitals lookup 45 subtable" uni028A.sc
Substitution2: "'aalt' Access All Alternates lookup 0 subtable" uni028A.sc
EndChar

StartChar: V
Encoding: 86 86 325
Width: 687
GlyphClass: 2
Flags: W
AnchorPoint: "Anchor-3" 343 700 basechar 0
AnchorPoint: "Anchor-2" 369 0 basechar 0
AnchorPoint: "Anchor-0" 343 0 basechar 0
LayerCount: 2
Fore
SplineSet
318 0 m 1,0,-1
 6 700 l 1,1,-1
 62 700 l 1,2,-1
 360 31 l 1,3,-1
 329 31 l 1,4,-1
 628 700 l 1,5,-1
 681 700 l 1,6,-1
 369 0 l 1,7,-1
 318 0 l 1,0,-1
EndSplineSet
Validated: 5
Substitution2: "'c2sc' Capitals to Small Capitals lookup 45 subtable" v.sc
Substitution2: "'aalt' Access All Alternates lookup 0 subtable" v.sc
EndChar

StartChar: uni0194
Encoding: 404 404 326
Width: 625
GlyphClass: 2
Flags: W
AnchorPoint: "Anchor-3" 312 700 basechar 0
AnchorPoint: "Anchor-1" 311 244 basechar 0
AnchorPoint: "Anchor-0" 312 0 basechar 0
LayerCount: 2
Fore
SplineSet
309 -199 m 256,0,1
 281 -199 281 -199 257.5 -186.5 c 128,-1,2
 234 -174 234 -174 219.5 -150.5 c 128,-1,3
 205 -127 205 -127 205 -97 c 0,4,5
 205 -70 205 -70 216 -38.5 c 128,-1,6
 227 -7 227 -7 243.5 25.5 c 128,-1,7
 260 58 260 58 276.5 87 c 128,-1,8
 293 116 293 116 303 138 c 2,9,-1
 571 700 l 1,10,-1
 624 700 l 1,11,-1
 338 100 l 2,12,13
 328 80 328 80 313 54.5 c 128,-1,14
 298 29 298 29 283 2.5 c 128,-1,15
 268 -24 268 -24 258 -49.5 c 128,-1,16
 248 -75 248 -75 248 -96 c 0,17,18
 248 -125 248 -125 266.5 -141.5 c 128,-1,19
 285 -158 285 -158 309 -158 c 0,20,21
 332 -158 332 -158 351 -141.5 c 128,-1,22
 370 -125 370 -125 370 -96 c 0,23,24
 370 -76 370 -76 361.5 -51.5 c 128,-1,25
 353 -27 353 -27 340.5 0 c 128,-1,26
 328 27 328 27 314 53 c 128,-1,27
 300 79 300 79 290 101 c 2,28,-1
 2 700 l 1,29,-1
 59 700 l 1,30,-1
 326 138 l 2,31,32
 336 116 336 116 350.5 87.5 c 128,-1,33
 365 59 365 59 379.5 26.5 c 128,-1,34
 394 -6 394 -6 403.5 -37 c 128,-1,35
 413 -68 413 -68 413 -95 c 0,36,37
 413 -126 413 -126 398.5 -149.5 c 128,-1,38
 384 -173 384 -173 360.5 -186 c 128,-1,39
 337 -199 337 -199 309 -199 c 256,0,1
EndSplineSet
Validated: 5
Substitution2: "'c2sc' Capitals to Small Capitals lookup 45 subtable" uni0263.sc
Substitution2: "'aalt' Access All Alternates lookup 0 subtable" uni0263.sc
EndChar

StartChar: uni01B2
Encoding: 434 434 328
Width: 784
GlyphClass: 2
Flags: W
AnchorPoint: "Anchor-4" 665 700 basechar 0
AnchorPoint: "Anchor-3" 395 700 basechar 0
AnchorPoint: "Anchor-2" 586 0 basechar 0
AnchorPoint: "Anchor-0" 395 0 basechar 0
LayerCount: 2
Fore
SplineSet
394 -5 m 0,0,1
 264 -5 264 -5 189 71 c 128,-1,2
 114 147 114 147 114 297 c 2,3,-1
 114 700 l 1,4,-1
 165 700 l 1,5,-1
 165 299 l 2,6,7
 165 168 165 168 225 105 c 128,-1,8
 285 42 285 42 395 42 c 0,9,10
 504 42 504 42 564 105 c 128,-1,11
 624 168 624 168 624 299 c 2,12,-1
 624 559 l 2,13,14
 624 602 624 602 606.5 627.5 c 128,-1,15
 589 653 589 653 561.5 661.5 c 128,-1,16
 534 670 534 670 503 662.5 c 128,-1,17
 472 655 472 655 446 634 c 1,18,-1
 425 672 l 1,19,20
 459 700 459 700 501.5 708.5 c 128,-1,21
 544 717 544 717 584 704.5 c 128,-1,22
 624 692 624 692 649.5 657 c 128,-1,23
 675 622 675 622 675 561 c 2,24,-1
 675 297 l 2,25,26
 675 147 675 147 600 71 c 128,-1,27
 525 -5 525 -5 394 -5 c 0,0,1
EndSplineSet
Validated: 33
Substitution2: "'c2sc' Capitals to Small Capitals lookup 45 subtable" uni028B.sc
Substitution2: "'locl' Localized Forms in Latin lookup 18 subtable" uni01B2.loclTOD0
AlternateSubs2: "'aalt' Access All Alternates lookup 1 subtable" uni01B2.loclTOD0 uni028B.sc
EndChar

StartChar: uni0245
Encoding: 581 581 330
Width: 687
GlyphClass: 2
Flags: W
AnchorPoint: "Anchor-3" 343 700 basechar 0
AnchorPoint: "Anchor-2" 681 0 basechar 0
AnchorPoint: "Anchor-0" 343 0 basechar 0
LayerCount: 2
Fore
SplineSet
369 700 m 1,0,-1
 681 0 l 1,1,-1
 624 0 l 1,2,-1
 327 669 l 1,3,-1
 357 669 l 1,4,-1
 59 0 l 1,5,-1
 6 0 l 1,6,-1
 318 700 l 1,7,-1
 369 700 l 1,0,-1
EndSplineSet
Validated: 5
Substitution2: "'c2sc' Capitals to Small Capitals lookup 45 subtable" uni028C.sc
Substitution2: "'aalt' Access All Alternates lookup 0 subtable" uni028C.sc
EndChar

StartChar: W
Encoding: 87 87 331
Width: 1098
GlyphClass: 2
Flags: W
AnchorPoint: "Anchor-3" 549 700 basechar 0
AnchorPoint: "Anchor-0" 549 0 basechar 0
LayerCount: 2
Fore
SplineSet
278 0 m 1,0,-1
 40 700 l 1,1,-1
 94 700 l 1,2,-1
 320 31 l 1,3,-1
 293 31 l 1,4,-1
 526 700 l 1,5,-1
 575 700 l 1,6,-1
 806 31 l 1,7,-1
 780 31 l 1,8,-1
 1008 700 l 1,9,-1
 1058 700 l 1,10,-1
 821 0 l 1,11,-1
 767 0 l 1,12,-1
 543 647 l 1,13,-1
 556 647 l 1,14,-1
 332 0 l 1,15,-1
 278 0 l 1,0,-1
EndSplineSet
Validated: 5
Substitution2: "'ss01' Style Set 1 lookup 50 subtable" W.ss01
Substitution2: "'c2sc' Capitals to Small Capitals lookup 45 subtable" w.sc
AlternateSubs2: "'aalt' Access All Alternates lookup 1 subtable" w.sc W.ss01
EndChar

StartChar: uni2C72
Encoding: 11378 11378 338
Width: 1128
GlyphClass: 2
Flags: W
AnchorPoint: "Anchor-3" 549 700 basechar 0
AnchorPoint: "Anchor-0" 549 0 basechar 0
LayerCount: 2
Fore
SplineSet
278 0 m 1,0,-1
 40 700 l 1,1,-1
 94 700 l 1,2,-1
 320 31 l 1,3,-1
 293 31 l 1,4,-1
 526 700 l 1,5,-1
 575 700 l 1,6,-1
 797 31 l 1,7,-1
 772 31 l 1,8,-1
 979 639 l 2,9,10
 993 680 993 680 1015 704 c 128,-1,11
 1037 728 1037 728 1064.5 738 c 128,-1,12
 1092 748 1092 748 1121.5 745 c 128,-1,13
 1151 742 1151 742 1177 727 c 1,14,-1
 1156 688 l 1,15,16
 1120 707 1120 707 1082 694 c 128,-1,17
 1044 681 1044 681 1024 624 c 2,18,-1
 813 0 l 1,19,-1
 758 0 l 1,20,-1
 543 647 l 1,21,-1
 556 647 l 1,22,-1
 332 0 l 1,23,-1
 278 0 l 1,0,-1
EndSplineSet
Validated: 37
Substitution2: "'ss01' Style Set 1 lookup 50 subtable" uni2C72.ss01
Substitution2: "'c2sc' Capitals to Small Capitals lookup 45 subtable" uni2C73.sc
AlternateSubs2: "'aalt' Access All Alternates lookup 1 subtable" uni2C73.sc uni2C72.ss01
EndChar

StartChar: X
Encoding: 88 88 339
Width: 642
GlyphClass: 2
Flags: W
AnchorPoint: "Anchor-3" 321 700 basechar 0
AnchorPoint: "Anchor-0" 321 0 basechar 0
LayerCount: 2
Fore
SplineSet
20 0 m 1,0,-1
 304 381 l 1,1,-1
 304 341 l 1,2,-1
 39 700 l 1,3,-1
 99 700 l 1,4,-1
 333 384 l 1,5,-1
 311 384 l 1,6,-1
 545 700 l 1,7,-1
 602 700 l 1,8,-1
 339 345 l 1,9,-1
 339 379 l 1,10,-1
 621 0 l 1,11,-1
 561 0 l 1,12,-1
 309 338 l 1,13,-1
 330 338 l 1,14,-1
 80 0 l 1,15,-1
 20 0 l 1,0,-1
EndSplineSet
Validated: 5
Substitution2: "'c2sc' Capitals to Small Capitals lookup 45 subtable" x.sc
Substitution2: "'aalt' Access All Alternates lookup 0 subtable" x.sc
EndChar

StartChar: Y
Encoding: 89 89 342
Width: 625
GlyphClass: 2
Flags: W
AnchorPoint: "Anchor-3" 312 700 basechar 0
AnchorPoint: "Anchor-2" 338 0 basechar 0
AnchorPoint: "Anchor-1" 311 244 basechar 0
AnchorPoint: "Anchor-0" 312 0 basechar 0
LayerCount: 2
Fore
SplineSet
287 0 m 1,0,-1
 287 254 l 1,1,-1
 299 221 l 1,2,-1
 5 700 l 1,3,-1
 61 700 l 1,4,-1
 328 265 l 1,5,-1
 300 265 l 1,6,-1
 567 700 l 1,7,-1
 620 700 l 1,8,-1
 326 221 l 1,9,-1
 338 254 l 1,10,-1
 338 0 l 1,11,-1
 287 0 l 1,0,-1
EndSplineSet
Validated: 5
Substitution2: "'ss01' Style Set 1 lookup 50 subtable" Y.ss01
Substitution2: "'c2sc' Capitals to Small Capitals lookup 45 subtable" y.sc
AlternateSubs2: "'aalt' Access All Alternates lookup 1 subtable" y.sc Y.ss01
EndChar

StartChar: uni01B3
Encoding: 435 435 349
Width: 677
GlyphClass: 2
Flags: W
AnchorPoint: "Anchor-3" 312 700 basechar 0
AnchorPoint: "Anchor-1" 311 244 basechar 0
AnchorPoint: "Anchor-0" 312 0 basechar 0
LayerCount: 2
Fore
SplineSet
741 719 m 1,0,-1
 715 682 l 1,1,2
 685 704 685 704 648.5 697 c 128,-1,3
 612 690 612 690 581 639 c 2,4,-1
 326 221 l 1,5,-1
 338 254 l 1,6,-1
 338 0 l 1,7,-1
 287 0 l 1,8,-1
 287 254 l 1,9,-1
 299 221 l 1,10,-1
 5 700 l 1,11,-1
 61 700 l 1,12,-1
 328 265 l 1,13,-1
 300 265 l 1,14,-1
 544 664 l 2,15,16
 572 710 572 710 606.5 728.5 c 128,-1,17
 641 747 641 747 676 743.5 c 128,-1,18
 711 740 711 740 741 719 c 1,0,-1
EndSplineSet
Validated: 37
Substitution2: "'ss01' Style Set 1 lookup 50 subtable" uni01B3.ss01
Substitution2: "'c2sc' Capitals to Small Capitals lookup 45 subtable" uni01B4.sc
AlternateSubs2: "'aalt' Access All Alternates lookup 1 subtable" uni01B4.sc uni01B3.ss01
EndChar

StartChar: uni01A6
Encoding: 422 422 352
Width: 720
GlyphClass: 2
Flags: W
AnchorPoint: "Anchor-3" 366 700 basechar 0
AnchorPoint: "Anchor-0" 366 0 basechar 0
LayerCount: 2
Fore
SplineSet
150 153 m 1,0,-1
 150 198 l 1,1,-1
 373 198 l 2,2,3
 486 198 486 198 544.5 248 c 128,-1,4
 603 298 603 298 603 388 c 0,5,6
 603 479 603 479 544.5 528.5 c 128,-1,7
 486 578 486 578 373 578 c 2,8,-1
 150 578 l 1,9,-1
 150 623 l 1,10,-1
 373 623 l 2,11,12
 505 623 505 623 580 561 c 128,-1,13
 655 499 655 499 655 388 c 0,14,15
 655 314 655 314 621 261.5 c 128,-1,16
 587 209 587 209 524 181 c 128,-1,17
 461 153 461 153 373 153 c 2,18,-1
 150 153 l 1,0,-1
122 0 m 1,19,-1
 122 700 l 1,20,-1
 173 700 l 1,21,-1
 173 0 l 1,22,-1
 122 0 l 1,19,-1
608 -100 m 1,23,-1
 413 171 l 1,24,-1
 471 171 l 1,25,-1
 666 -100 l 1,26,-1
 608 -100 l 1,23,-1
EndSplineSet
Validated: 5
Substitution2: "'c2sc' Capitals to Small Capitals lookup 45 subtable" uni0280.sc
Substitution2: "'aalt' Access All Alternates lookup 0 subtable" uni0280.sc
EndChar

StartChar: uni024E
Encoding: 590 590 353
Width: 633
GlyphClass: 2
Flags: W
AnchorPoint: "Anchor-3" 316 700 basechar 0
AnchorPoint: "Anchor-1" 315 244 basechar 0
AnchorPoint: "Anchor-0" 316 0 basechar 0
LayerCount: 2
Fore
SplineSet
291 0 m 1,0,-1
 291 241 l 1,1,-1
 303 207 l 1,2,-1
 9 700 l 1,3,-1
 65 700 l 1,4,-1
 332 252 l 1,5,-1
 304 252 l 1,6,-1
 571 700 l 1,7,-1
 624 700 l 1,8,-1
 330 207 l 1,9,-1
 342 241 l 1,10,-1
 342 0 l 1,11,-1
 291 0 l 1,0,-1
1 520 m 1,12,-1
 1 562 l 1,13,-1
 632 562 l 1,14,-1
 632 520 l 1,15,-1
 1 520 l 1,12,-1
EndSplineSet
Validated: 5
Substitution2: "'ss01' Style Set 1 lookup 50 subtable" uni024E.ss01
Substitution2: "'c2sc' Capitals to Small Capitals lookup 45 subtable" uni024F.sc
AlternateSubs2: "'aalt' Access All Alternates lookup 1 subtable" uni024F.sc uni024E.ss01
EndChar

StartChar: Z
Encoding: 90 90 355
Width: 646
GlyphClass: 2
Flags: W
AnchorPoint: "Anchor-3" 329 700 basechar 0
AnchorPoint: "Anchor-2" 611 0 basechar 0
AnchorPoint: "Anchor-0" 338 0 basechar 0
LayerCount: 2
Fore
SplineSet
47 0 m 1,0,-1
 47 36 l 1,1,-1
 546 674 l 1,2,-1
 551 654 l 1,3,-1
 53 654 l 1,4,-1
 53 700 l 1,5,-1
 600 700 l 1,6,-1
 600 664 l 1,7,-1
 102 26 l 1,8,-1
 96 46 l 1,9,-1
 611 46 l 1,10,-1
 611 0 l 1,11,-1
 47 0 l 1,0,-1
EndSplineSet
Validated: 5
Substitution2: "'ss01' Style Set 1 lookup 50 subtable" Z.ss01
Substitution2: "'c2sc' Capitals to Small Capitals lookup 45 subtable" z.sc
AlternateSubs2: "'aalt' Access All Alternates lookup 1 subtable" z.sc Z.ss01
EndChar

StartChar: uni01B5
Encoding: 437 437 362
Width: 646
GlyphClass: 2
Flags: W
AnchorPoint: "Anchor-3" 329 700 basechar 0
AnchorPoint: "Anchor-0" 338 0 basechar 0
LayerCount: 2
Fore
SplineSet
47 0 m 1,0,-1
 47 36 l 1,1,-1
 546 674 l 1,2,-1
 551 654 l 1,3,-1
 53 654 l 1,4,-1
 53 700 l 1,5,-1
 600 700 l 1,6,-1
 600 664 l 1,7,-1
 102 26 l 1,8,-1
 96 46 l 1,9,-1
 611 46 l 1,10,-1
 611 0 l 1,11,-1
 47 0 l 1,0,-1
134 335 m 1,12,-1
 134 377 l 1,13,-1
 523 377 l 1,14,-1
 523 335 l 1,15,-1
 134 335 l 1,12,-1
EndSplineSet
Validated: 5
Substitution2: "'c2sc' Capitals to Small Capitals lookup 45 subtable" uni01B6.sc
Substitution2: "'aalt' Access All Alternates lookup 0 subtable" uni01B6.sc
EndChar

StartChar: uniA78B
Encoding: 42891 42891 363
Width: 228
GlyphClass: 1
Flags: W
LayerCount: 2
Fore
SplineSet
88 298 m 1,0,-1
 88 700 l 1,1,-1
 139 700 l 1,2,-1
 135 298 l 1,3,-1
 88 298 l 1,0,-1
EndSplineSet
Validated: 1
Substitution2: "'c2sc' Capitals to Small Capitals lookup 45 subtable" uniA78C.sc
Substitution2: "'aalt' Access All Alternates lookup 0 subtable" uniA78C.sc
EndChar

StartChar: uni0295.case
Encoding: 65538 -1 364
Width: 590
GlyphClass: 2
Flags: W
AnchorPoint: "Anchor-3" 314 700 basechar 0
AnchorPoint: "Anchor-0" 314 0 basechar 0
LayerCount: 2
Fore
SplineSet
340 0 m 1,0,-1
 289 0 l 1,1,-1
 289 147 l 2,2,3
 289 191 289 191 270.5 221.5 c 128,-1,4
 252 252 252 252 224 275 c 128,-1,5
 196 298 196 298 164 318.5 c 128,-1,6
 132 339 132 339 104 363.5 c 128,-1,7
 76 388 76 388 57.5 421.5 c 128,-1,8
 39 455 39 455 39 504 c 0,9,10
 39 556 39 556 61 594.5 c 128,-1,11
 83 633 83 633 120.5 657.5 c 128,-1,12
 158 682 158 682 205 693.5 c 128,-1,13
 252 705 252 705 303 705 c 0,14,15
 359 705 359 705 412.5 691 c 128,-1,16
 466 677 466 677 511 649.5 c 128,-1,17
 556 622 556 622 586 579 c 1,18,-1
 545 549 l 1,19,20
 521 587 521 587 482 611.5 c 128,-1,21
 443 636 443 636 396.5 647.5 c 128,-1,22
 350 659 350 659 303 659 c 0,23,24
 250 659 250 659 201 643.5 c 128,-1,25
 152 628 152 628 121.5 594 c 128,-1,26
 91 560 91 560 91 503 c 0,27,28
 91 461 91 461 109 431.5 c 128,-1,29
 127 402 127 402 155.5 381 c 128,-1,30
 184 360 184 360 215.5 340 c 128,-1,31
 247 320 247 320 275.5 295.5 c 128,-1,32
 304 271 304 271 322 236 c 128,-1,33
 340 201 340 201 340 149 c 2,34,-1
 340 0 l 1,0,-1
EndSplineSet
Validated: 1
EndChar

StartChar: uni01B2.loclTOD0
Encoding: 65548 -1 374
Width: 733
GlyphClass: 2
Flags: W
AnchorPoint: "Anchor-3" 343 700 basechar 0
AnchorPoint: "Anchor-0" 343 0 basechar 0
LayerCount: 2
Fore
SplineSet
318 0 m 1,0,-1
 6 700 l 1,1,-1
 62 700 l 1,2,-1
 353 44 l 1,3,-1
 335 44 l 1,4,-1
 596 639 l 2,5,6
 613 678 613 678 636 702 c 128,-1,7
 659 726 659 726 685.5 736.5 c 128,-1,8
 712 747 712 747 740 744.5 c 128,-1,9
 768 742 768 742 794 727 c 1,10,-1
 773 688 l 1,11,12
 737 707 737 707 701 693 c 128,-1,13
 665 679 665 679 641 624 c 2,14,-1
 369 0 l 1,15,-1
 318 0 l 1,0,-1
EndSplineSet
Validated: 37
Substitution2: "'ss01' Style Set 1 lookup 50 subtable" uni01B2.loclTOD0.ss01
Substitution2: "'c2sc' Capitals to Small Capitals lookup 45 subtable" uni01B2.loclTOD0.sc
AlternateSubs2: "'aalt' Access All Alternates lookup 1 subtable" uni01B2.loclTOD0.sc uni01B2.loclTOD0.ss01
EndChar

StartChar: uni0181.loclXPE
Encoding: 65549 -1 375
Width: 735
GlyphClass: 1
Flags: W
LayerCount: 2
Fore
SplineSet
131 57 m 1,0,-1
 131 700 l 1,1,-1
 610 700 l 1,2,-1
 610 655 l 1,3,-1
 182 655 l 1,4,-1
 182 75 l 1,5,-1
 131 57 l 1,0,-1
396 -7 m 0,6,7
 322 -7 322 -7 250.5 11 c 128,-1,8
 179 29 179 29 131 57 c 1,9,-1
 175 89 l 1,10,11
 195 75 195 75 229.5 63.5 c 128,-1,12
 264 52 264 52 307 45 c 128,-1,13
 350 38 350 38 394 38 c 0,14,15
 437 38 437 38 477.5 46.5 c 128,-1,16
 518 55 518 55 550.5 73.5 c 128,-1,17
 583 92 583 92 602 124 c 128,-1,18
 621 156 621 156 621 202 c 0,19,20
 621 262 621 262 590.5 298.5 c 128,-1,21
 560 335 560 335 511 352 c 128,-1,22
 462 369 462 369 404 369 c 0,23,24
 344 369 344 369 283 352.5 c 128,-1,25
 222 336 222 336 175 308 c 1,26,-1
 165 347 l 1,27,28
 216 379 216 379 280.5 395.5 c 128,-1,29
 345 412 345 412 408 412 c 0,30,31
 460 412 460 412 507.5 400.5 c 128,-1,32
 555 389 555 389 592.5 363.5 c 128,-1,33
 630 338 630 338 651.5 298.5 c 128,-1,34
 673 259 673 259 673 202 c 256,35,36
 673 145 673 145 650 104.5 c 128,-1,37
 627 64 627 64 588 39.5 c 128,-1,38
 549 15 549 15 499.5 4 c 128,-1,39
 450 -7 450 -7 396 -7 c 0,6,7
EndSplineSet
Validated: 5
EndChar

StartChar: A.ss01
Encoding: 65550 -1 376
Width: 802
GlyphClass: 2
Flags: W
AnchorPoint: "Anchor-3" 401 700 basechar 0
AnchorPoint: "Anchor-2" 686 0 basechar 0
AnchorPoint: "Anchor-0" 401 0 basechar 0
LayerCount: 2
Fore
SplineSet
116 0 m 1,0,-1
 116 401 l 2,1,2
 116 502 116 502 151.5 570 c 128,-1,3
 187 638 187 638 251 671.5 c 128,-1,4
 315 705 315 705 401 705 c 0,5,6
 488 705 488 705 552 671.5 c 128,-1,7
 616 638 616 638 651 570 c 128,-1,8
 686 502 686 502 686 401 c 2,9,-1
 686 0 l 1,10,-1
 635 0 l 1,11,-1
 635 406 l 2,12,13
 635 533 635 533 572.5 595.5 c 128,-1,14
 510 658 510 658 401 658 c 256,15,16
 292 658 292 658 229.5 595.5 c 128,-1,17
 167 533 167 533 167 406 c 2,18,-1
 167 0 l 1,19,-1
 116 0 l 1,0,-1
149 216 m 1,20,-1
 149 262 l 1,21,-1
 655 262 l 1,22,-1
 655 216 l 1,23,-1
 149 216 l 1,20,-1
EndSplineSet
Validated: 5
EndChar

StartChar: uni023A.ss01
Encoding: 65579 -1 405
Width: 802
GlyphClass: 2
Flags: W
AnchorPoint: "Anchor-3" 401 700 basechar 0
AnchorPoint: "Anchor-2" 686 0 basechar 0
AnchorPoint: "Anchor-0" 401 0 basechar 0
LayerCount: 2
Fore
SplineSet
116 0 m 1,0,-1
 116 401 l 2,1,2
 116 502 116 502 151.5 570 c 128,-1,3
 187 638 187 638 251 671.5 c 128,-1,4
 315 705 315 705 401 705 c 0,5,6
 488 705 488 705 552 671.5 c 128,-1,7
 616 638 616 638 651 570 c 128,-1,8
 686 502 686 502 686 401 c 2,9,-1
 686 0 l 1,10,-1
 635 0 l 1,11,-1
 635 406 l 2,12,13
 635 533 635 533 572.5 595.5 c 128,-1,14
 510 658 510 658 401 658 c 256,15,16
 292 658 292 658 229.5 595.5 c 128,-1,17
 167 533 167 533 167 406 c 2,18,-1
 167 0 l 1,19,-1
 116 0 l 1,0,-1
149 216 m 1,20,-1
 149 262 l 1,21,-1
 655 262 l 1,22,-1
 655 216 l 1,23,-1
 149 216 l 1,20,-1
204 -70 m 1,24,-1
 589 770 l 1,25,-1
 634 770 l 1,26,-1
 249 -70 l 1,27,-1
 204 -70 l 1,24,-1
EndSplineSet
Validated: 5
EndChar

StartChar: uni2C6F.ss01
Encoding: 65581 -1 407
Width: 802
GlyphClass: 2
Flags: W
AnchorPoint: "Anchor-3" 401 700 basechar 0
AnchorPoint: "Anchor-0" 401 0 basechar 0
LayerCount: 2
Fore
SplineSet
686 700 m 1,0,-1
 686 299 l 2,1,2
 686 198 686 198 651 130.5 c 128,-1,3
 616 63 616 63 552 29 c 128,-1,4
 488 -5 488 -5 401 -5 c 0,5,6
 315 -5 315 -5 251 29 c 128,-1,7
 187 63 187 63 151.5 130.5 c 128,-1,8
 116 198 116 198 116 299 c 2,9,-1
 116 700 l 1,10,-1
 167 700 l 1,11,-1
 167 294 l 2,12,13
 167 167 167 167 230 104.5 c 128,-1,14
 293 42 293 42 401 42 c 0,15,16
 510 42 510 42 573 104.5 c 128,-1,17
 636 167 636 167 636 294 c 2,18,-1
 636 700 l 1,19,-1
 686 700 l 1,0,-1
653 484 m 1,20,-1
 653 438 l 1,21,-1
 148 438 l 1,22,-1
 148 484 l 1,23,-1
 653 484 l 1,20,-1
EndSplineSet
Validated: 5
EndChar

StartChar: AE.ss01
Encoding: 65582 -1 408
Width: 1065
GlyphClass: 2
Flags: W
AnchorPoint: "Anchor-3" 527 700 basechar 0
AnchorPoint: "Anchor-0" 527 0 basechar 0
LayerCount: 2
Fore
SplineSet
541 0 m 1,0,-1
 541 700 l 1,1,-1
 1009 700 l 1,2,-1
 1009 655 l 1,3,-1
 592 655 l 1,4,-1
 592 377 l 1,5,-1
 965 377 l 1,6,-1
 965 334 l 1,7,-1
 592 334 l 1,8,-1
 592 45 l 1,9,-1
 1024 45 l 1,10,-1
 1024 0 l 1,11,-1
 541 0 l 1,0,-1
139 226 m 1,12,-1
 139 271 l 1,13,-1
 567 271 l 1,14,-1
 567 226 l 1,15,-1
 139 226 l 1,12,-1
105 0 m 1,16,-1
 105 400 l 2,17,18
 105 543 105 543 177 621.5 c 128,-1,19
 249 700 249 700 381 700 c 2,20,-1
 567 700 l 1,21,-1
 567 653 l 1,22,-1
 384 653 l 2,23,24
 274 653 274 653 215.5 587.5 c 128,-1,25
 157 522 157 522 157 399 c 2,26,-1
 157 0 l 1,27,-1
 105 0 l 1,16,-1
EndSplineSet
Validated: 5
EndChar

StartChar: E.ss01
Encoding: 65589 -1 415
Width: 626
GlyphClass: 2
Flags: W
AnchorPoint: "Anchor-3" 342 700 basechar 0
AnchorPoint: "Anchor-2" 575 0 basechar 0
AnchorPoint: "Anchor-0" 342 0 basechar 0
LayerCount: 2
Fore
SplineSet
334 -5 m 0,0,1
 243 -5 243 -5 182 20 c 128,-1,2
 121 45 121 45 90 88.5 c 128,-1,3
 59 132 59 132 59 187 c 0,4,5
 59 245 59 245 88.5 284.5 c 128,-1,6
 118 324 118 324 168 344.5 c 128,-1,7
 218 365 218 365 279 365 c 1,8,-1
 283 346 l 1,9,10
 223 346 223 346 179.5 367.5 c 128,-1,11
 136 389 136 389 112.5 428 c 128,-1,12
 89 467 89 467 89 517 c 0,13,14
 89 569 89 569 118 611.5 c 128,-1,15
 147 654 147 654 205 679.5 c 128,-1,16
 263 705 263 705 349 705 c 0,17,18
 412 705 412 705 471 690 c 128,-1,19
 530 675 530 675 572 647 c 1,20,-1
 555 606 l 1,21,22
 510 633 510 633 458.5 646.5 c 128,-1,23
 407 660 407 660 351 660 c 0,24,25
 246 660 246 660 193.5 618 c 128,-1,26
 141 576 141 576 141 514 c 0,27,28
 141 449 141 449 186.5 413.5 c 128,-1,29
 232 378 232 378 313 378 c 2,30,-1
 483 378 l 1,31,-1
 483 332 l 1,32,-1
 311 332 l 2,33,34
 253 332 253 332 207.5 317 c 128,-1,35
 162 302 162 302 136.5 270.5 c 128,-1,36
 111 239 111 239 111 190 c 0,37,38
 111 124 111 124 166.5 82 c 128,-1,39
 222 40 222 40 336 40 c 0,40,41
 413 40 413 40 477.5 62 c 128,-1,42
 542 84 542 84 582 123 c 1,43,-1
 604 85 l 1,44,45
 562 42 562 42 491.5 18.5 c 128,-1,46
 421 -5 421 -5 334 -5 c 0,0,1
EndSplineSet
Validated: 5
EndChar

StartChar: Eogonek.ss01
Encoding: 65612 -1 438
Width: 626
GlyphClass: 2
Flags: W
AnchorPoint: "Anchor-3" 342 700 basechar 0
AnchorPoint: "Anchor-0" 342 0 basechar 0
LayerCount: 2
Fore
SplineSet
514 -217 m 0,0,1
 468 -217 468 -217 440 -192 c 128,-1,2
 412 -167 412 -167 412 -126 c 0,3,4
 412 -91 412 -91 430.5 -50.5 c 128,-1,5
 449 -10 449 -10 502 37 c 1,6,-1
 509 27 l 1,7,8
 470 11 470 11 427 3 c 128,-1,9
 384 -5 384 -5 334 -5 c 0,10,11
 243 -5 243 -5 182 20 c 128,-1,12
 121 45 121 45 90 88.5 c 128,-1,13
 59 132 59 132 59 187 c 0,14,15
 59 245 59 245 88.5 284.5 c 128,-1,16
 118 324 118 324 168 344.5 c 128,-1,17
 218 365 218 365 279 365 c 1,18,-1
 283 346 l 1,19,20
 223 346 223 346 179.5 367.5 c 128,-1,21
 136 389 136 389 112.5 428 c 128,-1,22
 89 467 89 467 89 517 c 0,23,24
 89 569 89 569 118 611.5 c 128,-1,25
 147 654 147 654 205 679.5 c 128,-1,26
 263 705 263 705 349 705 c 0,27,28
 412 705 412 705 471 690 c 128,-1,29
 530 675 530 675 572 647 c 1,30,-1
 555 606 l 1,31,32
 510 633 510 633 458.5 646.5 c 128,-1,33
 407 660 407 660 351 660 c 0,34,35
 246 660 246 660 193.5 618 c 128,-1,36
 141 576 141 576 141 514 c 0,37,38
 141 449 141 449 186.5 413.5 c 128,-1,39
 232 378 232 378 313 378 c 2,40,-1
 483 378 l 1,41,-1
 483 332 l 1,42,-1
 311 332 l 2,43,44
 253 332 253 332 207.5 317 c 128,-1,45
 162 302 162 302 136.5 270.5 c 128,-1,46
 111 239 111 239 111 190 c 0,47,48
 111 124 111 124 166.5 82 c 128,-1,49
 222 40 222 40 336 40 c 0,50,51
 413 40 413 40 477.5 63.5 c 128,-1,52
 542 87 542 87 582 123 c 1,53,-1
 604 83 l 1,54,55
 540 34 540 34 507 -4 c 128,-1,56
 474 -42 474 -42 462.5 -71 c 128,-1,57
 451 -100 451 -100 451 -122 c 0,58,59
 451 -152 451 -152 470 -168 c 128,-1,60
 489 -184 489 -184 519 -184 c 0,61,62
 535 -184 535 -184 551.5 -178.5 c 128,-1,63
 568 -173 568 -173 580 -163 c 1,64,-1
 594 -192 l 1,65,66
 577 -204 577 -204 557 -210.5 c 128,-1,67
 537 -217 537 -217 514 -217 c 0,0,1
EndSplineSet
Validated: 5
EndChar

StartChar: uni0246.ss01
Encoding: 65613 -1 439
Width: 626
GlyphClass: 2
Flags: W
AnchorPoint: "Anchor-3" 331 700 basechar 0
AnchorPoint: "Anchor-2" 391 0 basechar 0
AnchorPoint: "Anchor-0" 331 0 basechar 0
LayerCount: 2
Fore
SplineSet
334 -5 m 0,0,1
 243 -5 243 -5 182 20 c 128,-1,2
 121 45 121 45 90 88.5 c 128,-1,3
 59 132 59 132 59 187 c 0,4,5
 59 245 59 245 88.5 284.5 c 128,-1,6
 118 324 118 324 168 344.5 c 128,-1,7
 218 365 218 365 279 365 c 1,8,-1
 283 346 l 1,9,10
 223 346 223 346 179.5 367.5 c 128,-1,11
 136 389 136 389 112.5 428 c 128,-1,12
 89 467 89 467 89 517 c 0,13,14
 89 569 89 569 118 611.5 c 128,-1,15
 147 654 147 654 205 679.5 c 128,-1,16
 263 705 263 705 349 705 c 0,17,18
 412 705 412 705 471 690 c 128,-1,19
 530 675 530 675 572 647 c 1,20,-1
 555 606 l 1,21,22
 510 633 510 633 458.5 646.5 c 128,-1,23
 407 660 407 660 351 660 c 0,24,25
 246 660 246 660 193.5 618 c 128,-1,26
 141 576 141 576 141 514 c 0,27,28
 141 449 141 449 186.5 413.5 c 128,-1,29
 232 378 232 378 313 378 c 2,30,-1
 483 378 l 1,31,-1
 483 332 l 1,32,-1
 311 332 l 2,33,34
 253 332 253 332 207.5 317 c 128,-1,35
 162 302 162 302 136.5 270.5 c 128,-1,36
 111 239 111 239 111 190 c 0,37,38
 111 124 111 124 166.5 82 c 128,-1,39
 222 40 222 40 336 40 c 0,40,41
 413 40 413 40 477.5 62 c 128,-1,42
 542 84 542 84 582 123 c 1,43,-1
 604 85 l 1,44,45
 562 42 562 42 491.5 18.5 c 128,-1,46
 421 -5 421 -5 334 -5 c 0,0,1
145 -70 m 1,47,-1
 531 770 l 1,48,-1
 575 770 l 1,49,-1
 190 -70 l 1,50,-1
 145 -70 l 1,47,-1
EndSplineSet
Validated: 5
EndChar

StartChar: uni018E.ss01
Encoding: 65616 -1 442
Width: 612
GlyphClass: 2
Flags: W
AnchorPoint: "Anchor-3" 257 700 basechar 0
AnchorPoint: "Anchor-0" 257 0 basechar 0
LayerCount: 2
Fore
SplineSet
276 -5 m 0,0,1
 189 -5 189 -5 119 18.5 c 128,-1,2
 49 42 49 42 6 85 c 1,3,-1
 29 123 l 1,4,5
 69 84 69 84 133 62 c 128,-1,6
 197 40 197 40 277 40 c 0,7,8
 390 40 390 40 445 82 c 128,-1,9
 500 124 500 124 500 195 c 0,10,11
 500 245 500 245 474.5 277.5 c 128,-1,12
 449 310 449 310 404 326 c 128,-1,13
 359 342 359 342 299 342 c 2,14,-1
 145 342 l 1,15,-1
 145 386 l 1,16,-1
 298 386 l 2,17,18
 378 386 378 386 424 419.5 c 128,-1,19
 470 453 470 453 470 516 c 0,20,21
 470 565 470 565 442.5 597 c 128,-1,22
 415 629 415 629 370.5 643.5 c 128,-1,23
 326 658 326 658 273 658 c 0,24,25
 236 658 236 658 197 651 c 128,-1,26
 158 644 158 644 123 630.5 c 128,-1,27
 88 617 88 617 58 597 c 1,28,-1
 40 639 l 1,29,30
 91 671 91 671 152 687.5 c 128,-1,31
 213 704 213 704 273 704 c 0,32,33
 322 704 322 704 367 693 c 128,-1,34
 412 682 412 682 446.5 659 c 128,-1,35
 481 636 481 636 501 601.5 c 128,-1,36
 521 567 521 567 521 521 c 0,37,38
 521 472 521 472 498 434.5 c 128,-1,39
 475 397 475 397 431.5 375.5 c 128,-1,40
 388 354 388 354 328 354 c 1,41,-1
 332 373 l 1,42,43
 393 373 393 373 443 352 c 128,-1,44
 493 331 493 331 522 291 c 128,-1,45
 551 251 551 251 551 192 c 0,46,47
 551 134 551 134 520 89.5 c 128,-1,48
 489 45 489 45 428 20 c 128,-1,49
 367 -5 367 -5 276 -5 c 0,0,1
EndSplineSet
Validated: 5
EndChar

StartChar: uni018F.ss01
Encoding: 65617 -1 443
Width: 816
GlyphClass: 2
Flags: W
AnchorPoint: "Anchor-3" 408 700 basechar 0
AnchorPoint: "Anchor-2" 443 0 basechar 0
AnchorPoint: "Anchor-0" 408 0 basechar 0
LayerCount: 2
Fore
SplineSet
408 -5 m 256,0,1
 333 -5 333 -5 269 21.5 c 128,-1,2
 205 48 205 48 157 96 c 128,-1,3
 109 144 109 144 82 209 c 1,4,-1
 701 465 l 1,5,-1
 714 423 l 1,6,-1
 123 178 l 1,7,-1
 138 211 l 1,8,9
 173 133 173 133 243.5 87 c 128,-1,10
 314 41 314 41 408 41 c 0,11,12
 472 41 472 41 526.5 64 c 128,-1,13
 581 87 581 87 622.5 128.5 c 128,-1,14
 664 170 664 170 687 226 c 128,-1,15
 710 282 710 282 710 347 c 2,16,-1
 710 352 l 2,17,18
 710 418 710 418 686.5 473.5 c 128,-1,19
 663 529 663 529 620.5 570.5 c 128,-1,20
 578 612 578 612 521.5 635 c 128,-1,21
 465 658 465 658 400 658 c 0,22,23
 357 658 357 658 317 650 c 128,-1,24
 277 642 277 642 241 624 c 128,-1,25
 205 606 205 606 173 577 c 1,26,-1
 143 613 l 1,27,28
 175 644 175 644 215 664 c 128,-1,29
 255 684 255 684 302 694.5 c 128,-1,30
 349 705 349 705 400 705 c 0,31,32
 478 705 478 705 544 678.5 c 128,-1,33
 610 652 610 652 659 604 c 128,-1,34
 708 556 708 556 735 491.5 c 128,-1,35
 762 427 762 427 762 351 c 0,36,37
 762 276 762 276 735 211.5 c 128,-1,38
 708 147 708 147 659.5 98.5 c 128,-1,39
 611 50 611 50 547 22.5 c 128,-1,40
 483 -5 483 -5 408 -5 c 256,0,1
EndSplineSet
Validated: 5
EndChar

StartChar: F.ss01
Encoding: 65618 -1 444
Width: 599
GlyphClass: 2
Flags: W
AnchorPoint: "Anchor-3" 358 700 basechar 0
AnchorPoint: "Anchor-0" 358 0 basechar 0
LayerCount: 2
Fore
SplineSet
116 0 m 1,0,-1
 116 469 l 2,1,2
 116 576 116 576 182.5 640.5 c 128,-1,3
 249 705 249 705 379 705 c 0,4,5
 438 705 438 705 490.5 691 c 128,-1,6
 543 677 543 677 583 647 c 1,7,-1
 562 605 l 1,8,9
 524 633 524 633 478 645.5 c 128,-1,10
 432 658 432 658 380 658 c 0,11,12
 271 658 271 658 219 608 c 128,-1,13
 167 558 167 558 167 467 c 2,14,-1
 167 0 l 1,15,-1
 116 0 l 1,0,-1
151 309 m 1,16,-1
 151 355 l 1,17,-1
 514 355 l 1,18,-1
 514 309 l 1,19,-1
 151 309 l 1,16,-1
EndSplineSet
Validated: 5
EndChar

StartChar: uni0191.ss01
Encoding: 65620 -1 446
Width: 638
GlyphClass: 1
Flags: W
LayerCount: 2
Fore
SplineSet
-28 -169 m 1,0,-1
 -10 -129 l 1,1,2
 16 -146 16 -146 44.5 -150.5 c 128,-1,3
 73 -155 73 -155 98 -146 c 128,-1,4
 123 -137 123 -137 138.5 -115 c 128,-1,5
 154 -93 154 -93 154 -59 c 2,6,-1
 154 469 l 2,7,8
 154 576 154 576 220.5 640.5 c 128,-1,9
 287 705 287 705 417 705 c 0,10,11
 477 705 477 705 529 691 c 128,-1,12
 581 677 581 677 621 647 c 1,13,-1
 600 605 l 1,14,15
 563 633 563 633 516.5 645.5 c 128,-1,16
 470 658 470 658 418 658 c 0,17,18
 310 658 310 658 258 608 c 128,-1,19
 206 558 206 558 206 467 c 2,20,-1
 206 -62 l 2,21,22
 206 -101 206 -101 190.5 -129 c 128,-1,23
 175 -157 175 -157 150 -173.5 c 128,-1,24
 125 -190 125 -190 94 -195 c 128,-1,25
 63 -200 63 -200 31.5 -193.5 c 128,-1,26
 0 -187 0 -187 -28 -169 c 1,0,-1
189 309 m 1,27,-1
 189 355 l 1,28,-1
 552 355 l 1,29,-1
 552 309 l 1,30,-1
 189 309 l 1,27,-1
EndSplineSet
Validated: 37
EndChar

StartChar: G.ss01
Encoding: 65621 -1 447
Width: 773
GlyphClass: 2
Flags: W
AnchorPoint: "Anchor-3" 405 700 basechar 0
AnchorPoint: "Anchor-0" 403 0 basechar 0
LayerCount: 2
Fore
SplineSet
406 -5 m 0,0,1
 338 -5 338 -5 275.5 18 c 128,-1,2
 213 41 213 41 163 86 c 128,-1,3
 113 131 113 131 84 197 c 128,-1,4
 55 263 55 263 55 349 c 0,5,6
 55 426 55 426 82 490.5 c 128,-1,7
 109 555 109 555 159 603.5 c 128,-1,8
 209 652 209 652 275.5 678.5 c 128,-1,9
 342 705 342 705 422 705 c 0,10,11
 498 705 498 705 563 681 c 128,-1,12
 628 657 628 657 674 609 c 1,13,-1
 642 575 l 1,14,15
 596 620 596 620 541.5 639 c 128,-1,16
 487 658 487 658 423 658 c 0,17,18
 355 658 355 658 297 635 c 128,-1,19
 239 612 239 612 196 570 c 128,-1,20
 153 528 153 528 129.5 471.5 c 128,-1,21
 106 415 106 415 106 349 c 0,22,23
 106 275 106 275 131.5 218 c 128,-1,24
 157 161 157 161 199.5 121.5 c 128,-1,25
 242 82 242 82 296.5 61.5 c 128,-1,26
 351 41 351 41 409 41 c 0,27,28
 471 41 471 41 531.5 65 c 128,-1,29
 592 89 592 89 637 141 c 1,30,-1
 658 104 l 1,31,32
 613 49 613 49 546.5 22 c 128,-1,33
 480 -5 480 -5 406 -5 c 0,0,1
625 0 m 1,34,-1
 625 95 l 1,35,-1
 622 102 l 1,36,-1
 622 347 l 1,37,-1
 671 347 l 1,38,-1
 671 0 l 1,39,-1
 625 0 l 1,34,-1
EndSplineSet
Validated: 5
EndChar

StartChar: uni0193.ss01
Encoding: 65628 -1 454
Width: 774
GlyphClass: 2
Flags: W
AnchorPoint: "Anchor-3" 405 700 basechar 0
AnchorPoint: "Anchor-0" 403 0 basechar 0
LayerCount: 2
Fore
SplineSet
626 609 m 1,0,-1
 626 680 l 2,1,2
 626 726 626 726 642 757 c 128,-1,3
 658 788 658 788 684.5 804.5 c 128,-1,4
 711 821 711 821 744.5 822 c 128,-1,5
 778 823 778 823 812 808 c 1,6,-1
 797 767 l 1,7,8
 764 782 764 782 736 775.5 c 128,-1,9
 708 769 708 769 691 744.5 c 128,-1,10
 674 720 674 720 674 680 c 2,11,-1
 674 609 l 1,12,-1
 626 609 l 1,0,-1
406 -5 m 0,13,14
 338 -5 338 -5 275.5 18 c 128,-1,15
 213 41 213 41 163 86 c 128,-1,16
 113 131 113 131 84 197 c 128,-1,17
 55 263 55 263 55 349 c 0,18,19
 55 426 55 426 82 490.5 c 128,-1,20
 109 555 109 555 159 603.5 c 128,-1,21
 209 652 209 652 275.5 678.5 c 128,-1,22
 342 705 342 705 422 705 c 0,23,24
 498 705 498 705 563 681 c 128,-1,25
 628 657 628 657 674 609 c 1,26,-1
 642 575 l 1,27,28
 596 620 596 620 541.5 639 c 128,-1,29
 487 658 487 658 423 658 c 0,30,31
 355 658 355 658 297 635 c 128,-1,32
 239 612 239 612 196 570 c 128,-1,33
 153 528 153 528 129.5 471.5 c 128,-1,34
 106 415 106 415 106 349 c 0,35,36
 106 275 106 275 131.5 218 c 128,-1,37
 157 161 157 161 199.5 121.5 c 128,-1,38
 242 82 242 82 296.5 61.5 c 128,-1,39
 351 41 351 41 409 41 c 0,40,41
 471 41 471 41 531.5 65 c 128,-1,42
 592 89 592 89 637 141 c 1,43,-1
 658 104 l 1,44,45
 613 49 613 49 546.5 22 c 128,-1,46
 480 -5 480 -5 406 -5 c 0,13,14
625 0 m 1,47,-1
 625 95 l 1,48,-1
 622 102 l 1,49,-1
 622 347 l 1,50,-1
 671 347 l 1,51,-1
 671 0 l 1,52,-1
 625 0 l 1,47,-1
EndSplineSet
Validated: 37
EndChar

StartChar: uni01E4.ss01
Encoding: 65630 -1 456
Width: 811
GlyphClass: 2
Flags: W
AnchorPoint: "Anchor-3" 405 700 basechar 0
AnchorPoint: "Anchor-0" 403 0 basechar 0
LayerCount: 2
Fore
SplineSet
406 -5 m 0,0,1
 338 -5 338 -5 275.5 18 c 128,-1,2
 213 41 213 41 163 86 c 128,-1,3
 113 131 113 131 84 197 c 128,-1,4
 55 263 55 263 55 349 c 0,5,6
 55 426 55 426 82 490.5 c 128,-1,7
 109 555 109 555 159 603.5 c 128,-1,8
 209 652 209 652 275.5 678.5 c 128,-1,9
 342 705 342 705 422 705 c 0,10,11
 498 705 498 705 563 681 c 128,-1,12
 628 657 628 657 674 609 c 1,13,-1
 642 575 l 1,14,15
 596 620 596 620 541.5 639 c 128,-1,16
 487 658 487 658 423 658 c 0,17,18
 355 658 355 658 297 635 c 128,-1,19
 239 612 239 612 196 570 c 128,-1,20
 153 528 153 528 129.5 471.5 c 128,-1,21
 106 415 106 415 106 349 c 0,22,23
 106 275 106 275 131.5 218 c 128,-1,24
 157 161 157 161 199.5 121.5 c 128,-1,25
 242 82 242 82 296.5 61.5 c 128,-1,26
 351 41 351 41 409 41 c 0,27,28
 471 41 471 41 531.5 65 c 128,-1,29
 592 89 592 89 637 141 c 1,30,-1
 658 104 l 1,31,32
 613 49 613 49 546.5 22 c 128,-1,33
 480 -5 480 -5 406 -5 c 0,0,1
625 0 m 1,34,-1
 625 95 l 1,35,-1
 622 102 l 1,36,-1
 622 347 l 1,37,-1
 671 347 l 1,38,-1
 671 0 l 1,39,-1
 625 0 l 1,34,-1
459 218 m 1,40,-1
 459 261 l 1,41,-1
 785 261 l 1,42,-1
 785 218 l 1,43,-1
 459 218 l 1,40,-1
EndSplineSet
Validated: 5
EndChar

StartChar: I.ss01
Encoding: 65631 -1 457
Width: 435
GlyphClass: 2
Flags: W
AnchorPoint: "Anchor-3" 218 700 basechar 0
AnchorPoint: "Anchor-2" 250 0 basechar 0
AnchorPoint: "Anchor-0" 218 0 basechar 0
LayerCount: 2
Fore
SplineSet
192 12 m 1,0,-1
 192 689 l 1,1,-1
 243 689 l 1,2,-1
 243 12 l 1,3,-1
 192 12 l 1,0,-1
45 0 m 1,4,-1
 45 45 l 1,5,-1
 390 45 l 1,6,-1
 390 0 l 1,7,-1
 45 0 l 1,4,-1
45 655 m 1,8,-1
 45 700 l 1,9,-1
 390 700 l 1,10,-1
 390 655 l 1,11,-1
 45 655 l 1,8,-1
EndSplineSet
Validated: 5
EndChar

StartChar: IJ.ss01
Encoding: 65632 -1 458
Width: 716
GlyphClass: 2
Flags: W
AnchorPoint: "Anchor-3" 167 700 basechar 0
LayerCount: 2
Fore
SplineSet
327 -105 m 0,0,1
 263 -105 263 -105 206.5 -86 c 128,-1,2
 150 -67 150 -67 107 -38 c 1,3,-1
 130 4 l 1,4,5
 171 -26 171 -26 222 -42 c 128,-1,6
 273 -58 273 -58 328 -58 c 0,7,8
 432 -58 432 -58 490.5 5 c 128,-1,9
 549 68 549 68 549 197 c 2,10,-1
 549 700 l 1,11,-1
 600 700 l 1,12,-1
 600 198 l 2,13,14
 600 98 600 98 566 30.5 c 128,-1,15
 532 -37 532 -37 471 -71 c 128,-1,16
 410 -105 410 -105 327 -105 c 0,0,1
116 197 m 1,17,-1
 116 700 l 1,18,-1
 167 700 l 1,19,-1
 167 197 l 1,20,-1
 116 197 l 1,17,-1
EndSplineSet
Validated: 1
EndChar

StartChar: Iogonek.ss01
Encoding: 65645 -1 471
Width: 435
GlyphClass: 2
Flags: W
AnchorPoint: "Anchor-3" 218 700 basechar 0
AnchorPoint: "Anchor-2" 250 0 basechar 0
AnchorPoint: "Anchor-0" 218 0 basechar 0
LayerCount: 2
Fore
SplineSet
192 12 m 1,0,-1
 192 689 l 1,1,-1
 243 689 l 1,2,-1
 243 12 l 1,3,-1
 192 12 l 1,0,-1
222 -218 m 0,4,5
 196 -218 196 -218 172.5 -207.5 c 128,-1,6
 149 -197 149 -197 134 -176.5 c 128,-1,7
 119 -156 119 -156 119 -126 c 0,8,9
 119 -101 119 -101 130 -74.5 c 128,-1,10
 141 -48 141 -48 163.5 -23 c 128,-1,11
 186 2 186 2 218 23 c 1,12,-1
 242 2 l 1,13,14
 200 -25 200 -25 179 -59 c 128,-1,15
 158 -93 158 -93 158 -123 c 0,16,17
 158 -155 158 -155 179.5 -169.5 c 128,-1,18
 201 -184 201 -184 228 -184 c 0,19,20
 244 -184 244 -184 260 -178.5 c 128,-1,21
 276 -173 276 -173 289 -163 c 1,22,-1
 303 -192 l 1,23,24
 285 -205 285 -205 264 -211.5 c 128,-1,25
 243 -218 243 -218 222 -218 c 0,4,5
45 0 m 1,26,-1
 45 46 l 1,27,-1
 390 46 l 1,28,-1
 390 0 l 1,29,-1
 45 0 l 1,26,-1
45 654 m 1,30,-1
 45 700 l 1,31,-1
 390 700 l 1,32,-1
 390 654 l 1,33,-1
 45 654 l 1,30,-1
EndSplineSet
Validated: 5
EndChar

StartChar: uni0197.ss01
Encoding: 65646 -1 472
Width: 435
GlyphClass: 2
Flags: W
AnchorPoint: "Anchor-3" 218 700 basechar 0
AnchorPoint: "Anchor-2" 250 0 basechar 0
AnchorPoint: "Anchor-0" 218 0 basechar 0
LayerCount: 2
Fore
SplineSet
192 12 m 1,0,-1
 192 689 l 1,1,-1
 243 689 l 1,2,-1
 243 12 l 1,3,-1
 192 12 l 1,0,-1
45 0 m 1,4,-1
 45 45 l 1,5,-1
 390 45 l 1,6,-1
 390 0 l 1,7,-1
 45 0 l 1,4,-1
45 655 m 1,8,-1
 45 700 l 1,9,-1
 390 700 l 1,10,-1
 390 655 l 1,11,-1
 45 655 l 1,8,-1
79 335 m 1,12,-1
 79 377 l 1,13,-1
 357 377 l 1,14,-1
 357 335 l 1,15,-1
 79 335 l 1,12,-1
EndSplineSet
Validated: 5
EndChar

StartChar: J.ss01
Encoding: 65649 -1 475
Width: 490
GlyphClass: 2
Flags: W
AnchorPoint: "Anchor-3" 220 700 basechar 0
LayerCount: 2
Fore
SplineSet
184 -105 m 0,0,1
 127 -105 127 -105 78 -78.5 c 128,-1,2
 29 -52 29 -52 -1 -5 c 1,3,-1
 29 29 l 1,4,5
 58 -14 58 -14 97.5 -36.5 c 128,-1,6
 137 -59 137 -59 184 -59 c 0,7,8
 323 -59 323 -59 323 106 c 2,9,-1
 323 654 l 1,10,-1
 65 654 l 1,11,-1
 65 700 l 1,12,-1
 374 700 l 1,13,-1
 374 106 l 2,14,15
 374 1 374 1 326 -52 c 128,-1,16
 278 -105 278 -105 184 -105 c 0,0,1
EndSplineSet
Validated: 1
EndChar

StartChar: uniA7B2.ss01
Encoding: 65651 -1 477
Width: 490
GlyphClass: 2
Flags: W
AnchorPoint: "Anchor-3" 220 700 basechar 0
LayerCount: 2
Fore
SplineSet
175 -104 m 0,0,1
 132 -104 132 -104 95.5 -89 c 128,-1,2
 59 -74 59 -74 37 -46 c 128,-1,3
 15 -18 15 -18 15 21 c 0,4,5
 15 57 15 57 35 88 c 128,-1,6
 55 119 55 119 99.5 138.5 c 128,-1,7
 144 158 144 158 213 158 c 2,8,-1
 455 158 l 1,9,-1
 455 115 l 1,10,-1
 213 115 l 2,11,12
 159 115 159 115 126 101 c 128,-1,13
 93 87 93 87 78.5 66 c 128,-1,14
 64 45 64 45 64 22 c 0,15,16
 64 -3 64 -3 79 -22 c 128,-1,17
 94 -41 94 -41 119.5 -51 c 128,-1,18
 145 -61 145 -61 175 -61 c 0,19,20
 210 -61 210 -61 244 -45.5 c 128,-1,21
 278 -30 278 -30 300.5 4.5 c 128,-1,22
 323 39 323 39 323 95 c 2,23,-1
 323 654 l 1,24,-1
 65 654 l 1,25,-1
 65 700 l 1,26,-1
 374 700 l 1,27,-1
 374 95 l 2,28,29
 374 25 374 25 344 -19 c 128,-1,30
 314 -63 314 -63 268.5 -83.5 c 128,-1,31
 223 -104 223 -104 175 -104 c 0,0,1
EndSplineSet
Validated: 5
EndChar

StartChar: uni0248.ss01
Encoding: 65652 -1 478
Width: 490
GlyphClass: 2
Flags: W
AnchorPoint: "Anchor-3" 220 700 basechar 0
LayerCount: 2
Fore
SplineSet
184 -105 m 0,0,1
 127 -105 127 -105 78 -78.5 c 128,-1,2
 29 -52 29 -52 -1 -5 c 1,3,-1
 29 29 l 1,4,5
 58 -14 58 -14 97.5 -36.5 c 128,-1,6
 137 -59 137 -59 184 -59 c 0,7,8
 323 -59 323 -59 323 106 c 2,9,-1
 323 654 l 1,10,-1
 65 654 l 1,11,-1
 65 700 l 1,12,-1
 374 700 l 1,13,-1
 374 106 l 2,14,15
 374 1 374 1 326 -52 c 128,-1,16
 278 -105 278 -105 184 -105 c 0,0,1
160 335 m 1,17,-1
 160 377 l 1,18,-1
 488 377 l 1,19,-1
 488 335 l 1,20,-1
 160 335 l 1,17,-1
EndSplineSet
Validated: 5
EndChar

StartChar: M.ss01
Encoding: 65654 -1 480
Width: 1225
GlyphClass: 2
Flags: W
AnchorPoint: "Anchor-3" 615 700 basechar 0
AnchorPoint: "Anchor-0" 615 0 basechar 0
LayerCount: 2
Fore
SplineSet
122 0 m 1,0,-1
 122 700 l 1,1,-1
 172 700 l 1,2,-1
 172 550 l 1,3,-1
 166 556 l 1,4,5
 192 631 192 631 251.5 668 c 128,-1,6
 311 705 311 705 395 705 c 0,7,8
 487 705 487 705 549 662 c 128,-1,9
 611 619 611 619 631 536 c 1,10,-1
 618 536 l 1,11,12
 643 622 643 622 706.5 663.5 c 128,-1,13
 770 705 770 705 858 705 c 0,14,15
 974 705 974 705 1041.5 638 c 128,-1,16
 1109 571 1109 571 1109 439 c 2,17,-1
 1109 0 l 1,18,-1
 1058 0 l 1,19,-1
 1058 437 l 2,20,21
 1058 549 1058 549 1002.5 603.5 c 128,-1,22
 947 658 947 658 851 658 c 0,23,24
 754 658 754 658 697 601.5 c 128,-1,25
 640 545 640 545 640 420 c 2,26,-1
 640 0 l 1,27,-1
 589 0 l 1,28,-1
 589 437 l 2,29,30
 589 549 589 549 535 603.5 c 128,-1,31
 481 658 481 658 385 658 c 0,32,33
 320 658 320 658 272.5 633 c 128,-1,34
 225 608 225 608 199 555.5 c 128,-1,35
 173 503 173 503 173 420 c 2,36,-1
 173 0 l 1,37,-1
 122 0 l 1,0,-1
EndSplineSet
Validated: 5
EndChar

StartChar: N.ss01
Encoding: 65656 -1 482
Width: 799
GlyphClass: 2
Flags: W
AnchorPoint: "Anchor-3" 403 700 basechar 0
AnchorPoint: "Anchor-0" 401 0 basechar 0
LayerCount: 2
Fore
SplineSet
122 0 m 1,0,-1
 122 700 l 1,1,-1
 172 700 l 1,2,-1
 172 526 l 1,3,-1
 160 534 l 1,4,5
 188 622 188 622 254.5 663.5 c 128,-1,6
 321 705 321 705 415 705 c 0,7,8
 540 705 540 705 611.5 631.5 c 128,-1,9
 683 558 683 558 683 419 c 2,10,-1
 683 0 l 1,11,-1
 632 0 l 1,12,-1
 632 417 l 2,13,14
 632 537 632 537 572 597.5 c 128,-1,15
 512 658 512 658 406 658 c 0,16,17
 297 658 297 658 235 594.5 c 128,-1,18
 173 531 173 531 173 399 c 2,19,-1
 173 0 l 1,20,-1
 122 0 l 1,0,-1
EndSplineSet
Validated: 5
EndChar

StartChar: Eng.ss01
Encoding: 65668 -1 494
Width: 799
GlyphClass: 2
Flags: W
AnchorPoint: "Anchor-3" 413 700 basechar 0
AnchorPoint: "Anchor-0" 400 -194 basechar 0
LayerCount: 2
Fore
SplineSet
494 -198 m 0,0,1
 440 -198 440 -198 393 -174 c 128,-1,2
 346 -150 346 -150 316 -107 c 1,3,-1
 344 -70 l 1,4,5
 371 -109 371 -109 409.5 -130.5 c 128,-1,6
 448 -152 448 -152 494 -152 c 0,7,8
 632 -152 632 -152 632 13 c 2,9,-1
 632 417 l 2,10,11
 632 537 632 537 572 597.5 c 128,-1,12
 512 658 512 658 406 658 c 0,13,14
 297 658 297 658 235 594.5 c 128,-1,15
 173 531 173 531 173 399 c 2,16,-1
 173 0 l 1,17,-1
 122 0 l 1,18,-1
 122 700 l 1,19,-1
 172 700 l 1,20,-1
 172 526 l 1,21,-1
 160 534 l 1,22,23
 188 622 188 622 254.5 663.5 c 128,-1,24
 321 705 321 705 415 705 c 0,25,26
 540 705 540 705 611.5 631.5 c 128,-1,27
 683 558 683 558 683 419 c 2,28,-1
 683 13 l 2,29,30
 683 -92 683 -92 635.5 -145 c 128,-1,31
 588 -198 588 -198 494 -198 c 0,0,1
EndSplineSet
Validated: 5
EndChar

StartChar: Q.ss01
Encoding: 65669 -1 495
Width: 838
GlyphClass: 1
Flags: W
LayerCount: 2
Fore
SplineSet
419 -5 m 256,0,1
 341 -5 341 -5 274.5 21.5 c 128,-1,2
 208 48 208 48 158.5 96.5 c 128,-1,3
 109 145 109 145 82 209.5 c 128,-1,4
 55 274 55 274 55 350 c 256,5,6
 55 426 55 426 82 490.5 c 128,-1,7
 109 555 109 555 158.5 603.5 c 128,-1,8
 208 652 208 652 274.5 678.5 c 128,-1,9
 341 705 341 705 419 705 c 256,10,11
 497 705 497 705 563.5 678.5 c 128,-1,12
 630 652 630 652 679 604 c 128,-1,13
 728 556 728 556 755.5 491.5 c 128,-1,14
 783 427 783 427 783 350 c 256,15,16
 783 273 783 273 755.5 208.5 c 128,-1,17
 728 144 728 144 679 96 c 128,-1,18
 630 48 630 48 563.5 21.5 c 128,-1,19
 497 -5 497 -5 419 -5 c 256,0,1
393 -135 m 1,20,-1
 393 5 l 1,21,-1
 394 23 l 1,22,-1
 394 223 l 1,23,-1
 443 223 l 1,24,-1
 443 23 l 1,25,-1
 445 5 l 1,26,-1
 445 -135 l 1,27,-1
 393 -135 l 1,20,-1
419 42 m 256,28,29
 486 42 486 42 543 65 c 128,-1,30
 600 88 600 88 642 130 c 128,-1,31
 684 172 684 172 707.5 228 c 128,-1,32
 731 284 731 284 731 350 c 256,33,34
 731 416 731 416 707.5 472 c 128,-1,35
 684 528 684 528 642 570 c 128,-1,36
 600 612 600 612 543 635 c 128,-1,37
 486 658 486 658 419 658 c 256,38,39
 352 658 352 658 295 635 c 128,-1,40
 238 612 238 612 195.5 570 c 128,-1,41
 153 528 153 528 129.5 472 c 128,-1,42
 106 416 106 416 106 350 c 256,43,44
 106 284 106 284 129.5 228 c 128,-1,45
 153 172 153 172 195.5 130 c 128,-1,46
 238 88 238 88 295 65 c 128,-1,47
 352 42 352 42 419 42 c 256,28,29
EndSplineSet
Validated: 5
EndChar

StartChar: T.ss01
Encoding: 65670 -1 496
Width: 568
GlyphClass: 2
Flags: W
AnchorPoint: "Anchor-3" 285 700 basechar 0
AnchorPoint: "Anchor-1" 284 356 basechar 0
AnchorPoint: "Anchor-0" 284 0 basechar 0
LayerCount: 2
Fore
SplineSet
21 589 m 1,0,-1
 1 630 l 1,1,2
 68 669 68 669 139.5 687 c 128,-1,3
 211 705 211 705 283 705 c 256,4,5
 355 705 355 705 427.5 687 c 128,-1,6
 500 669 500 669 567 630 c 1,7,-1
 547 589 l 1,8,9
 486 626 486 626 418 642.5 c 128,-1,10
 350 659 350 659 283 659 c 256,11,12
 216 659 216 659 149.5 642.5 c 128,-1,13
 83 626 83 626 21 589 c 1,0,-1
258 0 m 1,14,-1
 258 676 l 1,15,-1
 310 676 l 1,16,-1
 310 0 l 1,17,-1
 258 0 l 1,14,-1
EndSplineSet
Validated: 5
EndChar

StartChar: Tbar.ss01
Encoding: 65671 -1 497
Width: 568
GlyphClass: 2
Flags: W
AnchorPoint: "Anchor-3" 285 700 basechar 0
AnchorPoint: "Anchor-1" 284 356 basechar 0
AnchorPoint: "Anchor-0" 284 0 basechar 0
LayerCount: 2
Fore
SplineSet
21 589 m 1,0,-1
 1 630 l 1,1,2
 68 669 68 669 139.5 687 c 128,-1,3
 211 705 211 705 283 705 c 256,4,5
 355 705 355 705 427.5 687 c 128,-1,6
 500 669 500 669 567 630 c 1,7,-1
 547 589 l 1,8,9
 486 626 486 626 418 642.5 c 128,-1,10
 350 659 350 659 283 659 c 256,11,12
 216 659 216 659 149.5 642.5 c 128,-1,13
 83 626 83 626 21 589 c 1,0,-1
258 0 m 1,14,-1
 258 676 l 1,15,-1
 310 676 l 1,16,-1
 310 0 l 1,17,-1
 258 0 l 1,14,-1
95 335 m 1,18,-1
 95 377 l 1,19,-1
 473 377 l 1,20,-1
 473 335 l 1,21,-1
 95 335 l 1,18,-1
EndSplineSet
Validated: 5
EndChar

StartChar: uni023E.ss01
Encoding: 65676 -1 502
Width: 568
GlyphClass: 2
Flags: W
AnchorPoint: "Anchor-3" 284 700 basechar 0
AnchorPoint: "Anchor-1" 284 350 basechar 0
AnchorPoint: "Anchor-0" 284 0 basechar 0
LayerCount: 2
Fore
SplineSet
85 -70 m 1,0,-1
 470 770 l 1,1,-1
 514 770 l 1,2,-1
 128 -70 l 1,3,-1
 85 -70 l 1,0,-1
21 589 m 1,4,-1
 1 630 l 1,5,6
 68 669 68 669 139.5 687 c 128,-1,7
 211 705 211 705 283 705 c 256,8,9
 355 705 355 705 427.5 687 c 128,-1,10
 500 669 500 669 567 630 c 1,11,-1
 547 589 l 1,12,13
 486 626 486 626 418 642.5 c 128,-1,14
 350 659 350 659 283 659 c 256,15,16
 216 659 216 659 149.5 642.5 c 128,-1,17
 83 626 83 626 21 589 c 1,4,-1
259 0 m 1,18,-1
 259 676 l 1,19,-1
 309 676 l 1,20,-1
 309 0 l 1,21,-1
 259 0 l 1,18,-1
EndSplineSet
Validated: 5
EndChar

StartChar: uni01AC.ss01
Encoding: 65679 -1 505
Width: 577
GlyphClass: 2
Flags: W
AnchorPoint: "Anchor-3" 293 700 basechar 0
AnchorPoint: "Anchor-1" 293 349 basechar 0
AnchorPoint: "Anchor-0" 293 0 basechar 0
LayerCount: 2
Fore
SplineSet
54 406 m 1,0,1
 24 438 24 438 10 478 c 128,-1,2
 -4 518 -4 518 3 558 c 128,-1,3
 10 598 10 598 41 631 c 128,-1,4
 72 664 72 664 132.5 684.5 c 128,-1,5
 193 705 193 705 285 705 c 0,6,7
 364 705 364 705 436 687.5 c 128,-1,8
 508 670 508 670 576 630 c 1,9,-1
 556 589 l 1,10,11
 514 614 514 614 471 629 c 128,-1,12
 428 644 428 644 382 651.5 c 128,-1,13
 336 659 336 659 285 659 c 0,14,15
 187 659 187 659 132.5 636.5 c 128,-1,16
 78 614 78 614 59 579 c 128,-1,17
 40 544 40 544 49.5 504.5 c 128,-1,18
 59 465 59 465 88 431 c 1,19,-1
 54 406 l 1,0,1
267 0 m 1,20,-1
 267 676 l 1,21,-1
 319 676 l 1,22,-1
 319 0 l 1,23,-1
 267 0 l 1,20,-1
EndSplineSet
Validated: 37
EndChar

StartChar: uni01AE.ss01
Encoding: 65681 -1 507
Width: 594
GlyphClass: 2
Flags: W
AnchorPoint: "Anchor-3" 297 700 basechar 0
AnchorPoint: "Anchor-1" 297 349 basechar 0
AnchorPoint: "Anchor-0" 297 0 basechar 0
LayerCount: 2
Fore
SplineSet
517 -165 m 1,0,1
 481 -190 481 -190 439 -196 c 128,-1,2
 397 -202 397 -202 358.5 -189 c 128,-1,3
 320 -176 320 -176 295.5 -142.5 c 128,-1,4
 271 -109 271 -109 271 -54 c 2,5,-1
 271 663 l 1,6,-1
 323 663 l 1,7,-1
 323 -51 l 2,8,9
 323 -90 323 -90 340 -114 c 128,-1,10
 357 -138 357 -138 383.5 -147 c 128,-1,11
 410 -156 410 -156 440 -150.5 c 128,-1,12
 470 -145 470 -145 498 -126 c 1,13,-1
 517 -165 l 1,0,1
34 589 m 1,14,-1
 14 630 l 1,15,16
 81 669 81 669 152.5 687 c 128,-1,17
 224 705 224 705 296 705 c 256,18,19
 368 705 368 705 440.5 687 c 128,-1,20
 513 669 513 669 580 630 c 1,21,-1
 560 589 l 1,22,23
 499 626 499 626 431 642.5 c 128,-1,24
 363 659 363 659 296 659 c 256,25,26
 229 659 229 659 162.5 642.5 c 128,-1,27
 96 626 96 626 34 589 c 1,14,-1
EndSplineSet
Validated: 37
EndChar

StartChar: uniA7B1.ss01
Encoding: 65682 -1 508
Width: 568
GlyphClass: 1
Flags: W
LayerCount: 2
Fore
SplineSet
547 111 m 1,0,-1
 567 70 l 1,1,2
 500 31 500 31 428.5 13 c 128,-1,3
 357 -5 357 -5 285 -5 c 256,4,5
 213 -5 213 -5 140 13 c 128,-1,6
 67 31 67 31 1 70 c 1,7,-1
 21 111 l 1,8,9
 83 74 83 74 150.5 57.5 c 128,-1,10
 218 41 218 41 285 41 c 0,11,12
 351 41 351 41 418 57.5 c 128,-1,13
 485 74 485 74 547 111 c 1,0,-1
309 700 m 1,14,-1
 309 24 l 1,15,-1
 258 24 l 1,16,-1
 258 700 l 1,17,-1
 309 700 l 1,14,-1
EndSplineSet
Validated: 5
EndChar

StartChar: U.ss01
Encoding: 65683 -1 509
Width: 795
GlyphClass: 2
Flags: W
AnchorPoint: "Anchor-4" 662 700 basechar 0
AnchorPoint: "Anchor-3" 393 700 basechar 0
AnchorPoint: "Anchor-2" 673 0 basechar 0
AnchorPoint: "Anchor-1" 395 356 basechar 0
AnchorPoint: "Anchor-0" 393 0 basechar 0
LayerCount: 2
Fore
SplineSet
383 -5 m 0,0,1
 260 -5 260 -5 188 68.5 c 128,-1,2
 116 142 116 142 116 281 c 2,3,-1
 116 700 l 1,4,-1
 167 700 l 1,5,-1
 167 283 l 2,6,7
 167 163 167 163 226.5 102.5 c 128,-1,8
 286 42 286 42 391 42 c 0,9,10
 499 42 499 42 560.5 105.5 c 128,-1,11
 622 169 622 169 622 301 c 2,12,-1
 622 700 l 1,13,-1
 673 700 l 1,14,-1
 673 0 l 1,15,-1
 623 0 l 1,16,-1
 623 174 l 1,17,-1
 636 166 l 1,18,19
 607 79 607 79 541.5 37 c 128,-1,20
 476 -5 476 -5 383 -5 c 0,0,1
EndSplineSet
Validated: 5
EndChar

StartChar: uni0244.ss01
Encoding: 65685 -1 511
Width: 798
GlyphClass: 2
Flags: W
AnchorPoint: "Anchor-4" 662 700 basechar 0
AnchorPoint: "Anchor-3" 392 700 basechar 0
AnchorPoint: "Anchor-2" 673 0 basechar 0
AnchorPoint: "Anchor-1" 395 356 basechar 0
AnchorPoint: "Anchor-0" 392 0 basechar 0
LayerCount: 2
Fore
SplineSet
382 -5 m 0,0,1
 259 -5 259 -5 187.5 68.5 c 128,-1,2
 116 142 116 142 116 281 c 2,3,-1
 116 700 l 1,4,-1
 167 700 l 1,5,-1
 167 283 l 2,6,7
 167 163 167 163 226.5 102.5 c 128,-1,8
 286 42 286 42 391 42 c 0,9,10
 498 42 498 42 560 105.5 c 128,-1,11
 622 169 622 169 622 301 c 2,12,-1
 622 700 l 1,13,-1
 673 700 l 1,14,-1
 673 0 l 1,15,-1
 623 0 l 1,16,-1
 623 174 l 1,17,-1
 635 166 l 1,18,19
 607 79 607 79 541 37 c 128,-1,20
 475 -5 475 -5 382 -5 c 0,0,1
2 335 m 1,21,-1
 2 377 l 1,22,-1
 786 377 l 1,23,-1
 786 335 l 1,24,-1
 2 335 l 1,21,-1
EndSplineSet
Validated: 5
EndChar

StartChar: W.ss01
Encoding: 65715 -1 541
Width: 1202
GlyphClass: 2
Flags: W
AnchorPoint: "Anchor-3" 601 700 basechar 0
AnchorPoint: "Anchor-0" 601 0 basechar 0
LayerCount: 2
Fore
SplineSet
371 -5 m 0,0,1
 253 -5 253 -5 184.5 63.5 c 128,-1,2
 116 132 116 132 116 272 c 2,3,-1
 116 700 l 1,4,-1
 167 700 l 1,5,-1
 167 274 l 2,6,7
 167 153 167 153 221 97.5 c 128,-1,8
 275 42 275 42 371 42 c 0,9,10
 466 42 466 42 520.5 97.5 c 128,-1,11
 575 153 575 153 575 274 c 2,12,-1
 575 700 l 1,13,-1
 627 700 l 1,14,-1
 627 274 l 2,15,16
 627 153 627 153 681 97.5 c 128,-1,17
 735 42 735 42 831 42 c 0,18,19
 926 42 926 42 980.5 97.5 c 128,-1,20
 1035 153 1035 153 1035 274 c 2,21,-1
 1035 700 l 1,22,-1
 1086 700 l 1,23,-1
 1086 272 l 2,24,25
 1086 132 1086 132 1017.5 63.5 c 128,-1,26
 949 -5 949 -5 831 -5 c 0,27,28
 738 -5 738 -5 676 38 c 128,-1,29
 614 81 614 81 594 165 c 1,30,-1
 608 165 l 1,31,32
 588 81 588 81 526.5 38 c 128,-1,33
 465 -5 465 -5 371 -5 c 0,0,1
EndSplineSet
Validated: 9
EndChar

StartChar: uni2C72.ss01
Encoding: 65722 -1 548
Width: 1209
GlyphClass: 2
Flags: W
AnchorPoint: "Anchor-3" 601 700 basechar 0
AnchorPoint: "Anchor-0" 601 0 basechar 0
LayerCount: 2
Fore
SplineSet
1086 602 m 2,0,-1
 1086 272 l 2,1,2
 1086 132 1086 132 1017.5 63.5 c 128,-1,3
 949 -5 949 -5 831 -5 c 0,4,5
 738 -5 738 -5 676 38 c 128,-1,6
 614 81 614 81 594 165 c 1,7,-1
 608 165 l 1,8,9
 588 81 588 81 526.5 38 c 128,-1,10
 465 -5 465 -5 371 -5 c 0,11,12
 253 -5 253 -5 184.5 63.5 c 128,-1,13
 116 132 116 132 116 272 c 2,14,-1
 116 700 l 1,15,-1
 167 700 l 1,16,-1
 167 274 l 2,17,18
 167 153 167 153 221 97.5 c 128,-1,19
 275 42 275 42 371 42 c 0,20,21
 466 42 466 42 520.5 97.5 c 128,-1,22
 575 153 575 153 575 274 c 2,23,-1
 575 700 l 1,24,-1
 627 700 l 1,25,-1
 627 274 l 2,26,27
 627 153 627 153 681 97.5 c 128,-1,28
 735 42 735 42 831 42 c 0,29,30
 926 42 926 42 980.5 97.5 c 128,-1,31
 1035 153 1035 153 1035 274 c 2,32,-1
 1035 602 l 2,33,34
 1035 639 1035 639 1046 667 c 128,-1,35
 1057 695 1057 695 1075.5 713 c 128,-1,36
 1094 731 1094 731 1118.5 739.5 c 128,-1,37
 1143 748 1143 748 1170 746.5 c 128,-1,38
 1197 745 1197 745 1224 733 c 1,39,-1
 1209 691 l 1,40,41
 1178 706 1178 706 1149.5 699.5 c 128,-1,42
 1121 693 1121 693 1103.5 668.5 c 128,-1,43
 1086 644 1086 644 1086 602 c 2,0,-1
EndSplineSet
Validated: 41
EndChar

StartChar: Y.ss01
Encoding: 65723 -1 549
Width: 788
GlyphClass: 2
Flags: W
AnchorPoint: "Anchor-3" 392 700 basechar 0
AnchorPoint: "Anchor-2" 434 -100 basechar 0
AnchorPoint: "Anchor-0" 656 0 basechar 0
LayerCount: 2
Fore
SplineSet
388 -104 m 0,0,1
 302 -104 302 -104 234.5 -74 c 128,-1,2
 167 -44 167 -44 122 9 c 1,3,-1
 151 46 l 1,4,5
 196 -6 196 -6 254.5 -31.5 c 128,-1,6
 313 -57 313 -57 389 -57 c 0,7,8
 501 -57 501 -57 561 6 c 128,-1,9
 621 69 621 69 621 198 c 2,10,-1
 621 354 l 1,11,-1
 635 349 l 1,12,13
 606 262 606 262 540.5 220 c 128,-1,14
 475 178 475 178 384 178 c 0,15,16
 257 178 257 178 184 251.5 c 128,-1,17
 111 325 111 325 111 464 c 2,18,-1
 111 700 l 1,19,-1
 162 700 l 1,20,-1
 162 466 l 2,21,22
 162 346 162 346 222 285.5 c 128,-1,23
 282 225 282 225 388 225 c 0,24,25
 497 225 497 225 559 288.5 c 128,-1,26
 621 352 621 352 621 484 c 2,27,-1
 621 700 l 1,28,-1
 672 700 l 1,29,-1
 672 199 l 2,30,31
 672 98 672 98 638 31 c 128,-1,32
 604 -36 604 -36 540 -70 c 128,-1,33
 476 -104 476 -104 388 -104 c 0,0,1
EndSplineSet
Validated: 5
EndChar

StartChar: uni01B3.ss01
Encoding: 65730 -1 556
Width: 796
GlyphClass: 2
Flags: W
AnchorPoint: "Anchor-3" 392 700 basechar 0
AnchorPoint: "Anchor-0" 656 0 basechar 0
LayerCount: 2
Fore
SplineSet
388 -104 m 0,0,1
 302 -104 302 -104 235 -74.5 c 128,-1,2
 168 -45 168 -45 123 8 c 1,3,-1
 152 45 l 1,4,5
 196 -6 196 -6 254.5 -31.5 c 128,-1,6
 313 -57 313 -57 389 -57 c 0,7,8
 501 -57 501 -57 561 6 c 128,-1,9
 621 69 621 69 621 198 c 2,10,-1
 621 354 l 1,11,-1
 635 349 l 1,12,13
 606 262 606 262 540.5 220 c 128,-1,14
 475 178 475 178 384 178 c 0,15,16
 257 178 257 178 184 251.5 c 128,-1,17
 111 325 111 325 111 464 c 2,18,-1
 111 700 l 1,19,-1
 162 700 l 1,20,-1
 162 466 l 2,21,22
 162 346 162 346 222 285.5 c 128,-1,23
 282 225 282 225 388 225 c 0,24,25
 497 225 497 225 559 288.5 c 128,-1,26
 621 352 621 352 621 484 c 2,27,-1
 621 602 l 2,28,29
 621 640 621 640 632 668 c 128,-1,30
 643 696 643 696 662 714 c 128,-1,31
 681 732 681 732 705 740.5 c 128,-1,32
 729 749 729 749 756.5 747.5 c 128,-1,33
 784 746 784 746 811 734 c 1,34,-1
 796 692 l 1,35,36
 764 707 764 707 735.5 700.5 c 128,-1,37
 707 694 707 694 689.5 669 c 128,-1,38
 672 644 672 644 672 602 c 2,39,-1
 672 199 l 2,40,41
 672 98 672 98 638 31 c 128,-1,42
 604 -36 604 -36 540 -70 c 128,-1,43
 476 -104 476 -104 388 -104 c 0,0,1
EndSplineSet
Validated: 37
EndChar

StartChar: uni024E.ss01
Encoding: 65733 -1 559
Width: 778
GlyphClass: 2
Flags: W
AnchorPoint: "Anchor-3" 383 700 basechar 0
AnchorPoint: "Anchor-0" 648 0 basechar 0
LayerCount: 2
Fore
SplineSet
380 -104 m 0,0,1
 293 -104 293 -104 225.5 -74 c 128,-1,2
 158 -44 158 -44 114 9 c 1,3,-1
 142 46 l 1,4,5
 187 -6 187 -6 246 -31.5 c 128,-1,6
 305 -57 305 -57 380 -57 c 0,7,8
 492 -57 492 -57 552 6 c 128,-1,9
 612 69 612 69 612 198 c 2,10,-1
 612 354 l 1,11,-1
 626 349 l 1,12,13
 597 262 597 262 532 220 c 128,-1,14
 467 178 467 178 375 178 c 0,15,16
 248 178 248 178 175 251.5 c 128,-1,17
 102 325 102 325 102 464 c 2,18,-1
 102 700 l 1,19,-1
 154 700 l 1,20,-1
 154 466 l 2,21,22
 154 346 154 346 213.5 285.5 c 128,-1,23
 273 225 273 225 380 225 c 0,24,25
 488 225 488 225 550 288.5 c 128,-1,26
 612 352 612 352 612 484 c 2,27,-1
 612 700 l 1,28,-1
 664 700 l 1,29,-1
 664 199 l 2,30,31
 664 98 664 98 629.5 31 c 128,-1,32
 595 -36 595 -36 531.5 -70 c 128,-1,33
 468 -104 468 -104 380 -104 c 0,0,1
-11 520 m 1,34,-1
 -11 562 l 1,35,-1
 777 562 l 1,36,-1
 777 520 l 1,37,-1
 -11 520 l 1,34,-1
EndSplineSet
Validated: 5
EndChar

StartChar: Z.ss01
Encoding: 65735 -1 561
Width: 656
GlyphClass: 2
Flags: W
AnchorPoint: "Anchor-3" 330 700 basechar 0
AnchorPoint: "Anchor-0" 338 0 basechar 0
LayerCount: 2
Fore
SplineSet
52 0 m 1,0,-1
 52 34 l 1,1,-1
 547 674 l 1,2,-1
 552 654 l 1,3,-1
 54 654 l 1,4,-1
 54 700 l 1,5,-1
 601 700 l 1,6,-1
 601 667 l 1,7,-1
 107 26 l 1,8,-1
 101 46 l 1,9,-1
 616 46 l 1,10,-1
 616 0 l 1,11,-1
 52 0 l 1,0,-1
325 333 m 1,12,-1
 310 334 l 1,13,-1
 116 334 l 1,14,-1
 116 378 l 1,15,-1
 338 378 l 1,16,-1
 353 377 l 1,17,-1
 535 377 l 1,18,-1
 535 333 l 1,19,-1
 325 333 l 1,12,-1
EndSplineSet
Validated: 5
EndChar

StartChar: uni01B2.loclTOD0.ss01
Encoding: 65746 -1 572
Width: 692
GlyphClass: 2
Flags: W
AnchorPoint: "Anchor-3" 343 700 basechar 0
AnchorPoint: "Anchor-0" 343 0 basechar 0
LayerCount: 2
Fore
SplineSet
318 0 m 1,0,-1
 6 700 l 1,1,-1
 62 700 l 1,2,-1
 353 44 l 1,3,-1
 335 44 l 1,4,-1
 629 712 l 2,5,6
 646 751 646 751 669 775.5 c 128,-1,7
 692 800 692 800 718.5 810 c 128,-1,8
 745 820 745 820 773 817.5 c 128,-1,9
 801 815 801 815 827 800 c 1,10,-1
 806 761 l 1,11,12
 770 780 770 780 734 766 c 128,-1,13
 698 752 698 752 674 697 c 2,14,-1
 369 0 l 1,15,-1
 318 0 l 1,0,-1
EndSplineSet
Validated: 37
EndChar

StartChar: T_h
Encoding: 65747 -1 573
Width: 1169
GlyphClass: 3
LigCaretCntFixed: 1
Flags: W
AnchorPoint: "Anchor-8" 292 700 baselig 0
AnchorPoint: "Anchor-6" 292 350 baselig 0
AnchorPoint: "Anchor-5" 292 0 baselig 0
AnchorPoint: "Anchor-8" 877 700 baselig 1
AnchorPoint: "Anchor-5" 877 0 baselig 1
AnchorPoint: "Anchor-6" 877 350 baselig 1
LayerCount: 2
Fore
SplineSet
256 0 m 1,0,-1
 256 654 l 1,1,-1
 4 654 l 1,2,-1
 4 700 l 1,3,-1
 611 700 l 1,4,-1
 611 654 l 1,5,-1
 307 654 l 1,6,-1
 307 0 l 1,7,-1
 256 0 l 1,0,-1
602 0 m 1,8,-1
 602 700 l 1,9,-1
 652 700 l 1,10,-1
 652 377 l 1,11,-1
 643 393 l 1,12,13
 667 455 667 455 722 490.5 c 128,-1,14
 777 526 777 526 857 526 c 0,15,16
 921 526 921 526 968.5 501.5 c 128,-1,17
 1016 477 1016 477 1042.5 427.5 c 128,-1,18
 1069 378 1069 378 1069 305 c 2,19,-1
 1069 0 l 1,20,-1
 1019 0 l 1,21,-1
 1019 301 l 2,22,23
 1019 389 1019 389 974.5 435 c 128,-1,24
 930 481 930 481 850 481 c 0,25,26
 789 481 789 481 744 456 c 128,-1,27
 699 431 699 431 675.5 386 c 128,-1,28
 652 341 652 341 652 278 c 2,29,-1
 652 0 l 1,30,-1
 602 0 l 1,8,-1
EndSplineSet
Validated: 5
Ligature2: "'dlig' Discretionary Ligatures lookup 48 subtable" T h
LCarets2: 1 585
EndChar

StartChar: Iacute_J.loclNLD.ss01
Encoding: 65748 -1 574
Width: 716
GlyphClass: 2
LigCaretCntFixed: 1
Flags: W
LayerCount: 2
Fore
SplineSet
327 -104 m 0,0,1
 263 -104 263 -104 206.5 -85 c 128,-1,2
 150 -66 150 -66 107 -36 c 1,3,-1
 130 5 l 1,4,5
 171 -25 171 -25 221.5 -41.5 c 128,-1,6
 272 -58 272 -58 326 -58 c 0,7,8
 431 -58 431 -58 490 5.5 c 128,-1,9
 549 69 549 69 549 198 c 2,10,-1
 549 700 l 1,11,-1
 600 700 l 1,12,-1
 600 199 l 2,13,14
 600 98 600 98 566 31 c 128,-1,15
 532 -36 532 -36 471 -70 c 128,-1,16
 410 -104 410 -104 327 -104 c 0,0,1
116 197 m 1,17,-1
 116 700 l 1,18,-1
 167 700 l 1,19,-1
 167 197 l 1,20,-1
 116 197 l 1,17,-1
114 757 m 1,21,-1
 252 875 l 1,22,-1
 318 875 l 1,23,-1
 161 757 l 1,24,-1
 114 757 l 1,21,-1
548 757 m 1,25,-1
 687 875 l 1,26,-1
 752 875 l 1,27,-1
 595 757 l 1,28,-1
 548 757 l 1,25,-1
EndSplineSet
Validated: 1
LCarets2: 1 358
EndChar

StartChar: uni026A
Encoding: 618 618 575
Width: 349
GlyphClass: 2
Flags: W
AnchorPoint: "Anchor-3" 174 522 basechar 0
AnchorPoint: "Anchor-2" 199 0 basechar 0
AnchorPoint: "Anchor-0" 174 0 basechar 0
LayerCount: 2
Fore
SplineSet
45 479 m 1,0,-1
 45 522 l 1,1,-1
 304 522 l 1,2,-1
 304 479 l 1,3,-1
 45 479 l 1,0,-1
45 0 m 1,4,-1
 45 43 l 1,5,-1
 304 43 l 1,6,-1
 304 0 l 1,7,-1
 45 0 l 1,4,-1
149 0 m 1,8,-1
 149 522 l 1,9,-1
 199 522 l 1,10,-1
 199 0 l 1,11,-1
 149 0 l 1,8,-1
EndSplineSet
Validated: 5
Substitution2: "'smcp' Lowercase to Small Capitals lookup 46 subtable" uni026A.sc
Substitution2: "'aalt' Access All Alternates lookup 0 subtable" uni026A.sc
EndChar

StartChar: uni1D7B
Encoding: 7547 7547 576
Width: 375
GlyphClass: 2
Flags: W
AnchorPoint: "Anchor-3" 188 522 basechar 0
AnchorPoint: "Anchor-2" 213 0 basechar 0
AnchorPoint: "Anchor-0" 188 0 basechar 0
LayerCount: 2
Fore
SplineSet
58 479 m 1,0,-1
 58 522 l 1,1,-1
 318 522 l 1,2,-1
 318 479 l 1,3,-1
 58 479 l 1,0,-1
58 0 m 1,4,-1
 58 43 l 1,5,-1
 318 43 l 1,6,-1
 318 0 l 1,7,-1
 58 0 l 1,4,-1
163 0 m 1,8,-1
 163 522 l 1,9,-1
 213 522 l 1,10,-1
 213 0 l 1,11,-1
 163 0 l 1,8,-1
64 250 m 1,12,-1
 64 289 l 1,13,-1
 311 289 l 1,14,-1
 311 250 l 1,15,-1
 64 250 l 1,12,-1
EndSplineSet
Validated: 5
Substitution2: "'smcp' Lowercase to Small Capitals lookup 46 subtable" uni1D7B.sc
Substitution2: "'aalt' Access All Alternates lookup 0 subtable" uni1D7B.sc
EndChar

StartChar: uni0274
Encoding: 628 628 577
Width: 657
GlyphClass: 2
Flags: W
AnchorPoint: "Anchor-3" 328 522 basechar 0
AnchorPoint: "Anchor-0" 328 0 basechar 0
LayerCount: 2
Fore
SplineSet
95 0 m 1,0,-1
 95 522 l 1,1,-1
 137 522 l 1,2,-1
 533 61 l 1,3,-1
 511 61 l 1,4,-1
 511 522 l 1,5,-1
 561 522 l 1,6,-1
 561 0 l 1,7,-1
 520 0 l 1,8,-1
 124 461 l 1,9,-1
 145 461 l 1,10,-1
 145 0 l 1,11,-1
 95 0 l 1,0,-1
EndSplineSet
Validated: 5
Substitution2: "'smcp' Lowercase to Small Capitals lookup 46 subtable" uni0274.sc
Substitution2: "'aalt' Access All Alternates lookup 0 subtable" uni0274.sc
EndChar

StartChar: uni0280
Encoding: 640 640 578
Width: 592
GlyphClass: 2
Flags: W
AnchorPoint: "Anchor-3" 307 522 basechar 0
AnchorPoint: "Anchor-0" 307 0 basechar 0
LayerCount: 2
Fore
SplineSet
106 0 m 1,0,-1
 106 522 l 1,1,-1
 313 522 l 2,2,3
 419 522 419 522 480 475 c 128,-1,4
 541 428 541 428 541 345 c 0,5,6
 541 289 541 289 513.5 249.5 c 128,-1,7
 486 210 486 210 435 188.5 c 128,-1,8
 384 167 384 167 313 167 c 2,9,-1
 133 167 l 1,10,-1
 156 190 l 1,11,-1
 156 0 l 1,12,-1
 106 0 l 1,0,-1
493 0 m 1,13,-1
 347 190 l 1,14,-1
 403 190 l 1,15,-1
 550 0 l 1,16,-1
 493 0 l 1,13,-1
156 187 m 1,17,-1
 133 211 l 1,18,-1
 312 211 l 2,19,20
 399 211 399 211 444.5 246 c 128,-1,21
 490 281 490 281 490 345 c 256,22,23
 490 409 490 409 444 444 c 128,-1,24
 398 479 398 479 312 479 c 2,25,-1
 133 479 l 1,26,-1
 156 502 l 1,27,-1
 156 187 l 1,17,-1
EndSplineSet
Validated: 5
Substitution2: "'smcp' Lowercase to Small Capitals lookup 46 subtable" uni0280.sc
Substitution2: "'aalt' Access All Alternates lookup 0 subtable" uni0280.sc
EndChar

StartChar: a
Encoding: 97 97 580
Width: 583
GlyphClass: 2
Flags: W
AnchorPoint: "Anchor-3" 280 522 basechar 0
AnchorPoint: "Anchor-2" 483 0 basechar 0
AnchorPoint: "Anchor-0" 285 0 basechar 0
LayerCount: 2
Fore
SplineSet
435 0 m 1,0,-1
 435 119 l 1,1,-1
 433 137 l 1,2,-1
 433 333 l 2,3,4
 433 406 433 406 393.5 444 c 128,-1,5
 354 482 354 482 278 482 c 0,6,7
 224 482 224 482 177.5 463.5 c 128,-1,8
 131 445 131 445 98 416 c 1,9,-1
 73 452 l 1,10,11
 112 487 112 487 167 506.5 c 128,-1,12
 222 526 222 526 282 526 c 0,13,14
 379 526 379 526 431 477 c 128,-1,15
 483 428 483 428 483 331 c 2,16,-1
 483 0 l 1,17,-1
 435 0 l 1,0,-1
247 -4 m 0,18,19
 189 -4 189 -4 146.5 14.5 c 128,-1,20
 104 33 104 33 81.5 67 c 128,-1,21
 59 101 59 101 59 145 c 0,22,23
 59 185 59 185 77.5 217.5 c 128,-1,24
 96 250 96 250 139 270.5 c 128,-1,25
 182 291 182 291 254 291 c 2,26,-1
 446 291 l 1,27,-1
 446 252 l 1,28,-1
 255 252 l 2,29,30
 174 252 174 252 141.5 222 c 128,-1,31
 109 192 109 192 109 147 c 0,32,33
 109 97 109 97 147 67 c 128,-1,34
 185 37 185 37 254 37 c 0,35,36
 320 37 320 37 365.5 67 c 128,-1,37
 411 97 411 97 433 154 c 1,38,-1
 447 120 l 1,39,40
 426 63 426 63 375.5 29.5 c 128,-1,41
 325 -4 325 -4 247 -4 c 0,18,19
EndSplineSet
Validated: 5
Substitution2: "'ss01' Style Set 1 lookup 50 subtable" a.ss01
Substitution2: "'smcp' Lowercase to Small Capitals lookup 46 subtable" a.sc
Substitution2: "Single Substitution lookup 39 subtable" ordfeminine
AlternateSubs2: "'aalt' Access All Alternates lookup 1 subtable" ordfeminine a.sc a.ss01
EndChar

StartChar: uni2C65
Encoding: 11365 11365 611
Width: 583
GlyphClass: 2
Flags: W
AnchorPoint: "Anchor-3" 280 522 basechar 0
AnchorPoint: "Anchor-2" 483 0 basechar 0
AnchorPoint: "Anchor-0" 285 0 basechar 0
LayerCount: 2
Fore
SplineSet
435 0 m 1,0,-1
 435 119 l 1,1,-1
 433 137 l 1,2,-1
 433 333 l 2,3,4
 433 406 433 406 393.5 444 c 128,-1,5
 354 482 354 482 278 482 c 0,6,7
 224 482 224 482 177.5 463.5 c 128,-1,8
 131 445 131 445 98 416 c 1,9,-1
 73 452 l 1,10,11
 112 487 112 487 167 506.5 c 128,-1,12
 222 526 222 526 282 526 c 0,13,14
 379 526 379 526 431 477 c 128,-1,15
 483 428 483 428 483 331 c 2,16,-1
 483 0 l 1,17,-1
 435 0 l 1,0,-1
247 -4 m 0,18,19
 189 -4 189 -4 146.5 14.5 c 128,-1,20
 104 33 104 33 81.5 67 c 128,-1,21
 59 101 59 101 59 145 c 0,22,23
 59 185 59 185 77.5 217.5 c 128,-1,24
 96 250 96 250 139 270.5 c 128,-1,25
 182 291 182 291 254 291 c 2,26,-1
 446 291 l 1,27,-1
 446 252 l 1,28,-1
 255 252 l 2,29,30
 174 252 174 252 141.5 222 c 128,-1,31
 109 192 109 192 109 147 c 0,32,33
 109 97 109 97 147 67 c 128,-1,34
 185 37 185 37 254 37 c 0,35,36
 320 37 320 37 365.5 67 c 128,-1,37
 411 97 411 97 433 154 c 1,38,-1
 447 120 l 1,39,40
 426 63 426 63 375.5 29.5 c 128,-1,41
 325 -4 325 -4 247 -4 c 0,18,19
133 -78 m 1,42,-1
 409 600 l 1,43,-1
 447 600 l 1,44,-1
 171 -78 l 1,45,-1
 133 -78 l 1,42,-1
EndSplineSet
Validated: 5
Substitution2: "'ss01' Style Set 1 lookup 50 subtable" uni2C65.ss01
Substitution2: "'smcp' Lowercase to Small Capitals lookup 46 subtable" uni2C65.sc
AlternateSubs2: "'aalt' Access All Alternates lookup 1 subtable" uni2C65.sc uni2C65.ss01
EndChar

StartChar: uni0250
Encoding: 592 592 613
Width: 583
GlyphClass: 2
Flags: W
AnchorPoint: "Anchor-3" 292 522 basechar 0
AnchorPoint: "Anchor-0" 292 0 basechar 0
LayerCount: 2
Fore
SplineSet
148 522 m 1,0,-1
 148 403 l 1,1,-1
 150 385 l 1,2,-1
 150 189 l 2,3,4
 150 116 150 116 189.5 78 c 128,-1,5
 229 40 229 40 305 40 c 0,6,7
 359 40 359 40 406 58.5 c 128,-1,8
 453 77 453 77 486 106 c 1,9,-1
 510 70 l 1,10,11
 471 35 471 35 417 15.5 c 128,-1,12
 363 -4 363 -4 302 -4 c 0,13,14
 204 -4 204 -4 152 45.5 c 128,-1,15
 100 95 100 95 100 191 c 2,16,-1
 100 522 l 1,17,-1
 148 522 l 1,0,-1
336 526 m 0,18,19
 395 526 395 526 437 507.5 c 128,-1,20
 479 489 479 489 501.5 455.5 c 128,-1,21
 524 422 524 422 524 377 c 0,22,23
 524 338 524 338 505.5 305 c 128,-1,24
 487 272 487 272 444.5 251.5 c 128,-1,25
 402 231 402 231 329 231 c 2,26,-1
 137 231 l 1,27,-1
 137 270 l 1,28,-1
 328 270 l 2,29,30
 409 270 409 270 442 300 c 128,-1,31
 475 330 475 330 475 375 c 0,32,33
 475 426 475 426 436.5 455.5 c 128,-1,34
 398 485 398 485 330 485 c 0,35,36
 263 485 263 485 218 455 c 128,-1,37
 173 425 173 425 150 368 c 1,38,-1
 137 402 l 1,39,40
 157 459 157 459 207.5 492.5 c 128,-1,41
 258 526 258 526 336 526 c 0,18,19
EndSplineSet
Validated: 5
Substitution2: "'smcp' Lowercase to Small Capitals lookup 46 subtable" uni0250.sc
Substitution2: "'aalt' Access All Alternates lookup 0 subtable" uni0250.sc
EndChar

StartChar: ae
Encoding: 230 230 614
Width: 983
GlyphClass: 2
Flags: W
AnchorPoint: "Anchor-3" 458 522 basechar 0
AnchorPoint: "Anchor-2" 743 0 basechar 0
AnchorPoint: "Anchor-0" 472 0 basechar 0
LayerCount: 2
Fore
SplineSet
251 -4 m 0,0,1
 160 -4 160 -4 109.5 37.5 c 128,-1,2
 59 79 59 79 59 147 c 0,3,4
 59 185 59 185 77.5 217 c 128,-1,5
 96 249 96 249 139 269.5 c 128,-1,6
 182 290 182 290 254 290 c 2,7,-1
 443 290 l 1,8,-1
 443 251 l 1,9,-1
 255 251 l 2,10,11
 174 251 174 251 141.5 221.5 c 128,-1,12
 109 192 109 192 109 148 c 0,13,14
 109 97 109 97 147.5 67 c 128,-1,15
 186 37 186 37 254 37 c 0,16,17
 335 37 335 37 384 80 c 128,-1,18
 433 123 433 123 433 202 c 2,19,-1
 433 333 l 2,20,21
 433 406 433 406 393.5 444 c 128,-1,22
 354 482 354 482 278 482 c 0,23,24
 224 482 224 482 177.5 463.5 c 128,-1,25
 131 445 131 445 98 416 c 1,26,-1
 73 452 l 1,27,28
 112 487 112 487 167 506.5 c 128,-1,29
 222 526 222 526 281 526 c 0,30,31
 370 526 370 526 419.5 486 c 128,-1,32
 469 446 469 446 478 366 c 1,33,-1
 458 374 l 1,34,35
 486 443 486 443 545.5 484.5 c 128,-1,36
 605 526 605 526 684 526 c 0,37,38
 738 526 738 526 783 507 c 128,-1,39
 828 488 828 488 862 453 c 128,-1,40
 896 418 896 418 915 371 c 128,-1,41
 934 324 934 324 934 267 c 0,42,43
 934 262 934 262 933.5 258.5 c 128,-1,44
 933 255 933 255 933 251 c 1,45,-1
 473 251 l 1,46,-1
 473 290 l 1,47,-1
 906 290 l 1,48,-1
 885 269 l 1,49,50
 886 333 886 333 858.5 381 c 128,-1,51
 831 429 831 429 785.5 455.5 c 128,-1,52
 740 482 740 482 684 482 c 256,53,54
 628 482 628 482 582.5 455.5 c 128,-1,55
 537 429 537 429 510 380.5 c 128,-1,56
 483 332 483 332 483 268 c 2,57,-1
 483 259 l 2,58,59
 483 195 483 195 511.5 145.5 c 128,-1,60
 540 96 540 96 589.5 68.5 c 128,-1,61
 639 41 639 41 704 41 c 0,62,63
 754 41 754 41 797 59 c 128,-1,64
 840 77 840 77 871 114 c 1,65,-1
 901 81 l 1,66,67
 866 39 866 39 814.5 17.5 c 128,-1,68
 763 -4 763 -4 703 -4 c 0,69,70
 645 -4 645 -4 593 16.5 c 128,-1,71
 541 37 541 37 502.5 78.5 c 128,-1,72
 464 120 464 120 444 183 c 1,73,-1
 476 182 l 1,74,75
 469 114 469 114 435.5 73.5 c 128,-1,76
 402 33 402 33 354 14.5 c 128,-1,77
 306 -4 306 -4 251 -4 c 0,0,1
EndSplineSet
Validated: 37
Substitution2: "'ss01' Style Set 1 lookup 50 subtable" ae.ss01
Substitution2: "'smcp' Lowercase to Small Capitals lookup 46 subtable" ae.sc
AlternateSubs2: "'aalt' Access All Alternates lookup 1 subtable" ae.sc ae.ss01
EndChar

StartChar: b
Encoding: 98 98 617
Width: 675
GlyphClass: 2
Flags: W
AnchorPoint: "Anchor-3" 370 522 basechar 0
AnchorPoint: "Anchor-0" 370 0 basechar 0
LayerCount: 2
Fore
SplineSet
368 -4 m 0,0,1
 299 -4 299 -4 243.5 28 c 128,-1,2
 188 60 188 60 155.5 120 c 128,-1,3
 123 180 123 180 123 261 c 0,4,5
 123 344 123 344 155.5 403 c 128,-1,6
 188 462 188 462 243.5 494 c 128,-1,7
 299 526 299 526 368 526 c 0,8,9
 442 526 442 526 500.5 492.5 c 128,-1,10
 559 459 559 459 592.5 399.5 c 128,-1,11
 626 340 626 340 626 261 c 0,12,13
 626 183 626 183 592.5 123 c 128,-1,14
 559 63 559 63 500.5 29.5 c 128,-1,15
 442 -4 442 -4 368 -4 c 0,0,1
106 0 m 1,16,-1
 106 742 l 1,17,-1
 156 742 l 1,18,-1
 156 353 l 1,19,-1
 146 262 l 1,20,-1
 154 171 l 1,21,-1
 154 0 l 1,22,-1
 106 0 l 1,16,-1
365 41 m 256,23,24
 425 41 425 41 473 68.5 c 128,-1,25
 521 96 521 96 548.5 146 c 128,-1,26
 576 196 576 196 576 261 c 0,27,28
 576 327 576 327 548.5 376.5 c 128,-1,29
 521 426 521 426 473 453.5 c 128,-1,30
 425 481 425 481 365 481 c 256,31,32
 305 481 305 481 257.5 453.5 c 128,-1,33
 210 426 210 426 182.5 376.5 c 128,-1,34
 155 327 155 327 155 261 c 0,35,36
 155 196 155 196 182.5 146 c 128,-1,37
 210 96 210 96 257.5 68.5 c 128,-1,38
 305 41 305 41 365 41 c 256,23,24
EndSplineSet
Validated: 5
Substitution2: "'smcp' Lowercase to Small Capitals lookup 46 subtable" b.sc
Substitution2: "'aalt' Access All Alternates lookup 0 subtable" b.sc
EndChar

StartChar: uniA7B5
Encoding: 42933 42933 620
Width: 661
GlyphClass: 1
Flags: W
LayerCount: 2
Fore
SplineSet
106 -194 m 1,0,-1
 106 502 l 2,1,2
 106 583 106 583 135.5 637 c 128,-1,3
 165 691 165 691 217.5 718.5 c 128,-1,4
 270 746 270 746 338 746 c 0,5,6
 405 746 405 746 453.5 722 c 128,-1,7
 502 698 502 698 528 655.5 c 128,-1,8
 554 613 554 613 554 560 c 0,9,10
 554 516 554 516 537 480.5 c 128,-1,11
 520 445 520 445 492 420.5 c 128,-1,12
 464 396 464 396 429 383 c 128,-1,13
 394 370 394 370 358 370 c 1,14,-1
 385 392 l 1,15,16
 451 392 451 392 502.5 369 c 128,-1,17
 554 346 554 346 583 302.5 c 128,-1,18
 612 259 612 259 612 196 c 0,19,20
 612 144 612 144 592 106 c 128,-1,21
 572 68 572 68 537 43.5 c 128,-1,22
 502 19 502 19 458 7 c 128,-1,23
 414 -5 414 -5 367 -5 c 0,24,25
 303 -5 303 -5 241.5 15 c 128,-1,26
 180 35 180 35 135 72 c 1,27,-1
 154 112 l 1,28,29
 194 77 194 77 250.5 58 c 128,-1,30
 307 39 307 39 364 39 c 0,31,32
 416 39 416 39 461 56 c 128,-1,33
 506 73 506 73 534 108 c 128,-1,34
 562 143 562 143 562 198 c 0,35,36
 562 273 562 273 509.5 314 c 128,-1,37
 457 355 457 355 373 355 c 2,38,-1
 315 355 l 1,39,-1
 315 398 l 1,40,41
 404 399 404 399 454.5 442.5 c 128,-1,42
 505 486 505 486 505 557 c 0,43,44
 505 622 505 622 461 662 c 128,-1,45
 417 702 417 702 339 702 c 0,46,47
 256 702 256 702 206 652.5 c 128,-1,48
 156 603 156 603 156 505 c 2,49,-1
 156 -194 l 1,50,-1
 106 -194 l 1,0,-1
EndSplineSet
Validated: 5
Substitution2: "'smcp' Lowercase to Small Capitals lookup 46 subtable" uniA7B5.sc
Substitution2: "'aalt' Access All Alternates lookup 0 subtable" uniA7B5.sc
EndChar

StartChar: uni0253
Encoding: 595 595 621
Width: 678
GlyphClass: 1
Flags: W
LayerCount: 2
Fore
SplineSet
371 -4 m 0,0,1
 301 -4 301 -4 245.5 28 c 128,-1,2
 190 60 190 60 158 120 c 128,-1,3
 126 180 126 180 126 261 c 0,4,5
 126 344 126 344 158.5 403 c 128,-1,6
 191 462 191 462 246.5 494 c 128,-1,7
 302 526 302 526 371 526 c 0,8,9
 445 526 445 526 503 492.5 c 128,-1,10
 561 459 561 459 595 399.5 c 128,-1,11
 629 340 629 340 629 261 c 0,12,13
 629 183 629 183 595 123 c 128,-1,14
 561 63 561 63 503 29.5 c 128,-1,15
 445 -4 445 -4 371 -4 c 0,0,1
108 0 m 1,16,-1
 108 599 l 2,17,18
 108 637 108 637 121 664.5 c 128,-1,19
 134 692 134 692 156 710 c 128,-1,20
 178 728 178 728 205.5 736 c 128,-1,21
 233 744 233 744 261 744 c 0,22,23
 298 744 298 744 331 731.5 c 128,-1,24
 364 719 364 719 389 694 c 1,25,-1
 362 659 l 1,26,27
 342 681 342 681 315 691 c 128,-1,28
 288 701 288 701 262 701 c 0,29,30
 220 701 220 701 189 675.5 c 128,-1,31
 158 650 158 650 158 598 c 2,32,-1
 158 353 l 1,33,-1
 148 262 l 1,34,-1
 157 171 l 1,35,-1
 157 0 l 1,36,-1
 108 0 l 1,16,-1
368 41 m 256,37,38
 428 41 428 41 475.5 68.5 c 128,-1,39
 523 96 523 96 550.5 146 c 128,-1,40
 578 196 578 196 578 261 c 0,41,42
 578 327 578 327 550.5 376.5 c 128,-1,43
 523 426 523 426 475.5 453.5 c 128,-1,44
 428 481 428 481 368 481 c 256,45,46
 308 481 308 481 260.5 453.5 c 128,-1,47
 213 426 213 426 185.5 376.5 c 128,-1,48
 158 327 158 327 158 261 c 0,49,50
 158 196 158 196 185.5 146 c 128,-1,51
 213 96 213 96 260.5 68.5 c 128,-1,52
 308 41 308 41 368 41 c 256,37,38
EndSplineSet
Validated: 5
Substitution2: "'smcp' Lowercase to Small Capitals lookup 46 subtable" uni0253.sc
Substitution2: "'aalt' Access All Alternates lookup 0 subtable" uni0253.sc
EndChar

StartChar: uni0298
Encoding: 664 664 622
Width: 844
GlyphClass: 2
Flags: W
AnchorPoint: "Anchor-4" 656 700 basechar 0
AnchorPoint: "Anchor-3" 419 336 basechar 0
AnchorPoint: "Anchor-2" 480 0 basechar 0
AnchorPoint: "Anchor-1" 419 350 basechar 0
AnchorPoint: "Anchor-0" 419 0 basechar 0
LayerCount: 2
Fore
SplineSet
419 -5 m 256,0,1
 341 -5 341 -5 274.5 21.5 c 128,-1,2
 208 48 208 48 158.5 96.5 c 128,-1,3
 109 145 109 145 82 209.5 c 128,-1,4
 55 274 55 274 55 350 c 256,5,6
 55 426 55 426 82 490.5 c 128,-1,7
 109 555 109 555 158.5 603.5 c 128,-1,8
 208 652 208 652 274.5 678.5 c 128,-1,9
 341 705 341 705 419 705 c 256,10,11
 497 705 497 705 563.5 678.5 c 128,-1,12
 630 652 630 652 679 604 c 128,-1,13
 728 556 728 556 755.5 491.5 c 128,-1,14
 783 427 783 427 783 350 c 256,15,16
 783 273 783 273 755.5 208.5 c 128,-1,17
 728 144 728 144 679 96 c 128,-1,18
 630 48 630 48 563.5 21.5 c 128,-1,19
 497 -5 497 -5 419 -5 c 256,0,1
419 42 m 256,20,21
 486 42 486 42 543 65 c 128,-1,22
 600 88 600 88 642 130 c 128,-1,23
 684 172 684 172 707.5 228 c 128,-1,24
 731 284 731 284 731 350 c 0,25,26
 731 417 731 417 707.5 472.5 c 128,-1,27
 684 528 684 528 642 570 c 128,-1,28
 600 612 600 612 543 635 c 128,-1,29
 486 658 486 658 419 658 c 256,30,31
 352 658 352 658 295 635 c 128,-1,32
 238 612 238 612 195.5 570 c 128,-1,33
 153 528 153 528 129.5 472.5 c 128,-1,34
 106 417 106 417 106 350 c 0,35,36
 106 284 106 284 129.5 228 c 128,-1,37
 153 172 153 172 195.5 130 c 128,-1,38
 238 88 238 88 295 65 c 128,-1,39
 352 42 352 42 419 42 c 256,20,21
419 308 m 256,40,41
 401 308 401 308 388.5 320.5 c 128,-1,42
 376 333 376 333 376 350 c 0,43,44
 376 368 376 368 388.5 380.5 c 128,-1,45
 401 393 401 393 419 393 c 256,46,47
 437 393 437 393 449 380.5 c 128,-1,48
 461 368 461 368 461 350 c 0,49,50
 461 333 461 333 449 320.5 c 128,-1,51
 437 308 437 308 419 308 c 256,40,41
EndSplineSet
Validated: 1
Substitution2: "'smcp' Lowercase to Small Capitals lookup 46 subtable" uni0298.sc
Substitution2: "'aalt' Access All Alternates lookup 0 subtable" uni0298.sc
EndChar

StartChar: uni0180
Encoding: 384 384 624
Width: 683
GlyphClass: 1
Flags: W
LayerCount: 2
Fore
SplineSet
376 -4 m 0,0,1
 306 -4 306 -4 250.5 28 c 128,-1,2
 195 60 195 60 163 120 c 128,-1,3
 131 180 131 180 131 261 c 0,4,5
 131 344 131 344 163.5 403 c 128,-1,6
 196 462 196 462 251.5 494 c 128,-1,7
 307 526 307 526 376 526 c 0,8,9
 450 526 450 526 508 492.5 c 128,-1,10
 566 459 566 459 600 399.5 c 128,-1,11
 634 340 634 340 634 261 c 0,12,13
 634 183 634 183 600 123 c 128,-1,14
 566 63 566 63 508 29.5 c 128,-1,15
 450 -4 450 -4 376 -4 c 0,0,1
113 0 m 1,16,-1
 113 742 l 1,17,-1
 163 742 l 1,18,-1
 163 353 l 1,19,-1
 153 262 l 1,20,-1
 162 171 l 1,21,-1
 162 0 l 1,22,-1
 113 0 l 1,16,-1
373 41 m 256,23,24
 433 41 433 41 480.5 68.5 c 128,-1,25
 528 96 528 96 555.5 146 c 128,-1,26
 583 196 583 196 583 261 c 0,27,28
 583 327 583 327 555.5 376.5 c 128,-1,29
 528 426 528 426 480.5 453.5 c 128,-1,30
 433 481 433 481 373 481 c 256,31,32
 313 481 313 481 265.5 453.5 c 128,-1,33
 218 426 218 426 190.5 376.5 c 128,-1,34
 163 327 163 327 163 261 c 0,35,36
 163 196 163 196 190.5 146 c 128,-1,37
 218 96 218 96 265.5 68.5 c 128,-1,38
 313 41 313 41 373 41 c 256,23,24
15 613 m 1,39,-1
 15 651 l 1,40,-1
 335 651 l 1,41,-1
 335 613 l 1,42,-1
 15 613 l 1,39,-1
EndSplineSet
Validated: 5
Substitution2: "'smcp' Lowercase to Small Capitals lookup 46 subtable" uni0180.sc
Substitution2: "'aalt' Access All Alternates lookup 0 subtable" uni0180.sc
EndChar

StartChar: uni0183
Encoding: 387 387 625
Width: 675
GlyphClass: 1
Flags: W
LayerCount: 2
Fore
SplineSet
368 -4 m 0,0,1
 299 -4 299 -4 243.5 28 c 128,-1,2
 188 60 188 60 155.5 120 c 128,-1,3
 123 180 123 180 123 261 c 0,4,5
 123 344 123 344 155.5 403 c 128,-1,6
 188 462 188 462 243.5 494 c 128,-1,7
 299 526 299 526 368 526 c 0,8,9
 442 526 442 526 500.5 492.5 c 128,-1,10
 559 459 559 459 592.5 399.5 c 128,-1,11
 626 340 626 340 626 261 c 0,12,13
 626 183 626 183 592.5 123 c 128,-1,14
 559 63 559 63 500.5 29.5 c 128,-1,15
 442 -4 442 -4 368 -4 c 0,0,1
106 0 m 1,16,-1
 106 742 l 1,17,-1
 156 742 l 1,18,-1
 156 353 l 1,19,-1
 146 262 l 1,20,-1
 154 171 l 1,21,-1
 154 0 l 1,22,-1
 106 0 l 1,16,-1
365 41 m 256,23,24
 425 41 425 41 473 68.5 c 128,-1,25
 521 96 521 96 548.5 146 c 128,-1,26
 576 196 576 196 576 261 c 0,27,28
 576 327 576 327 548.5 376.5 c 128,-1,29
 521 426 521 426 473 453.5 c 128,-1,30
 425 481 425 481 365 481 c 256,31,32
 305 481 305 481 257.5 453.5 c 128,-1,33
 210 426 210 426 182.5 376.5 c 128,-1,34
 155 327 155 327 155 261 c 0,35,36
 155 196 155 196 182.5 146 c 128,-1,37
 210 96 210 96 257.5 68.5 c 128,-1,38
 305 41 305 41 365 41 c 256,23,24
156 699 m 1,39,-1
 106 742 l 1,40,-1
 502 742 l 1,41,-1
 502 699 l 1,42,-1
 156 699 l 1,39,-1
EndSplineSet
Validated: 5
Substitution2: "'smcp' Lowercase to Small Capitals lookup 46 subtable" uni0183.sc
Substitution2: "'aalt' Access All Alternates lookup 0 subtable" uni0183.sc
EndChar

StartChar: c
Encoding: 99 99 626
Width: 555
GlyphClass: 2
Flags: W
AnchorPoint: "Anchor-3" 300 522 basechar 0
AnchorPoint: "Anchor-1" 122 261 basechar 0
AnchorPoint: "Anchor-0" 300 0 basechar 0
LayerCount: 2
Fore
SplineSet
313 -4 m 0,0,1
 237 -4 237 -4 177.5 30 c 128,-1,2
 118 64 118 64 83.5 124 c 128,-1,3
 49 184 49 184 49 261 c 0,4,5
 49 339 49 339 83.5 399 c 128,-1,6
 118 459 118 459 177.5 492.5 c 128,-1,7
 237 526 237 526 313 526 c 0,8,9
 376 526 376 526 427.5 502 c 128,-1,10
 479 478 479 478 511 430 c 1,11,-1
 474 403 l 1,12,13
 446 443 446 443 404 462 c 128,-1,14
 362 481 362 481 313 481 c 0,15,16
 252 481 252 481 203.5 453.5 c 128,-1,17
 155 426 155 426 127.5 376.5 c 128,-1,18
 100 327 100 327 100 261 c 256,19,20
 100 195 100 195 127.5 145.5 c 128,-1,21
 155 96 155 96 203.5 68.5 c 128,-1,22
 252 41 252 41 313 41 c 0,23,24
 362 41 362 41 404 60 c 128,-1,25
 446 79 446 79 474 119 c 1,26,-1
 511 92 l 1,27,28
 479 44 479 44 427.5 20 c 128,-1,29
 376 -4 376 -4 313 -4 c 0,0,1
EndSplineSet
Validated: 1
Substitution2: "'smcp' Lowercase to Small Capitals lookup 46 subtable" c.sc
Substitution2: "'aalt' Access All Alternates lookup 0 subtable" c.sc
EndChar

StartChar: uniA793
Encoding: 42899 42899 628
Width: 609
GlyphClass: 2
Flags: W
AnchorPoint: "Anchor-3" 354 522 basechar 0
AnchorPoint: "Anchor-1" 176 261 basechar 0
AnchorPoint: "Anchor-0" 354 0 basechar 0
LayerCount: 2
Fore
SplineSet
367 -4 m 0,0,1
 291 -4 291 -4 231 30 c 128,-1,2
 171 64 171 64 137 124 c 128,-1,3
 103 184 103 184 103 261 c 0,4,5
 103 339 103 339 137 399 c 128,-1,6
 171 459 171 459 231 492.5 c 128,-1,7
 291 526 291 526 367 526 c 0,8,9
 429 526 429 526 481 502 c 128,-1,10
 533 478 533 478 565 430 c 1,11,-1
 528 403 l 1,12,13
 499 443 499 443 457 462 c 128,-1,14
 415 481 415 481 367 481 c 0,15,16
 306 481 306 481 257.5 453.5 c 128,-1,17
 209 426 209 426 181 376.5 c 128,-1,18
 153 327 153 327 153 261 c 256,19,20
 153 195 153 195 181 145.5 c 128,-1,21
 209 96 209 96 257.5 68.5 c 128,-1,22
 306 41 306 41 367 41 c 0,23,24
 415 41 415 41 457 60 c 128,-1,25
 499 79 499 79 528 119 c 1,26,-1
 565 92 l 1,27,28
 533 44 533 44 481 20 c 128,-1,29
 429 -4 429 -4 367 -4 c 0,0,1
5 250 m 1,30,-1
 5 289 l 1,31,-1
 317 289 l 1,32,-1
 317 250 l 1,33,-1
 5 250 l 1,30,-1
EndSplineSet
Validated: 5
Substitution2: "'smcp' Lowercase to Small Capitals lookup 46 subtable" uniA793.sc
Substitution2: "'aalt' Access All Alternates lookup 0 subtable" uniA793.sc
EndChar

StartChar: uniAB53
Encoding: 43859 43859 634
Width: 523
GlyphClass: 1
Flags: W
LayerCount: 2
Fore
SplineSet
614 -154 m 1,0,1
 597 -174 597 -174 573.5 -187 c 128,-1,2
 550 -200 550 -200 523.5 -200 c 128,-1,3
 497 -200 497 -200 473 -185 c 128,-1,4
 449 -170 449 -170 431 -137 c 2,5,-1
 274 149 l 1,6,-1
 260 170 l 1,7,-1
 109 441 l 2,8,9
 92 472 92 472 71 480 c 128,-1,10
 50 488 50 488 30.5 480.5 c 128,-1,11
 11 473 11 473 -5 454 c 1,12,-1
 -35 481 l 1,13,14
 -18 502 -18 502 5.5 514 c 128,-1,15
 29 526 29 526 54.5 526.5 c 128,-1,16
 80 527 80 527 104.5 512.5 c 128,-1,17
 129 498 129 498 147 464 c 2,18,-1
 289 208 l 1,19,-1
 301 190 l 1,20,-1
 470 -113 l 2,21,22
 487 -143 487 -143 507.5 -152.5 c 128,-1,23
 528 -162 528 -162 548.5 -154 c 128,-1,24
 569 -146 569 -146 584 -127 c 1,25,-1
 614 -154 l 1,0,1
35 -194 m 1,26,-1
 266 195 l 1,27,-1
 272 198 l 1,28,-1
 462 522 l 1,29,-1
 517 522 l 1,30,-1
 299 163 l 1,31,-1
 292 156 l 1,32,-1
 88 -194 l 1,33,-1
 35 -194 l 1,26,-1
EndSplineSet
Validated: 37
Substitution2: "'smcp' Lowercase to Small Capitals lookup 46 subtable" uniAB53.sc
Substitution2: "'aalt' Access All Alternates lookup 0 subtable" uniAB53.sc
EndChar

StartChar: uni0188
Encoding: 392 392 635
Width: 561
GlyphClass: 1
Flags: W
LayerCount: 2
Fore
SplineSet
511 430 m 1,0,-1
 463 431 l 1,1,-1
 463 606 l 2,2,3
 463 653 463 653 479.5 683.5 c 128,-1,4
 496 714 496 714 523 730 c 128,-1,5
 550 746 550 746 581.5 746.5 c 128,-1,6
 613 747 613 747 644 733 c 1,7,-1
 632 694 l 1,8,9
 602 708 602 708 574 703 c 128,-1,10
 546 698 546 698 528.5 673.5 c 128,-1,11
 511 649 511 649 511 606 c 2,12,-1
 511 430 l 1,0,-1
313 -4 m 0,13,14
 237 -4 237 -4 177.5 30 c 128,-1,15
 118 64 118 64 83.5 124 c 128,-1,16
 49 184 49 184 49 261 c 0,17,18
 49 339 49 339 83.5 399 c 128,-1,19
 118 459 118 459 177.5 492.5 c 128,-1,20
 237 526 237 526 313 526 c 0,21,22
 376 526 376 526 427.5 502 c 128,-1,23
 479 478 479 478 511 430 c 1,24,-1
 474 403 l 1,25,26
 446 443 446 443 404 462 c 128,-1,27
 362 481 362 481 313 481 c 0,28,29
 252 481 252 481 203.5 453.5 c 128,-1,30
 155 426 155 426 127.5 376.5 c 128,-1,31
 100 327 100 327 100 261 c 256,32,33
 100 195 100 195 127.5 145.5 c 128,-1,34
 155 96 155 96 203.5 68.5 c 128,-1,35
 252 41 252 41 313 41 c 0,36,37
 362 41 362 41 404 60 c 128,-1,38
 446 79 446 79 474 119 c 1,39,-1
 511 92 l 1,40,41
 479 44 479 44 427.5 20 c 128,-1,42
 376 -4 376 -4 313 -4 c 0,13,14
EndSplineSet
Validated: 37
Substitution2: "'smcp' Lowercase to Small Capitals lookup 46 subtable" uni0188.sc
Substitution2: "'aalt' Access All Alternates lookup 0 subtable" uni0188.sc
EndChar

StartChar: uni023C
Encoding: 572 572 637
Width: 555
GlyphClass: 2
Flags: W
AnchorPoint: "Anchor-3" 300 522 basechar 0
AnchorPoint: "Anchor-1" 122 261 basechar 0
AnchorPoint: "Anchor-0" 300 0 basechar 0
LayerCount: 2
Fore
SplineSet
313 -4 m 0,0,1
 237 -4 237 -4 177.5 30 c 128,-1,2
 118 64 118 64 83.5 124 c 128,-1,3
 49 184 49 184 49 261 c 0,4,5
 49 339 49 339 83.5 399 c 128,-1,6
 118 459 118 459 177.5 492.5 c 128,-1,7
 237 526 237 526 313 526 c 0,8,9
 376 526 376 526 427.5 502 c 128,-1,10
 479 478 479 478 511 430 c 1,11,-1
 474 403 l 1,12,13
 446 443 446 443 404 462 c 128,-1,14
 362 481 362 481 313 481 c 0,15,16
 252 481 252 481 203.5 453.5 c 128,-1,17
 155 426 155 426 127.5 376.5 c 128,-1,18
 100 327 100 327 100 261 c 256,19,20
 100 195 100 195 127.5 145.5 c 128,-1,21
 155 96 155 96 203.5 68.5 c 128,-1,22
 252 41 252 41 313 41 c 0,23,24
 362 41 362 41 404 60 c 128,-1,25
 446 79 446 79 474 119 c 1,26,-1
 511 92 l 1,27,28
 479 44 479 44 427.5 20 c 128,-1,29
 376 -4 376 -4 313 -4 c 0,0,1
142 -78 m 1,30,-1
 419 600 l 1,31,-1
 457 600 l 1,32,-1
 180 -78 l 1,33,-1
 142 -78 l 1,30,-1
EndSplineSet
Validated: 5
Substitution2: "'smcp' Lowercase to Small Capitals lookup 46 subtable" uni023C.sc
Substitution2: "'aalt' Access All Alternates lookup 0 subtable" uni023C.sc
EndChar

StartChar: d
Encoding: 100 100 638
Width: 675
GlyphClass: 2
Flags: W
AnchorPoint: "Anchor-4" 666 742 basechar 0
AnchorPoint: "Anchor-3" 307 522 basechar 0
AnchorPoint: "Anchor-1" 483 632 basechar 0
AnchorPoint: "Anchor-0" 335 0 basechar 0
LayerCount: 2
Fore
SplineSet
307 -4 m 0,0,1
 234 -4 234 -4 175.5 29.5 c 128,-1,2
 117 63 117 63 83 123 c 128,-1,3
 49 183 49 183 49 261 c 0,4,5
 49 340 49 340 83 399.5 c 128,-1,6
 117 459 117 459 175.5 492.5 c 128,-1,7
 234 526 234 526 307 526 c 0,8,9
 376 526 376 526 431.5 494 c 128,-1,10
 487 462 487 462 519.5 403 c 128,-1,11
 552 344 552 344 552 261 c 0,12,13
 552 180 552 180 520 120 c 128,-1,14
 488 60 488 60 432.5 28 c 128,-1,15
 377 -4 377 -4 307 -4 c 0,0,1
310 41 m 256,16,17
 370 41 370 41 417.5 68.5 c 128,-1,18
 465 96 465 96 492.5 146 c 128,-1,19
 520 196 520 196 520 261 c 0,20,21
 520 327 520 327 492.5 376.5 c 128,-1,22
 465 426 465 426 417.5 453.5 c 128,-1,23
 370 481 370 481 310 481 c 256,24,25
 250 481 250 481 202.5 453.5 c 128,-1,26
 155 426 155 426 127.5 376.5 c 128,-1,27
 100 327 100 327 100 261 c 0,28,29
 100 196 100 196 127.5 146 c 128,-1,30
 155 96 155 96 202.5 68.5 c 128,-1,31
 250 41 250 41 310 41 c 256,16,17
521 0 m 1,32,-1
 521 171 l 1,33,-1
 530 262 l 1,34,-1
 520 353 l 1,35,-1
 520 742 l 1,36,-1
 570 742 l 1,37,-1
 570 0 l 1,38,-1
 521 0 l 1,32,-1
EndSplineSet
Validated: 5
Substitution2: "'smcp' Lowercase to Small Capitals lookup 46 subtable" d.sc
Substitution2: "'aalt' Access All Alternates lookup 0 subtable" d.sc
EndChar

StartChar: uni0257
Encoding: 599 599 645
Width: 669
GlyphClass: 2
Flags: W
AnchorPoint: "Anchor-4" 666 742 basechar 0
AnchorPoint: "Anchor-1" 483 632 basechar 0
AnchorPoint: "Anchor-0" 335 0 basechar 0
LayerCount: 2
Fore
SplineSet
307 -4 m 0,0,1
 234 -4 234 -4 175.5 29.5 c 128,-1,2
 117 63 117 63 83 123 c 128,-1,3
 49 183 49 183 49 261 c 0,4,5
 49 340 49 340 83 399.5 c 128,-1,6
 117 459 117 459 175.5 492.5 c 128,-1,7
 234 526 234 526 307 526 c 0,8,9
 376 526 376 526 431.5 494 c 128,-1,10
 487 462 487 462 519.5 403 c 128,-1,11
 552 344 552 344 552 261 c 0,12,13
 552 180 552 180 520 120 c 128,-1,14
 488 60 488 60 432.5 28 c 128,-1,15
 377 -4 377 -4 307 -4 c 0,0,1
310 41 m 256,16,17
 370 41 370 41 417.5 68.5 c 128,-1,18
 465 96 465 96 492.5 146 c 128,-1,19
 520 196 520 196 520 261 c 0,20,21
 520 327 520 327 492.5 376.5 c 128,-1,22
 465 426 465 426 417.5 453.5 c 128,-1,23
 370 481 370 481 310 481 c 256,24,25
 250 481 250 481 202.5 453.5 c 128,-1,26
 155 426 155 426 127.5 376.5 c 128,-1,27
 100 327 100 327 100 261 c 0,28,29
 100 196 100 196 127.5 146 c 128,-1,30
 155 96 155 96 202.5 68.5 c 128,-1,31
 250 41 250 41 310 41 c 256,16,17
521 0 m 1,32,-1
 521 171 l 1,33,-1
 530 262 l 1,34,-1
 520 353 l 1,35,-1
 520 607 l 2,36,37
 520 655 520 655 536.5 686 c 128,-1,38
 553 717 553 717 581.5 732.5 c 128,-1,39
 610 748 610 748 643 746.5 c 128,-1,40
 676 745 676 745 709 730 c 1,41,-1
 694 691 l 1,42,43
 665 707 665 707 636.5 703 c 128,-1,44
 608 699 608 699 589 676 c 128,-1,45
 570 653 570 653 570 611 c 2,46,-1
 570 0 l 1,47,-1
 521 0 l 1,32,-1
EndSplineSet
Validated: 37
Substitution2: "'smcp' Lowercase to Small Capitals lookup 46 subtable" uni0257.sc
Substitution2: "'aalt' Access All Alternates lookup 0 subtable" uni0257.sc
EndChar

StartChar: uni1D91
Encoding: 7569 7569 646
Width: 666
GlyphClass: 1
Flags: W
LayerCount: 2
Fore
SplineSet
307 -4 m 0,0,1
 234 -4 234 -4 175.5 29.5 c 128,-1,2
 117 63 117 63 83 123 c 128,-1,3
 49 183 49 183 49 261 c 0,4,5
 49 340 49 340 83 399.5 c 128,-1,6
 117 459 117 459 175.5 492.5 c 128,-1,7
 234 526 234 526 307 526 c 0,8,9
 376 526 376 526 431.5 494 c 128,-1,10
 487 462 487 462 519.5 403 c 128,-1,11
 552 344 552 344 552 261 c 0,12,13
 552 180 552 180 520 120 c 128,-1,14
 488 60 488 60 432.5 28 c 128,-1,15
 377 -4 377 -4 307 -4 c 0,0,1
310 41 m 256,16,17
 370 41 370 41 417.5 68.5 c 128,-1,18
 465 96 465 96 492.5 146 c 128,-1,19
 520 196 520 196 520 261 c 0,20,21
 520 327 520 327 492.5 376.5 c 128,-1,22
 465 426 465 426 417.5 453.5 c 128,-1,23
 370 481 370 481 310 481 c 256,24,25
 250 481 250 481 202.5 453.5 c 128,-1,26
 155 426 155 426 127.5 376.5 c 128,-1,27
 100 327 100 327 100 261 c 0,28,29
 100 196 100 196 127.5 146 c 128,-1,30
 155 96 155 96 202.5 68.5 c 128,-1,31
 250 41 250 41 310 41 c 256,16,17
520 171 m 1,32,-1
 530 262 l 1,33,-1
 520 353 l 1,34,-1
 520 603 l 2,35,36
 520 640 520 640 530.5 668 c 128,-1,37
 541 696 541 696 559.5 713.5 c 128,-1,38
 578 731 578 731 601.5 739 c 128,-1,39
 625 747 625 747 652 746 c 128,-1,40
 679 745 679 745 706 734 c 1,41,-1
 695 693 l 1,42,43
 644 715 644 715 607 691 c 128,-1,44
 570 667 570 667 570 603 c 2,45,-1
 570 -55 l 2,46,47
 570 -118 570 -118 607 -142.5 c 128,-1,48
 644 -167 644 -167 695 -145 c 1,49,-1
 706 -186 l 1,50,51
 679 -196 679 -196 652 -197.5 c 128,-1,52
 625 -199 625 -199 601.5 -191 c 128,-1,53
 578 -183 578 -183 559.5 -165.5 c 128,-1,54
 541 -148 541 -148 530.5 -120 c 128,-1,55
 520 -92 520 -92 520 -55 c 2,56,-1
 520 171 l 1,32,-1
EndSplineSet
Validated: 37
Substitution2: "'smcp' Lowercase to Small Capitals lookup 46 subtable" uni1D91.sc
Substitution2: "'aalt' Access All Alternates lookup 0 subtable" uni1D91.sc
EndChar

StartChar: uni0256
Encoding: 598 598 648
Width: 666
GlyphClass: 1
Flags: W
LayerCount: 2
Fore
SplineSet
307 -4 m 0,0,1
 234 -4 234 -4 175.5 29.5 c 128,-1,2
 117 63 117 63 83 123 c 128,-1,3
 49 183 49 183 49 261 c 0,4,5
 49 340 49 340 83 399.5 c 128,-1,6
 117 459 117 459 175.5 492.5 c 128,-1,7
 234 526 234 526 307 526 c 0,8,9
 376 526 376 526 431.5 494 c 128,-1,10
 487 462 487 462 519.5 403 c 128,-1,11
 552 344 552 344 552 261 c 0,12,13
 552 180 552 180 520 120 c 128,-1,14
 488 60 488 60 432.5 28 c 128,-1,15
 377 -4 377 -4 307 -4 c 0,0,1
310 41 m 256,16,17
 370 41 370 41 417.5 68.5 c 128,-1,18
 465 96 465 96 492.5 146 c 128,-1,19
 520 196 520 196 520 261 c 0,20,21
 520 327 520 327 492.5 376.5 c 128,-1,22
 465 426 465 426 417.5 453.5 c 128,-1,23
 370 481 370 481 310 481 c 256,24,25
 250 481 250 481 202.5 453.5 c 128,-1,26
 155 426 155 426 127.5 376.5 c 128,-1,27
 100 327 100 327 100 261 c 0,28,29
 100 196 100 196 127.5 146 c 128,-1,30
 155 96 155 96 202.5 68.5 c 128,-1,31
 250 41 250 41 310 41 c 256,16,17
520 134 m 1,32,-1
 524 192 l 1,33,-1
 533 262 l 1,34,-1
 520 353 l 1,35,-1
 520 742 l 1,36,-1
 570 742 l 1,37,-1
 570 -56 l 2,38,39
 570 -119 570 -119 607 -143.5 c 128,-1,40
 644 -168 644 -168 695 -146 c 1,41,-1
 706 -186 l 1,42,43
 679 -197 679 -197 652 -198.5 c 128,-1,44
 625 -200 625 -200 601.5 -191.5 c 128,-1,45
 578 -183 578 -183 559.5 -165.5 c 128,-1,46
 541 -148 541 -148 530.5 -120.5 c 128,-1,47
 520 -93 520 -93 520 -56 c 2,48,-1
 520 134 l 1,32,-1
EndSplineSet
Validated: 37
Substitution2: "'smcp' Lowercase to Small Capitals lookup 46 subtable" uni0256.sc
Substitution2: "'aalt' Access All Alternates lookup 0 subtable" uni0256.sc
EndChar

StartChar: uni018C
Encoding: 396 396 649
Width: 675
GlyphClass: 2
Flags: W
AnchorPoint: "Anchor-4" 666 742 basechar 0
AnchorPoint: "Anchor-1" 483 632 basechar 0
AnchorPoint: "Anchor-0" 335 0 basechar 0
LayerCount: 2
Fore
SplineSet
307 -4 m 0,0,1
 234 -4 234 -4 175.5 29.5 c 128,-1,2
 117 63 117 63 83 123 c 128,-1,3
 49 183 49 183 49 261 c 0,4,5
 49 340 49 340 83 399.5 c 128,-1,6
 117 459 117 459 175.5 492.5 c 128,-1,7
 234 526 234 526 307 526 c 0,8,9
 376 526 376 526 431.5 494 c 128,-1,10
 487 462 487 462 519.5 403 c 128,-1,11
 552 344 552 344 552 261 c 0,12,13
 552 180 552 180 520 120 c 128,-1,14
 488 60 488 60 432.5 28 c 128,-1,15
 377 -4 377 -4 307 -4 c 0,0,1
310 41 m 256,16,17
 370 41 370 41 417.5 68.5 c 128,-1,18
 465 96 465 96 492.5 146 c 128,-1,19
 520 196 520 196 520 261 c 0,20,21
 520 327 520 327 492.5 376.5 c 128,-1,22
 465 426 465 426 417.5 453.5 c 128,-1,23
 370 481 370 481 310 481 c 256,24,25
 250 481 250 481 202.5 453.5 c 128,-1,26
 155 426 155 426 127.5 376.5 c 128,-1,27
 100 327 100 327 100 261 c 0,28,29
 100 196 100 196 127.5 146 c 128,-1,30
 155 96 155 96 202.5 68.5 c 128,-1,31
 250 41 250 41 310 41 c 256,16,17
521 0 m 1,32,-1
 521 171 l 1,33,-1
 530 262 l 1,34,-1
 520 353 l 1,35,-1
 520 742 l 1,36,-1
 570 742 l 1,37,-1
 570 0 l 1,38,-1
 521 0 l 1,32,-1
173 699 m 1,39,-1
 173 742 l 1,40,-1
 570 742 l 1,41,-1
 520 699 l 1,42,-1
 173 699 l 1,39,-1
EndSplineSet
Validated: 5
Substitution2: "'smcp' Lowercase to Small Capitals lookup 46 subtable" uni018C.sc
Substitution2: "'aalt' Access All Alternates lookup 0 subtable" uni018C.sc
EndChar

StartChar: eth
Encoding: 240 240 652
Width: 584
GlyphClass: 1
Flags: W
LayerCount: 2
Fore
SplineSet
281 -2 m 0,0,1
 212 -2 212 -2 160.5 26 c 128,-1,2
 109 54 109 54 80.5 104.5 c 128,-1,3
 52 155 52 155 52 223 c 0,4,5
 52 289 52 289 80 337.5 c 128,-1,6
 108 386 108 386 159 413 c 128,-1,7
 210 440 210 440 279 440 c 0,8,9
 345 440 345 440 398.5 410 c 128,-1,10
 452 380 452 380 476 329 c 1,11,12
 458 405 458 405 410.5 477.5 c 128,-1,13
 363 550 363 550 294.5 611.5 c 128,-1,14
 226 673 226 673 145 715 c 1,15,-1
 178 744 l 1,16,17
 285 686 285 686 364 604 c 128,-1,18
 443 522 443 522 486 428 c 128,-1,19
 529 334 529 334 529 239 c 0,20,21
 529 166 529 166 498.5 112 c 128,-1,22
 468 58 468 58 412.5 28 c 128,-1,23
 357 -2 357 -2 281 -2 c 0,0,1
287 42 m 0,24,25
 373 42 373 42 424 90 c 128,-1,26
 475 138 475 138 475 217 c 0,27,28
 475 299 475 299 424 348.5 c 128,-1,29
 373 398 373 398 288 398 c 256,30,31
 203 398 203 398 152.5 351 c 128,-1,32
 102 304 102 304 102 224 c 0,33,34
 102 141 102 141 152.5 91.5 c 128,-1,35
 203 42 203 42 287 42 c 0,24,25
143 513 m 1,36,-1
 127 545 l 1,37,-1
 464 701 l 1,38,-1
 479 669 l 1,39,-1
 143 513 l 1,36,-1
EndSplineSet
Validated: 5
Substitution2: "'smcp' Lowercase to Small Capitals lookup 46 subtable" eth.sc
Substitution2: "'aalt' Access All Alternates lookup 0 subtable" eth.sc
EndChar

